{
.appVersion = "1075";
copyright = "\\(c\\) 2017 IBM Corp. All rights reserved.";
customParameters = (
{
name = vendorID;
value = "IBM ";
},
{
name = panose;
value = (
2,
11,
5,
9,
5,
0,
0,
0,
0,
0
);
},
{
name = unicodeRanges;
value = (
0,
1,
2,
3,
5,
6,
29,
31,
32,
33,
35,
36,
37,
38,
45,
60,
62
);
},
{
name = codePageRanges;
value = (
1252,
1250,
1254,
1257,
1258
);
},
{
name = glyphOrder;
value = (
.notdef,
a,
a.alt01,
b,
c,
d,
e,
f,
g,
g.alt01,
g.alt02,
h,
i,
j,
k,
l,
m,
n,
o,
p,
q,
r,
s,
t,
u,
v,
w,
x,
y,
z,
A,
B,
C,
D,
E,
F,
G,
H,
I,
J,
K,
L,
M,
N,
O,
P,
Q,
R,
S,
T,
U,
V,
W,
X,
Y,
Z,
zero,
zero.alt01,
zero.alt02,
one,
two,
three,
four,
five,
six,
seven,
eight,
nine,
ampersand,
at,
hyphen,
uni00AD,
endash,
emdash,
underscore,
period,
ellipsis,
colon,
comma,
semicolon,
quotesingle,
quotedbl,
quoteleft,
quoteright,
quotedblleft,
quotedblright,
quotesinglbase,
quotedblbase,
guilsinglleft,
guilsinglright,
guillemotleft,
guillemotright,
exclamdown,
exclam,
questiondown,
question,
parenleft,
parenright,
bracketleft,
bracketright,
braceleft,
braceright,
slash,
backslash,
fraction,
percent,
perthousand,
bar,
brokenbar,
section,
paragraph,
copyright,
registered,
trademark,
ordfeminine,
ordmasculine,
degree,
asterisk,
dagger,
daggerdbl,
numbersign,
asciicircum,
asciitilde,
plus,
minus,
plusminus,
multiply,
divide,
equal,
approxequal,
notequal,
less,
greater,
lessequal,
greaterequal,
periodcentered,
bullet,
lozenge,
logicalnot,
radical,
integral,
infinity,
uni212E,
uni2113,
uni2116,
partialdiff,
cent,
Euro,
florin,
sterling,
dollar,
yen,
uni0E3F,
uni20A1,
uni20A4,
uni20A6,
uni20A8,
uni20A9,
uni20AA,
uni20AB,
uni20AD,
uni20AE,
uni20B1,
uni20B2,
uni20B4,
uni20B5,
uni20B8,
uni20B9,
uni20BA,
uni20BD,
uni20BF,
fi,
fl,
aacute,
abreve,
acircumflex,
adieresis,
uni1EA1,
agrave,
uni1EA3,
amacron,
aogonek,
aring,
aringacute,
atilde,
uni1EAF,
uni1EB7,
uni1EB1,
uni1EB3,
uni1EB5,
uni1EA5,
uni1EAD,
uni1EA7,
uni1EA9,
uni1EAB,
aacute.alt01,
abreve.alt01,
acircumflex.alt01,

glyphs = (
{
glyphname = .notdef;
lastChange = "2017-11-24 19:34:51 +0000";
layers = (
{
layerId = "6B036DBC-DFAA-4A6A-8D11-6D1679C0E942";
paths = (
{
closed = 1;
nodes = (
"50 -250 LINE",
"550 -250 LINE",
"550 670 LINE",
"50 670 LINE"
);
}
);
width = 600;
}
);
note = .notdef;
},
{
glyphname = a;
lastChange = "2017-11-24 19:34:51 +0000";
layers = (
{
layerId = "6B036DBC-DFAA-4A6A-8D11-6D1679C0E942";
paths = (
{
closed = 1;
nodes = (
"550 0 LINE",
"550 70 LINE",
"478 70 LINE",
"478 354 LINE SMOOTH",
"478 463 OFFCURVE",
"401 528 OFFCURVE",
"280 528 CURVE SMOOTH",
"175 528 OFFCURVE",
"109 478 OFFCURVE",
"83 424 CURVE",
"137 384 LINE",
"164 431 OFFCURVE",
"206 460 OFFCURVE",
"275 460 CURVE SMOOTH",
"353 460 OFFCURVE",
"398 421 OFFCURVE",
"398 346 CURVE SMOOTH",
"398 295 LINE",
"288 295 LINE SMOOTH",
"133 295 OFFCURVE",
"66 240 OFFCURVE",
"66 145 CURVE SMOOTH",
"66 48 OFFCURVE",
"135 -12 OFFCURVE",
"243 -12 CURVE SMOOTH",
"327 -12 OFFCURVE",
"376 25 OFFCURVE",
"398 84 CURVE",
"403 84 LINE",
"409 36 OFFCURVE",
"433 0 OFFCURVE",
"495 0 CURVE SMOOTH"
);
},
{
closed = 1;
nodes = (
"191 55 OFFCURVE",
"150 83 OFFCURVE",
"150 136 CURVE SMOOTH",
"150 157 LINE SMOOTH",
"150 207 OFFCURVE",
"193 235 OFFCURVE",
"288 235 CURVE SMOOTH",
"398 235 LINE",
"398 150 LINE SMOOTH",
"398 97 OFFCURVE",
"339 55 OFFCURVE",
"257 55 CURVE SMOOTH"
);
}
);
width = 600;
}
);
note = a;
unicode = 0061;
},
{
glyphname = a.alt01;
lastChange = "2017-11-24 19:34:51 +0000";
layers = (
{
layerId = "6B036DBC-DFAA-4A6A-8D11-6D1679C0E942";
paths = (
{
closed = 1;
nodes = (
"425 0 LINE",
"505 0 LINE",
"505 516 LINE",
"425 516 LINE",
"425 432 LINE",
"421 432 LINE",
"388 495 OFFCURVE",
"334 528 OFFCURVE",
"262 528 CURVE SMOOTH",
"136 528 OFFCURVE",
"60 427 OFFCURVE",
"60 258 CURVE SMOOTH",
"60 89 OFFCURVE",
"136 -12 OFFCURVE",
"262 -12 CURVE SMOOTH",
"334 -12 OFFCURVE",
"388 21 OFFCURVE",
"421 84 CURVE",
"425 84 LINE"
);
},
{
closed = 1;
nodes = (
"200 59 OFFCURVE",
"146 121 OFFCURVE",
"146 214 CURVE SMOOTH",
"146 302 LINE SMOOTH",
"146 395 OFFCURVE",
"200 457 OFFCURVE",
"293 457 CURVE SMOOTH",
"364 457 OFFCURVE",
"425 420 OFFCURVE",
"425 351 CURVE SMOOTH",
"425 165 LINE SMOOTH",
"425 96 OFFCURVE",
"364 59 OFFCURVE",
"293 59 CURVE SMOOTH"
);
}
);
width = 600;
}
);
note = a.alt01;
},
{
glyphname = b;
lastChange = "2017-11-24 19:34:51 +0000";
layers = (
{
layerId = "6B036DBC-DFAA-4A6A-8D11-6D1679C0E942";
paths = (
{
closed = 1;
nodes = (
"95 0 LINE",
"175 0 LINE",
"175 84 LINE",
"179 84 LINE",
"212 21 OFFCURVE",
"266 -12 OFFCURVE",
"338 -12 CURVE SMOOTH",
"464 -12 OFFCURVE",
"540 89 OFFCURVE",
"540 258 CURVE SMOOTH",
"540 427 OFFCURVE",
"464 528 OFFCURVE",
"338 528 CURVE SMOOTH",
"266 528 OFFCURVE",
"212 495 OFFCURVE",
"179 432 CURVE",
"175 432 LINE",
"175 740 LINE",
"95 740 LINE"
);
},
{
closed = 1;
nodes = (
"236 59 OFFCURVE",
"175 96 OFFCURVE",
"175 165 CURVE SMOOTH",
"175 351 LINE SMOOTH",
"175 420 OFFCURVE",
"236 457 OFFCURVE",
"307 457 CURVE SMOOTH",
"400 457 OFFCURVE",
"454 395 OFFCURVE",
"454 302 CURVE SMOOTH",
"454 214 LINE SMOOTH",
"454 121 OFFCURVE",
"400 59 OFFCURVE",
"307 59 CURVE SMOOTH"
);
}
);
width = 600;
}
);
note = b;
unicode = 0062;
},
{
glyphname = c;
lastChange = "2017-11-24 19:34:51 +0000";
layers = (
{
layerId = "6B036DBC-DFAA-4A6A-8D11-6D1679C0E942";
paths = (
{
closed = 1;
nodes = (
"421 -12 OFFCURVE",
"486 39 OFFCURVE",
"516 108 CURVE",
"459 147 LINE",
"433 91 OFFCURVE",
"388 57 OFFCURVE",
"319 57 CURVE SMOOTH",
"222 57 OFFCURVE",
"170 123 OFFCURVE",
"170 214 CURVE SMOOTH",
"170 302 LINE SMOOTH",
"170 393 OFFCURVE",
"223 459 OFFCURVE",
"317 459 CURVE SMOOTH",
"381 459 OFFCURVE",
"425 428 OFFCURVE",
"444 375 CURVE",
"508 409 LINE",
"479 479 OFFCURVE",
"417 528 OFFCURVE",
"317 528 CURVE SMOOTH",
"171 528 OFFCURVE",
"84 422 OFFCURVE",
"84 258 CURVE SMOOTH",
"84 95 OFFCURVE",
"170 -12 OFFCURVE",
"318 -12 CURVE SMOOTH"
);
}
);
width = 600;
}
);
note = c;
unicode = 0063;
},
{
glyphname = d;
lastChange = "2017-11-24 19:34:51 +0000";
layers = (
{
layerId = "6B036DBC-DFAA-4A6A-8D11-6D1679C0E942";
paths = (
{
closed = 1;
nodes = (
"425 0 LINE",
"505 0 LINE",
"505 740 LINE",
"425 740 LINE",
"425 432 LINE",
"421 432 LINE",
"388 495 OFFCURVE",
"334 528 OFFCURVE",
"262 528 CURVE SMOOTH",
"136 528 OFFCURVE",
"60 427 OFFCURVE",
"60 258 CURVE SMOOTH",
"60 89 OFFCURVE",
"136 -12 OFFCURVE",
"262 -12 CURVE SMOOTH",
"334 -12 OFFCURVE",
"388 21 OFFCURVE",
"421 84 CURVE",
"425 84 LINE"
);
},
{
closed = 1;
nodes = (
"200 59 OFFCURVE",
"146 121 OFFCURVE",
"146 214 CURVE SMOOTH",
"146 302 LINE SMOOTH",
"146 395 OFFCURVE",
"200 457 OFFCURVE",
"293 457 CURVE SMOOTH",
"364 457 OFFCURVE",
"425 420 OFFCURVE",
"425 351 CURVE SMOOTH",
"425 165 LINE SMOOTH",
"425 96 OFFCURVE",
"364 59 OFFCURVE",
"293 59 CURVE SMOOTH"
);
}
);
width = 600;
}
);
note = d;
unicode = 0064;
},
{
glyphname = e;
lastChange = "2017-11-24 19:34:51 +0000";
layers = (
{
layerId = "6B036DBC-DFAA-4A6A-8D11-6D1679C0E942";
paths = (
{
closed = 1;
nodes = (
"411 -12 OFFCURVE",
"485 38 OFFCURVE",
"516 107 CURVE",
"457 147 LINE",
"430 91 OFFCURVE",
"378 57 OFFCURVE",
"309 57 CURVE SMOOTH",
"212 57 OFFCURVE",
"151 123 OFFCURVE",
"151 214 CURVE SMOOTH",
"151 238 LINE",
"533 238 LINE",
"533 276 LINE SMOOTH",
"533 422 OFFCURVE",
"443 528 OFFCURVE",
"304 528 CURVE SMOOTH",
"164 528 OFFCURVE",
"67 422 OFFCURVE",
"67 257 CURVE SMOOTH",
"67 94 OFFCURVE",
"161 -12 OFFCURVE",
"309 -12 CURVE SMOOTH"
);
},
{
closed = 1;
nodes = (
"389 462 OFFCURVE",
"447 400 OFFCURVE",
"447 309 CURVE SMOOTH",
"447 298 LINE",
"151 298 LINE",
"151 305 LINE SMOOTH",
"151 395 OFFCURVE",
"216 462 OFFCURVE",
"304 462 CURVE SMOOTH"
);
}
);
width = 600;
}
);
note = e;
unicode = 0065;
},
{
glyphname = f;
lastChange = "2017-11-24 19:34:51 +0000";
layers = (
{
layerId = "6B036DBC-DFAA-4A6A-8D11-6D1679C0E942";
paths = (
{
closed = 1;
nodes = (
"83 0 LINE",
"521 0 LINE",
"521 68 LINE",
"337 68 LINE",
"337 448 LINE",
"544 448 LINE",
"544 516 LINE",
"337 516 LINE",
"337 672 LINE",
"544 672 LINE",
"544 740 LINE",
"371 740 LINE SMOOTH",
"293 740 OFFCURVE",
"257 691 OFFCURVE",
"257 622 CURVE SMOOTH",
"257 516 LINE",
"73 516 LINE",
"73 448 LINE",
"257 448 LINE",
"257 68 LINE",
"83 68 LINE"
);
}
);
width = 600;
}
);
note = f;
unicode = 0066;
},
{
glyphname = g;
lastChange = "2017-11-24 19:34:51 +0000";
layers = (
{
layerId = "6B036DBC-DFAA-4A6A-8D11-6D1679C0E942";
paths = (
{
closed = 1;
nodes = (
"561 25 OFFCURVE",
"504 79 OFFCURVE",
"371 79 CURVE SMOOTH",
"257 79 LINE SMOOTH",
"208 79 OFFCURVE",
"174 86 OFFCURVE",
"174 117 CURVE SMOOTH",
"174 152 OFFCURVE",
"217 170 OFFCURVE",
"248 176 CURVE",
"264 173 OFFCURVE",
"280 172 OFFCURVE",
"297 172 CURVE SMOOTH",
"418 172 OFFCURVE",
"498 245 OFFCURVE",
"498 350 CURVE SMOOTH",
"498 404 OFFCURVE",
"477 449 OFFCURVE",
"440 481 CURVE",
"440 516 LINE",
"556 516 LINE",
"556 586 LINE",
"461 586 LINE SMOOTH",
"416 586 OFFCURVE",
"399 556 OFFCURVE",
"399 516 CURVE SMOOTH",
"399 507 LINE",
"370 521 OFFCURVE",
"336 528 OFFCURVE",
"297 528 CURVE SMOOTH",
"176 528 OFFCURVE",
"97 455 OFFCURVE",
"97 350 CURVE SMOOTH",
"97 277 OFFCURVE",
"135 220 OFFCURVE",
"198 192 CURVE",
"198 188 LINE",
"145 175 OFFCURVE",
"105 151 OFFCURVE",
"105 98 CURVE SMOOTH",
"105 63 OFFCURVE",
"122 41 OFFCURVE",
"151 27 CURVE",
"151 15 LINE",
"98 1 OFFCURVE",
"67 -29 OFFCURVE",
"67 -84 CURVE SMOOTH",
"67 -166 OFFCURVE",
"135 -212 OFFCURVE",
"301 -212 CURVE SMOOTH",
"473 -212 OFFCURVE",
"561 -163 OFFCURVE",
"561 -59 CURVE SMOOTH"
);
},
{
closed = 1;
nodes = (
"486 -119 OFFCURVE",
"431 -148 OFFCURVE",
"338 -148 CURVE SMOOTH",
"260 -148 LINE SMOOTH",
"176 -148 OFFCURVE",
"143 -110 OFFCURVE",
"143 -65 CURVE SMOOTH",
"143 -32 OFFCURVE",
"161 -9 OFFCURVE",
"195 5 CURVE",
"374 5 LINE SMOOTH",
"457 5 OFFCURVE",
"486 -22 OFFCURVE",
"486 -63 CURVE SMOOTH"
);
},
{
closed = 1;
nodes = (
"218 234 OFFCURVE",
"181 275 OFFCURVE",
"181 336 CURVE SMOOTH",
"181 365 LINE SMOOTH",
"181 426 OFFCURVE",
"218 466 OFFCURVE",
"297 466 CURVE SMOOTH",
"377 466 OFFCURVE",
"414 426 OFFCURVE",
"414 365 CURVE SMOOTH",
"414 336 LINE SMOOTH",
"414 275 OFFCURVE",
"377 234 OFFCURVE",
"297 234 CURVE SMOOTH"
);
}
);
width = 600;
}
);
note = g;
unicode = 0067;
},
{
glyphname = g.alt01;
lastChange = "2017-11-24 19:34:51 +0000";
layers = (
{
layerId = "6B036DBC-DFAA-4A6A-8D11-6D1679C0E942";
paths = (
{
closed = 1;
nodes = (
"505 516 LINE",
"425 516 LINE",
"425 432 LINE",
"421 432 LINE",
"388 495 OFFCURVE",
"334 528 OFFCURVE",
"262 528 CURVE SMOOTH",
"136 528 OFFCURVE",
"60 427 OFFCURVE",
"60 265 CURVE SMOOTH",
"60 103 OFFCURVE",
"136 2 OFFCURVE",
"262 2 CURVE SMOOTH",
"334 2 OFFCURVE",
"388 35 OFFCURVE",
"421 98 CURVE",
"425 98 LINE",
"425 12 LINE SMOOTH",
"425 -90 OFFCURVE",
"376 -142 OFFCURVE",
"279 -142 CURVE SMOOTH",
"220 -142 OFFCURVE",
"175 -122 OFFCURVE",
"140 -86 CURVE",
"93 -141 LINE",
"134 -183 OFFCURVE",
"194 -212 OFFCURVE",
"278 -212 CURVE SMOOTH",
"422 -212 OFFCURVE",
"505 -125 OFFCURVE",
"505 17 CURVE SMOOTH"
);
},
{
closed = 1;
nodes = (
"200 73 OFFCURVE",
"146 135 OFFCURVE",
"146 228 CURVE SMOOTH",
"146 302 LINE SMOOTH",
"146 395 OFFCURVE",
"200 457 OFFCURVE",
"293 457 CURVE SMOOTH",
"364 457 OFFCURVE",
"425 420 OFFCURVE",
"425 351 CURVE SMOOTH",
"425 179 LINE SMOOTH",
"425 110 OFFCURVE",
"364 73 OFFCURVE",
"293 73 CURVE SMOOTH"
);
}
);
width = 600;
}
);
note = g.alt01;
},
{
glyphname = g.alt02;
lastChange = "2017-11-24 19:34:51 +0000";
layers = (
{
layerId = "6B036DBC-DFAA-4A6A-8D11-6D1679C0E942";
paths = (
{
closed = 1;
nodes = (
"473 -212 OFFCURVE",
"561 -163 OFFCURVE",
"561 -59 CURVE SMOOTH",
"561 25 OFFCURVE",
"504 79 OFFCURVE",
"371 79 CURVE SMOOTH",
"257 79 LINE SMOOTH",
"208 79 OFFCURVE",
"174 86 OFFCURVE",
"174 117 CURVE SMOOTH",
"174 152 OFFCURVE",
"217 170 OFFCURVE",
"248 176 CURVE",
"264 173 OFFCURVE",
"280 172 OFFCURVE",
"297 172 CURVE SMOOTH",
"418 172 OFFCURVE",
"498 245 OFFCURVE",
"498 350 CURVE SMOOTH",
"498 388 OFFCURVE",
"487 425 OFFCURVE",
"462 452 CURVE",
"556 452 LINE",
"556 516 LINE",
"375 516 LINE",
"352 524 OFFCURVE",
"326 528 OFFCURVE",
"297 528 CURVE SMOOTH",
"176 528 OFFCURVE",
"97 455 OFFCURVE",
"97 350 CURVE SMOOTH",
"97 277 OFFCURVE",
"135 220 OFFCURVE",
"198 192 CURVE",
"198 188 LINE",
"145 175 OFFCURVE",
"105 151 OFFCURVE",
"105 98 CURVE SMOOTH",
"105 63 OFFCURVE",
"122 41 OFFCURVE",
"151 27 CURVE",
"151 15 LINE",
"98 1 OFFCURVE",
"67 -29 OFFCURVE",
"67 -84 CURVE SMOOTH",
"67 -166 OFFCURVE",
"135 -212 OFFCURVE",
"301 -212 CURVE SMOOTH"
);
},
{
closed = 1;
nodes = (
"218 234 OFFCURVE",
"181 275 OFFCURVE",
"181 336 CURVE SMOOTH",
"181 365 LINE SMOOTH",
"181 426 OFFCURVE",
"218 466 OFFCURVE",
"297 466 CURVE SMOOTH",
"377 466 OFFCURVE",
"414 426 OFFCURVE",
"414 365 CURVE SMOOTH",
"414 336 LINE SMOOTH",
"414 275 OFFCURVE",
"377 234 OFFCURVE",
"297 234 CURVE SMOOTH"
);
},
{
closed = 1;
nodes = (
"486 -119 OFFCURVE",
"431 -148 OFFCURVE",
"338 -148 CURVE SMOOTH",
"260 -148 LINE SMOOTH",
"176 -148 OFFCURVE",
"143 -110 OFFCURVE",
"143 -65 CURVE SMOOTH",
"143 -32 OFFCURVE",
"161 -9 OFFCURVE",
"195 5 CURVE",
"374 5 LINE SMOOTH",
"457 5 OFFCURVE",
"486 -22 OFFCURVE",
"486 -63 CURVE SMOOTH"
);
}
);
width = 600;
}
);
note = g.alt02;
},
{
glyphname = h;
lastChange = "2017-11-24 19:34:51 +0000";
layers = (
{
layerId = "6B036DBC-DFAA-4A6A-8D11-6D1679C0E942";
paths = (
{
closed = 1;
nodes = (
"98 0 LINE",
"178 0 LINE",
"178 358 LINE SMOOTH",
"178 426 OFFCURVE",
"242 457 OFFCURVE",
"306 457 CURVE SMOOTH",
"385 457 OFFCURVE",
"428 411 OFFCURVE",
"428 317 CURVE SMOOTH",
"428 0 LINE",
"508 0 LINE",
"508 331 LINE SMOOTH",
"508 456 OFFCURVE",
"437 528 OFFCURVE",
"329 528 CURVE SMOOTH",
"244 528 OFFCURVE",
"204 483 OFFCURVE",
"182 432 CURVE",
"178 432 LINE",
"178 740 LINE",
"98 740 LINE"
);
}
);
width = 600;
}
);
note = h;
unicode = 0068;
},
{
glyphname = i;
lastChange = "2017-11-24 19:34:51 +0000";
layers = (
{
layerId = "6B036DBC-DFAA-4A6A-8D11-6D1679C0E942";
paths = (
{
closed = 1;
nodes = (
"378 630 OFFCURVE",
"395 652 OFFCURVE",
"395 681 CURVE SMOOTH",
"395 697 LINE SMOOTH",
"395 726 OFFCURVE",
"378 748 OFFCURVE",
"332 748 CURVE SMOOTH",
"286 748 OFFCURVE",
"269 726 OFFCURVE",
"269 697 CURVE SMOOTH",
"269 681 LINE SMOOTH",
"269 652 OFFCURVE",
"286 630 OFFCURVE",
"332 630 CURVE SMOOTH"
);
},
{
closed = 1;
nodes = (
"106 0 LINE",
"546 0 LINE",
"546 68 LINE",
"372 68 LINE",
"372 516 LINE",
"106 516 LINE",
"106 448 LINE",
"292 448 LINE",
"292 68 LINE",
"106 68 LINE"
);
}
);
width = 600;
}
);
note = i;
unicode = 0069;
},
{
glyphname = j;
lastChange = "2017-11-24 19:34:51 +0000";
layers = (
{
layerId = "6B036DBC-DFAA-4A6A-8D11-6D1679C0E942";
paths = (
{
closed = 1;
nodes = (
"102 -200 LINE",
"318 -200 LINE SMOOTH",
"396 -200 OFFCURVE",
"432 -151 OFFCURVE",
"432 -82 CURVE SMOOTH",
"432 516 LINE",
"93 516 LINE",
"93 448 LINE",
"352 448 LINE",
"352 -132 LINE",
"102 -132 LINE"
);
},
{
closed = 1;
nodes = (
"438 630 OFFCURVE",
"455 652 OFFCURVE",
"455 681 CURVE SMOOTH",
"455 697 LINE SMOOTH",
"455 726 OFFCURVE",
"438 748 OFFCURVE",
"392 748 CURVE SMOOTH",
"346 748 OFFCURVE",
"329 726 OFFCURVE",
"329 697 CURVE SMOOTH",
"329 681 LINE SMOOTH",
"329 652 OFFCURVE",
"346 630 OFFCURVE",
"392 630 CURVE SMOOTH"
);
}
);
width = 600;
}
);
note = j;
unicode = 006A;
},
{
glyphname = k;
lastChange = "2017-11-24 19:34:51 +0000";
layers = (
{
layerId = "6B036DBC-DFAA-4A6A-8D11-6D1679C0E942";
paths = (
{
closed = 1;
nodes = (
"105 0 LINE",
"185 0 LINE",
"185 187 LINE",
"274 268 LINE",
"475 0 LINE",
"574 0 LINE",
"335 314 LINE",
"549 516 LINE",
"451 516 LINE",
"279 358 LINE",
"189 273 LINE",
"185 273 LINE",
"185 740 LINE",
"105 740 LINE"
);
}
);
width = 600;
}
);
note = k;
unicode = 006B;
},
{
glyphname = l;
lastChange = "2017-11-24 19:34:51 +0000";
layers = (
{
layerId = "6B036DBC-DFAA-4A6A-8D11-6D1679C0E942";
paths = (
{
closed = 1;
nodes = (
"80 0 LINE",
"520 0 LINE",
"520 68 LINE",
"340 68 LINE",
"340 740 LINE",
"80 740 LINE",
"80 672 LINE",
"260 672 LINE",
"260 68 LINE",
"80 68 LINE"
);
}
);
width = 600;
}
);
note = l;
unicode = 006C;
},
{
glyphname = m;
lastChange = "2017-11-24 19:34:51 +0000";
layers = (
{
layerId = "6B036DBC-DFAA-4A6A-8D11-6D1679C0E942";
paths = (
{
closed = 1;
nodes = (
"128 0 LINE",
"128 379 LINE SMOOTH",
"128 434 OFFCURVE",
"158 462 OFFCURVE",
"201 462 CURVE SMOOTH",
"248 462 OFFCURVE",
"263 433 OFFCURVE",
"263 345 CURVE SMOOTH",
"263 0 LINE",
"337 0 LINE",
"337 379 LINE SMOOTH",
"337 434 OFFCURVE",
"367 462 OFFCURVE",
"409 462 CURVE SMOOTH",
"457 462 OFFCURVE",
"472 433 OFFCURVE",
"472 345 CURVE SMOOTH",
"472 0 LINE",
"546 0 LINE",
"546 358 LINE SMOOTH",
"546 467 OFFCURVE",
"524 528 OFFCURVE",
"440 528 CURVE SMOOTH",
"379 528 OFFCURVE",
"347 494 OFFCURVE",
"328 447 CURVE",
"325 447 LINE",
"319 495 OFFCURVE",
"290 528 OFFCURVE",
"231 528 CURVE SMOOTH",
"174 528 OFFCURVE",
"148 496 OFFCURVE",
"132 456 CURVE",
"128 456 LINE",
"128 516 LINE",
"54 516 LINE",
"54 0 LINE"
);
}
);
width = 600;
}
);
note = m;
unicode = 006D;
},
{
glyphname = n;
lastChange = "2017-11-24 19:34:51 +0000";
layers = (
{
layerId = "6B036DBC-DFAA-4A6A-8D11-6D1679C0E942";
paths = (
{
closed = 1;
nodes = (
"178 0 LINE",
"178 358 LINE SMOOTH",
"178 426 OFFCURVE",
"242 457 OFFCURVE",
"306 457 CURVE SMOOTH",
"385 457 OFFCURVE",
"428 411 OFFCURVE",
"428 317 CURVE SMOOTH",
"428 0 LINE",
"508 0 LINE",
"508 331 LINE SMOOTH",
"508 456 OFFCURVE",
"437 528 OFFCURVE",
"329 528 CURVE SMOOTH",
"244 528 OFFCURVE",
"204 483 OFFCURVE",
"182 432 CURVE",
"178 432 LINE",
"178 516 LINE",
"98 516 LINE",
"98 0 LINE"
);
}
);
width = 600;
}
);
note = n;
unicode = 006E;
},
{
glyphname = o;
lastChange = "2017-11-24 19:34:51 +0000";
layers = (
{
layerId = "6B036DBC-DFAA-4A6A-8D11-6D1679C0E942";
paths = (
{
closed = 1;
nodes = (
"445 -12 OFFCURVE",
"534 94 OFFCURVE",
"534 258 CURVE SMOOTH",
"534 422 OFFCURVE",
"445 528 OFFCURVE",
"300 528 CURVE SMOOTH",
"155 528 OFFCURVE",
"66 422 OFFCURVE",
"66 258 CURVE SMOOTH",
"66 94 OFFCURVE",
"155 -12 OFFCURVE",
"300 -12 CURVE SMOOTH"
);
},
{
closed = 1;
nodes = (
"211 57 OFFCURVE",
"151 110 OFFCURVE",
"151 221 CURVE SMOOTH",
"151 295 LINE SMOOTH",
"151 406 OFFCURVE",
"211 459 OFFCURVE",
"300 459 CURVE SMOOTH",
"389 459 OFFCURVE",
"449 406 OFFCURVE",
"449 295 CURVE SMOOTH",
"449 221 LINE SMOOTH",
"449 110 OFFCURVE",
"389 57 OFFCURVE",
"300 57 CURVE SMOOTH"
);
}
);
width = 600;
}
);
note = o;
unicode = 006F;
},
{
glyphname = p;
lastChange = "2017-11-24 19:34:51 +0000";
layers = (
{
layerId = "6B036DBC-DFAA-4A6A-8D11-6D1679C0E942";
paths = (
{
closed = 1;
nodes = (
"95 -200 LINE",
"175 -200 LINE",
"175 84 LINE",
"179 84 LINE",
"212 21 OFFCURVE",
"266 -12 OFFCURVE",
"338 -12 CURVE SMOOTH",
"464 -12 OFFCURVE",
"540 89 OFFCURVE",
"540 258 CURVE SMOOTH",
"540 427 OFFCURVE",
"464 528 OFFCURVE",
"338 528 CURVE SMOOTH",
"266 528 OFFCURVE",
"212 495 OFFCURVE",
"179 432 CURVE",
"175 432 LINE",
"175 516 LINE",
"95 516 LINE"
);
},
{
closed = 1;
nodes = (
"236 59 OFFCURVE",
"175 96 OFFCURVE",
"175 165 CURVE SMOOTH",
"175 351 LINE SMOOTH",
"175 420 OFFCURVE",
"236 457 OFFCURVE",
"307 457 CURVE SMOOTH",
"400 457 OFFCURVE",
"454 395 OFFCURVE",
"454 302 CURVE SMOOTH",
"454 214 LINE SMOOTH",
"454 121 OFFCURVE",
"400 59 OFFCURVE",
"307 59 CURVE SMOOTH"
);
}
);
width = 600;
}
);
note = p;
unicode = 0070;
},
{
glyphname = q;
lastChange = "2017-11-24 19:34:51 +0000";
layers = (
{
layerId = "6B036DBC-DFAA-4A6A-8D11-6D1679C0E942";
paths = (
{
closed = 1;
nodes = (
"425 -200 LINE",
"505 -200 LINE",
"505 516 LINE",
"425 516 LINE",
"425 432 LINE",
"421 432 LINE",
"388 495 OFFCURVE",
"334 528 OFFCURVE",
"262 528 CURVE SMOOTH",
"136 528 OFFCURVE",
"60 427 OFFCURVE",
"60 258 CURVE SMOOTH",
"60 89 OFFCURVE",
"136 -12 OFFCURVE",
"262 -12 CURVE SMOOTH",
"334 -12 OFFCURVE",
"388 21 OFFCURVE",
"421 84 CURVE",
"425 84 LINE"
);
},
{
closed = 1;
nodes = (
"200 59 OFFCURVE",
"146 121 OFFCURVE",
"146 214 CURVE SMOOTH",
"146 302 LINE SMOOTH",
"146 395 OFFCURVE",
"200 457 OFFCURVE",
"293 457 CURVE SMOOTH",
"364 457 OFFCURVE",
"425 420 OFFCURVE",
"425 351 CURVE SMOOTH",
"425 165 LINE SMOOTH",
"425 96 OFFCURVE",
"364 59 OFFCURVE",
"293 59 CURVE SMOOTH"
);
}
);
width = 600;
}
);
note = q;
unicode = 0071;
},
{
glyphname = r;
lastChange = "2017-11-24 19:34:51 +0000";
layers = (
{
layerId = "6B036DBC-DFAA-4A6A-8D11-6D1679C0E942";
paths = (
{
closed = 1;
nodes = (
"77 0 LINE",
"508 0 LINE",
"508 68 LINE",
"308 68 LINE",
"308 351 LINE SMOOTH",
"308 400 OFFCURVE",
"362 436 OFFCURVE",
"452 436 CURVE SMOOTH",
"559 436 LINE",
"559 516 LINE",
"468 516 LINE SMOOTH",
"382 516 OFFCURVE",
"333 473 OFFCURVE",
"313 424 CURVE",
"308 424 LINE",
"308 516 LINE",
"77 516 LINE",
"77 448 LINE",
"228 448 LINE",
"228 68 LINE",
"77 68 LINE"
);
}
);
width = 600;
}
);
note = r;
unicode = 0072;
},
{
glyphname = s;
lastChange = "2017-11-24 19:34:51 +0000";
layers = (
{
layerId = "6B036DBC-DFAA-4A6A-8D11-6D1679C0E942";
paths = (
{
closed = 1;
nodes = (
"438 -12 OFFCURVE",
"524 47 OFFCURVE",
"524 149 CURVE SMOOTH",
"524 261 OFFCURVE",
"421 281 OFFCURVE",
"347 292 CURVE SMOOTH",
"266 304 LINE SMOOTH",
"220 311 OFFCURVE",
"175 325 OFFCURVE",
"175 379 CURVE SMOOTH",
"175 432 OFFCURVE",
"220 461 OFFCURVE",
"301 461 CURVE SMOOTH",
"392 461 OFFCURVE",
"438 425 OFFCURVE",
"462 396 CURVE",
"514 445 LINE",
"465 497 OFFCURVE",
"397 528 OFFCURVE",
"304 528 CURVE SMOOTH",
"184 528 OFFCURVE",
"96 477 OFFCURVE",
"96 374 CURVE SMOOTH",
"96 262 OFFCURVE",
"200 242 OFFCURVE",
"273 231 CURVE SMOOTH",
"354 219 LINE SMOOTH",
"401 212 OFFCURVE",
"445 198 OFFCURVE",
"445 144 CURVE SMOOTH",
"445 83 OFFCURVE",
"388 55 OFFCURVE",
"308 55 CURVE SMOOTH",
"226 55 OFFCURVE",
"170 84 OFFCURVE",
"121 136 CURVE",
"67 89 LINE",
"121 28 OFFCURVE",
"198 -12 OFFCURVE",
"306 -12 CURVE SMOOTH"
);
}
);
width = 600;
}
);
note = s;
unicode = 0073;
},
{
glyphname = t;
lastChange = "2017-11-24 19:34:51 +0000";
layers = (
{
layerId = "6B036DBC-DFAA-4A6A-8D11-6D1679C0E942";
paths = (
{
closed = 1;
nodes = (
"526 0 LINE",
"526 68 LINE",
"291 68 LINE",
"291 448 LINE",
"526 448 LINE",
"526 516 LINE",
"291 516 LINE",
"291 698 LINE",
"214 698 LINE",
"214 563 LINE SMOOTH",
"214 528 OFFCURVE",
"201 516 OFFCURVE",
"167 516 CURVE SMOOTH",
"39 516 LINE",
"39 448 LINE",
"211 448 LINE",
"211 118 LINE SMOOTH",
"211 49 OFFCURVE",
"247 0 OFFCURVE",
"325 0 CURVE SMOOTH"
);
}
);
width = 600;
}
);
note = t;
unicode = 0074;
},
{
glyphname = u;
lastChange = "2017-11-24 19:34:51 +0000";
layers = (
{
layerId = "6B036DBC-DFAA-4A6A-8D11-6D1679C0E942";
paths = (
{
closed = 1;
nodes = (
"422 0 LINE",
"502 0 LINE",
"502 516 LINE",
"422 516 LINE",
"422 158 LINE SMOOTH",
"422 90 OFFCURVE",
"358 59 OFFCURVE",
"294 59 CURVE SMOOTH",
"215 59 OFFCURVE",
"172 105 OFFCURVE",
"172 199 CURVE SMOOTH",
"172 516 LINE",
"92 516 LINE",
"92 185 LINE SMOOTH",
"92 60 OFFCURVE",
"163 -12 OFFCURVE",
"271 -12 CURVE SMOOTH",
"356 -12 OFFCURVE",
"396 33 OFFCURVE",
"418 84 CURVE",
"422 84 LINE"
);
}
);
width = 600;
}
);
note = u;
unicode = 0075;
},
{
glyphname = v;
lastChange = "2017-11-24 19:34:51 +0000";
layers = (
{
layerId = "6B036DBC-DFAA-4A6A-8D11-6D1679C0E942";
paths = (
{
closed = 1;
nodes = (
"351 0 LINE",
"536 516 LINE",
"457 516 LINE",
"383 300 LINE",
"303 67 LINE",
"299 67 LINE",
"219 300 LINE",
"145 516 LINE",
"64 516 LINE",
"249 0 LINE"
);
}
);
width = 600;
}
);
note = v;
unicode = 0076;
},
{
glyphname = w;
lastChange = "2017-11-24 19:34:51 +0000";
layers = (
{
layerId = "6B036DBC-DFAA-4A6A-8D11-6D1679C0E942";
paths = (
{
closed = 1;
nodes = (
"109 0 LINE",
"213 0 LINE",
"297 432 LINE",
"305 432 LINE",
"387 0 LINE",
"491 0 LINE",
"570 516 LINE",
"501 516 LINE",
"442 70 LINE",
"433 70 LINE",
"345 516 LINE",
"257 516 LINE",
"169 70 LINE",
"160 70 LINE",
"101 516 LINE",
"30 516 LINE"
);
}
);
width = 600;
}
);
note = w;
unicode = 0077;
},
{
glyphname = x;
lastChange = "2017-11-24 19:34:51 +0000";
layers = (
{
layerId = "6B036DBC-DFAA-4A6A-8D11-6D1679C0E942";
paths = (
{
closed = 1;
nodes = (
"153 0 LINE",
"237 121 LINE",
"294 203 LINE",
"298 203 LINE",
"357 121 LINE",
"444 0 LINE",
"540 0 LINE",
"346 263 LINE",
"535 516 LINE",
"443 516 LINE",
"366 407 LINE",
"306 321 LINE",
"302 321 LINE",
"240 407 LINE",
"162 516 LINE",
"66 516 LINE",
"253 262 LINE",
"61 0 LINE"
);
}
);
width = 600;
}
);
note = x;
unicode = 0078;
},
{
glyphname = y;
lastChange = "2017-11-24 19:34:51 +0000";
layers = (
{
layerId = "6B036DBC-DFAA-4A6A-8D11-6D1679C0E942";
paths = (
{
closed = 1;
nodes = (
"380 300 LINE",
"303 104 LINE",
"299 104 LINE",
"222 300 LINE",
"135 516 LINE",
"53 516 LINE",
"261 10 LINE",
"203 -132 LINE",
"83 -132 LINE",
"83 -200 LINE",
"159 -200 LINE SMOOTH",
"237 -200 OFFCURVE",
"267 -172 OFFCURVE",
"291 -113 CURVE SMOOTH",
"547 516 LINE",
"467 516 LINE"
);
}
);
width = 600;
}
);
note = y;
unicode = 0079;
},
{
glyphname = z;
lastChange = "2017-11-24 19:34:51 +0000";
layers = (
{
layerId = "6B036DBC-DFAA-4A6A-8D11-6D1679C0E942";
paths = (
{
closed = 1;
nodes = (
"515 0 LINE",
"515 68 LINE",
"172 68 LINE",
"505 439 LINE",
"505 516 LINE",
"96 516 LINE",
"96 448 LINE",
"418 448 LINE",
"85 77 LINE",
"85 0 LINE"
);
}
);
width = 600;
}
);
note = z;
unicode = 007A;
},
{
glyphname = A;
lastChange = "2017-11-24 19:34:51 +0000";
layers = (
{
layerId = "6B036DBC-DFAA-4A6A-8D11-6D1679C0E942";
paths = (
{
closed = 1;
nodes = (
"570 0 LINE",
"356 698 LINE",
"245 698 LINE",
"31 0 LINE",
"118 0 LINE",
"177 199 LINE",
"422 199 LINE",
"481 0 LINE"
);
},
{
closed = 1;
nodes = (
"402 272 LINE",
"197 272 LINE",
"295 609 LINE",
"304 609 LINE"
);
}
);
width = 600;
}
);
note = A;
unicode = 0041;
},
{
glyphname = B;
lastChange = "2017-11-24 19:34:51 +0000";
layers = (
{
layerId = "6B036DBC-DFAA-4A6A-8D11-6D1679C0E942";
paths = (
{
closed = 1;
nodes = (
"88 0 LINE",
"355 0 LINE SMOOTH",
"463 0 OFFCURVE",
"543 88 OFFCURVE",
"543 201 CURVE SMOOTH",
"543 298 OFFCURVE",
"486 347 OFFCURVE",
"408 365 CURVE",
"408 368 LINE",
"472 388 OFFCURVE",
"517 435 OFFCURVE",
"517 518 CURVE SMOOTH",
"517 627 OFFCURVE",
"444 698 OFFCURVE",
"325 698 CURVE SMOOTH",
"88 698 LINE"
);
},
{
closed = 1;
nodes = (
"172 73 LINE",
"172 326 LINE",
"330 326 LINE SMOOTH",
"407 326 OFFCURVE",
"454 290 OFFCURVE",
"454 220 CURVE SMOOTH",
"454 179 LINE SMOOTH",
"454 108 OFFCURVE",
"407 73 OFFCURVE",
"330 73 CURVE SMOOTH"
);
},
{
closed = 1;
nodes = (
"172 395 LINE",
"172 625 LINE",
"316 625 LINE SMOOTH",
"386 625 OFFCURVE",
"429 593 OFFCURVE",
"429 529 CURVE SMOOTH",
"429 490 LINE SMOOTH",
"429 426 OFFCURVE",
"386 395 OFFCURVE",
"316 395 CURVE SMOOTH"
);
}
);
width = 600;
}
);
note = B;
unicode = 0042;
},
{
glyphname = C;
lastChange = "2017-11-24 19:34:51 +0000";
layers = (
{
layerId = "6B036DBC-DFAA-4A6A-8D11-6D1679C0E942";
paths = (
{
closed = 1;
nodes = (
"451 -12 OFFCURVE",
"504 65 OFFCURVE",
"538 141 CURVE",
"466 174 LINE",
"441 112 OFFCURVE",
"408 61 OFFCURVE",
"323 61 CURVE SMOOTH",
"212 61 OFFCURVE",
"159 152 OFFCURVE",
"159 292 CURVE SMOOTH",
"159 406 LINE SMOOTH",
"159 546 OFFCURVE",
"212 637 OFFCURVE",
"323 637 CURVE SMOOTH",
"408 637 OFFCURVE",
"441 586 OFFCURVE",
"466 524 CURVE",
"538 557 LINE",
"504 633 OFFCURVE",
"451 710 OFFCURVE",
"323 710 CURVE SMOOTH",
"153 710 OFFCURVE",
"70 581 OFFCURVE",
"70 349 CURVE SMOOTH",
"70 117 OFFCURVE",
"153 -12 OFFCURVE",
"323 -12 CURVE SMOOTH"
);
}
);
width = 600;
}
);
note = C;
unicode = 0043;
},
{
glyphname = D;
lastChange = "2017-11-24 19:34:51 +0000";
layers = (
{
layerId = "6B036DBC-DFAA-4A6A-8D11-6D1679C0E942";
paths = (
{
closed = 1;
nodes = (
"95 0 LINE",
"290 0 LINE SMOOTH",
"460 0 OFFCURVE",
"544 120 OFFCURVE",
"544 349 CURVE SMOOTH",
"544 578 OFFCURVE",
"460 698 OFFCURVE",
"290 698 CURVE SMOOTH",
"95 698 LINE"
);
},
{
closed = 1;
nodes = (
"179 73 LINE",
"179 625 LINE",
"286 625 LINE SMOOTH",
"397 625 OFFCURVE",
"455 543 OFFCURVE",
"455 403 CURVE SMOOTH",
"455 295 LINE SMOOTH",
"455 155 OFFCURVE",
"397 73 OFFCURVE",
"286 73 CURVE SMOOTH"
);
}
);
width = 600;
}
);
note = D;
unicode = 0044;
},
{
glyphname = E;
lastChange = "2017-11-24 19:34:51 +0000";
layers = (
{
layerId = "6B036DBC-DFAA-4A6A-8D11-6D1679C0E942";
paths = (
{
closed = 1;
nodes = (
"520 0 LINE",
"520 73 LINE",
"174 73 LINE",
"174 317 LINE",
"508 317 LINE",
"508 390 LINE",
"174 390 LINE",
"174 625 LINE",
"520 625 LINE",
"520 698 LINE",
"90 698 LINE",
"90 0 LINE"
);
}
);
width = 600;
}
);
note = E;
unicode = 0045;
},
{
glyphname = F;
lastChange = "2017-11-24 19:34:51 +0000";
layers = (
{
layerId = "6B036DBC-DFAA-4A6A-8D11-6D1679C0E942";
paths = (
{
closed = 1;
nodes = (
"174 0 LINE",
"174 317 LINE",
"500 317 LINE",
"500 390 LINE",
"174 390 LINE",
"174 625 LINE",
"530 625 LINE",
"530 698 LINE",
"90 698 LINE",
"90 0 LINE"
);
}
);
width = 600;
}
);
note = F;
unicode = 0046;
},
{
glyphname = G;
lastChange = "2017-11-24 19:34:51 +0000";
layers = (
{
layerId = "6B036DBC-DFAA-4A6A-8D11-6D1679C0E942";
paths = (
{
closed = 1;
nodes = (
"444 0 LINE",
"522 0 LINE",
"522 345 LINE",
"297 345 LINE",
"297 278 LINE",
"444 278 LINE",
"444 206 LINE SMOOTH",
"444 120 OFFCURVE",
"390 59 OFFCURVE",
"300 59 CURVE SMOOTH",
"186 59 OFFCURVE",
"145 158 OFFCURVE",
"145 298 CURVE SMOOTH",
"145 406 LINE SMOOTH",
"145 546 OFFCURVE",
"196 637 OFFCURVE",
"308 637 CURVE SMOOTH",
"392 637 OFFCURVE",
"425 586 OFFCURVE",
"450 524 CURVE",
"522 557 LINE",
"492 633 OFFCURVE",
"436 710 OFFCURVE",
"305 710 CURVE SMOOTH",
"137 710 OFFCURVE",
"56 582 OFFCURVE",
"56 344 CURVE SMOOTH",
"56 116 OFFCURVE",
"130 -12 OFFCURVE",
"281 -12 CURVE SMOOTH",
"377 -12 OFFCURVE",
"416 39 OFFCURVE",
"439 93 CURVE",
"444 93 LINE"
);
}
);
width = 600;
}
);
note = G;
unicode = 0047;
},
{
glyphname = H;
lastChange = "2017-11-24 19:34:51 +0000";
layers = (
{
layerId = "6B036DBC-DFAA-4A6A-8D11-6D1679C0E942";
paths = (
{
closed = 1;
nodes = (
"436 0 LINE",
"520 0 LINE",
"520 698 LINE",
"436 698 LINE",
"436 390 LINE",
"164 390 LINE",
"164 698 LINE",
"80 698 LINE",
"80 0 LINE",
"164 0 LINE",
"164 317 LINE",
"436 317 LINE"
);
}
);
width = 600;
}
);
note = H;
unicode = 0048;
},
{
glyphname = I;
lastChange = "2017-11-24 19:34:51 +0000";
layers = (
{
layerId = "6B036DBC-DFAA-4A6A-8D11-6D1679C0E942";
paths = (
{
closed = 1;
nodes = (
"516 0 LINE",
"516 67 LINE",
"342 67 LINE",
"342 631 LINE",
"516 631 LINE",
"516 698 LINE",
"84 698 LINE",
"84 631 LINE",
"258 631 LINE",
"258 67 LINE",
"84 67 LINE",
"84 0 LINE"
);
}
);
width = 600;
}
);
note = I;
unicode = 0049;
},
{
glyphname = J;
lastChange = "2017-11-24 19:34:51 +0000";
layers = (
{
layerId = "6B036DBC-DFAA-4A6A-8D11-6D1679C0E942";
paths = (
{
closed = 1;
nodes = (
"144 698 LINE",
"144 625 LINE",
"396 625 LINE",
"396 196 LINE SMOOTH",
"396 105 OFFCURVE",
"352 62 OFFCURVE",
"276 62 CURVE SMOOTH",
"198 62 OFFCURVE",
"167 107 OFFCURVE",
"154 163 CURVE",
"74 146 LINE",
"95 46 OFFCURVE",
"168 -12 OFFCURVE",
"274 -12 CURVE SMOOTH",
"395 -12 OFFCURVE",
"480 63 OFFCURVE",
"480 181 CURVE SMOOTH",
"480 698 LINE"
);
}
);
width = 600;
}
);
note = J;
unicode = 004A;
},
{
glyphname = K;
lastChange = "2017-11-24 19:34:51 +0000";
layers = (
{
layerId = "6B036DBC-DFAA-4A6A-8D11-6D1679C0E942";
paths = (
{
closed = 1;
nodes = (
"480 0 LINE",
"578 0 LINE",
"326 404 LINE",
"571 698 LINE",
"470 698 LINE",
"264 450 LINE",
"172 334 LINE",
"169 334 LINE",
"169 698 LINE",
"85 698 LINE",
"85 0 LINE",
"169 0 LINE",
"169 224 LINE",
"269 342 LINE"
);
}
);
width = 600;
}
);
note = K;
unicode = 004B;
},
{
glyphname = L;
lastChange = "2017-11-24 19:34:51 +0000";
layers = (
{
layerId = "6B036DBC-DFAA-4A6A-8D11-6D1679C0E942";
paths = (
{
closed = 1;
nodes = (
"535 0 LINE",
"535 73 LINE",
"204 73 LINE",
"204 698 LINE",
"120 698 LINE",
"120 0 LINE"
);
}
);
width = 600;
}
);
note = L;
unicode = 004C;
},
{
glyphname = M;
lastChange = "2017-11-24 19:34:51 +0000";
layers = (
{
layerId = "6B036DBC-DFAA-4A6A-8D11-6D1679C0E942";
paths = (
{
closed = 1;
nodes = (
"455 0 LINE",
"532 0 LINE",
"532 698 LINE",
"428 698 LINE",
"305 390 LINE",
"299 390 LINE",
"176 698 LINE",
"68 698 LINE",
"68 0 LINE",
"145 0 LINE",
"145 350 LINE",
"145 571 LINE",
"153 571 LINE",
"300 212 LINE",
"447 571 LINE",
"455 571 LINE",
"455 350 LINE"
);
}
);
width = 600;
}
);
note = M;
unicode = 004D;
},
{
glyphname = N;
lastChange = "2017-11-24 19:34:51 +0000";
layers = (
{
layerId = "6B036DBC-DFAA-4A6A-8D11-6D1679C0E942";
paths = (
{
closed = 1;
nodes = (
"401 0 LINE",
"520 0 LINE",
"520 698 LINE",
"444 698 LINE",
"444 113 LINE",
"437 113 LINE",
"199 698 LINE",
"80 698 LINE",
"80 0 LINE",
"156 0 LINE",
"156 591 LINE",
"163 591 LINE"
);
}
);
width = 600;
}
);
note = N;
unicode = 004E;
},
{
glyphname = O;
lastChange = "2017-11-24 19:34:51 +0000";
layers = (
{
layerId = "6B036DBC-DFAA-4A6A-8D11-6D1679C0E942";
paths = (
{
closed = 1;
nodes = (
"470 -12 OFFCURVE",
"544 121 OFFCURVE",
"544 349 CURVE SMOOTH",
"544 577 OFFCURVE",
"470 710 OFFCURVE",
"300 710 CURVE SMOOTH",
"130 710 OFFCURVE",
"56 577 OFFCURVE",
"56 349 CURVE SMOOTH",
"56 121 OFFCURVE",
"130 -12 OFFCURVE",
"300 -12 CURVE SMOOTH"
);
},
{
closed = 1;
nodes = (
"189 61 OFFCURVE",
"145 152 OFFCURVE",
"145 292 CURVE SMOOTH",
"145 406 LINE SMOOTH",
"145 546 OFFCURVE",
"189 637 OFFCURVE",
"300 637 CURVE SMOOTH",
"411 637 OFFCURVE",
"455 546 OFFCURVE",
"455 406 CURVE SMOOTH",
"455 292 LINE SMOOTH",
"455 152 OFFCURVE",
"411 61 OFFCURVE",
"300 61 CURVE SMOOTH"
);
}
);
width = 600;
}
);
note = O;
unicode = 004F;
},
{
glyphname = P;
lastChange = "2017-11-24 19:34:51 +0000";
layers = (
{
layerId = "6B036DBC-DFAA-4A6A-8D11-6D1679C0E942";
paths = (
{
closed = 1;
nodes = (
"174 0 LINE",
"174 296 LINE",
"344 296 LINE SMOOTH",
"473 296 OFFCURVE",
"543 371 OFFCURVE",
"543 497 CURVE SMOOTH",
"543 623 OFFCURVE",
"473 698 OFFCURVE",
"344 698 CURVE SMOOTH",
"90 698 LINE",
"90 0 LINE"
);
},
{
closed = 1;
nodes = (
"174 625 LINE",
"342 625 LINE SMOOTH",
"412 625 OFFCURVE",
"454 588 OFFCURVE",
"454 523 CURVE SMOOTH",
"454 471 LINE SMOOTH",
"454 406 OFFCURVE",
"412 369 OFFCURVE",
"342 369 CURVE SMOOTH",
"174 369 LINE"
);
}
);
width = 600;
}
);
note = P;
unicode = 0050;
},
{
glyphname = Q;
lastChange = "2017-11-24 19:34:51 +0000";
layers = (
{
layerId = "6B036DBC-DFAA-4A6A-8D11-6D1679C0E942";
paths = (
{
closed = 1;
nodes = (
"491 -96 LINE",
"340 -96 LINE",
"340 -9 LINE",
"481 10 OFFCURVE",
"544 140 OFFCURVE",
"544 349 CURVE SMOOTH",
"544 577 OFFCURVE",
"470 710 OFFCURVE",
"300 710 CURVE SMOOTH",
"130 710 OFFCURVE",
"56 577 OFFCURVE",
"56 349 CURVE SMOOTH",
"56 140 OFFCURVE",
"118 10 OFFCURVE",
"260 -9 CURVE",
"260 -46 LINE SMOOTH",
"260 -115 OFFCURVE",
"296 -164 OFFCURVE",
"374 -164 CURVE SMOOTH",
"491 -164 LINE"
);
},
{
closed = 1;
nodes = (
"189 61 OFFCURVE",
"145 152 OFFCURVE",
"145 292 CURVE SMOOTH",
"145 406 LINE SMOOTH",
"145 546 OFFCURVE",
"189 637 OFFCURVE",
"300 637 CURVE SMOOTH",
"411 637 OFFCURVE",
"455 546 OFFCURVE",
"455 406 CURVE SMOOTH",
"455 292 LINE SMOOTH",
"455 152 OFFCURVE",
"411 61 OFFCURVE",
"300 61 CURVE SMOOTH"
);
}
);
width = 600;
}
);
note = Q;
unicode = 0051;
},
{
glyphname = R;
lastChange = "2017-11-24 19:34:51 +0000";
layers = (
{
layerId = "6B036DBC-DFAA-4A6A-8D11-6D1679C0E942";
paths = (
{
closed = 1;
nodes = (
"174 298 LINE",
"285 298 LINE",
"455 0 LINE",
"549 0 LINE",
"371 302 LINE",
"482 313 OFFCURVE",
"543 385 OFFCURVE",
"543 497 CURVE SMOOTH",
"543 623 OFFCURVE",
"473 698 OFFCURVE",
"344 698 CURVE SMOOTH",
"90 698 LINE",
"90 0 LINE",
"174 0 LINE"
);
},
{
closed = 1;
nodes = (
"174 369 LINE",
"174 625 LINE",
"342 625 LINE SMOOTH",
"412 625 OFFCURVE",
"454 588 OFFCURVE",
"454 523 CURVE SMOOTH",
"454 471 LINE SMOOTH",
"454 406 OFFCURVE",
"412 369 OFFCURVE",
"342 369 CURVE SMOOTH"
);
}
);
width = 600;
}
);
note = R;
unicode = 0052;
},
{
glyphname = S;
lastChange = "2017-11-24 19:34:51 +0000";
layers = (
{
layerId = "6B036DBC-DFAA-4A6A-8D11-6D1679C0E942";
paths = (
{
closed = 1;
nodes = (
"453 -12 OFFCURVE",
"542 66 OFFCURVE",
"542 195 CURVE SMOOTH",
"542 286 OFFCURVE",
"497 362 OFFCURVE",
"360 386 CURVE SMOOTH",
"285 399 LINE SMOOTH",
"186 416 OFFCURVE",
"154 456 OFFCURVE",
"154 518 CURVE SMOOTH",
"154 597 OFFCURVE",
"207 638 OFFCURVE",
"301 638 CURVE SMOOTH",
"388 638 OFFCURVE",
"438 603 OFFCURVE",
"477 552 CURVE",
"536 603 LINE",
"489 670 OFFCURVE",
"413 710 OFFCURVE",
"302 710 CURVE SMOOTH",
"160 710 OFFCURVE",
"69 644 OFFCURVE",
"69 516 CURVE SMOOTH",
"69 428 OFFCURVE",
"112 349 OFFCURVE",
"249 326 CURVE SMOOTH",
"327 313 LINE SMOOTH",
"422 297 OFFCURVE",
"457 261 OFFCURVE",
"457 193 CURVE SMOOTH",
"457 109 OFFCURVE",
"402 60 OFFCURVE",
"301 60 CURVE SMOOTH",
"217 60 OFFCURVE",
"160 93 OFFCURVE",
"106 161 CURVE",
"45 111 LINE",
"97 39 OFFCURVE",
"173 -12 OFFCURVE",
"298 -12 CURVE SMOOTH"
);
}
);
width = 600;
}
);
note = S;
unicode = 0053;
},
{
glyphname = T;
lastChange = "2017-11-24 19:34:51 +0000";
layers = (
{
layerId = "6B036DBC-DFAA-4A6A-8D11-6D1679C0E942";
paths = (
{
closed = 1;
nodes = (
"575 625 LINE",
"575 698 LINE",
"25 698 LINE",
"25 625 LINE",
"258 625 LINE",
"258 0 LINE",
"342 0 LINE",
"342 625 LINE"
);
}
);
width = 600;
}
);
note = T;
unicode = 0054;
},
{
glyphname = U;
lastChange = "2017-11-24 19:34:51 +0000";
layers = (
{
layerId = "6B036DBC-DFAA-4A6A-8D11-6D1679C0E942";
paths = (
{
closed = 1;
nodes = (
"80 698 LINE",
"80 299 LINE SMOOTH",
"80 92 OFFCURVE",
"110 -12 OFFCURVE",
"300 -12 CURVE SMOOTH",
"490 -12 OFFCURVE",
"520 92 OFFCURVE",
"520 299 CURVE SMOOTH",
"520 698 LINE",
"436 698 LINE",
"436 279 LINE SMOOTH",
"436 144 OFFCURVE",
"431 61 OFFCURVE",
"300 61 CURVE SMOOTH",
"169 61 OFFCURVE",
"164 144 OFFCURVE",
"164 279 CURVE SMOOTH",
"164 698 LINE"
);
}
);
width = 600;
}
);
note = U;
unicode = 0055;
},
{
glyphname = V;
lastChange = "2017-11-24 19:34:51 +0000";
layers = (
{
layerId = "6B036DBC-DFAA-4A6A-8D11-6D1679C0E942";
paths = (
{
closed = 1;
nodes = (
"357 0 LINE",
"564 698 LINE",
"478 698 LINE",
"379 349 LINE",
"304 85 LINE",
"299 85 LINE",
"224 349 LINE",
"125 698 LINE",
"36 698 LINE",
"243 0 LINE"
);
}
);
width = 600;
}
);
note = V;
unicode = 0056;
},
{
glyphname = W;
lastChange = "2017-11-24 19:34:51 +0000";
layers = (
{
layerId = "6B036DBC-DFAA-4A6A-8D11-6D1679C0E942";
paths = (
{
closed = 1;
nodes = (
"211 0 LINE",
"296 417 LINE",
"304 417 LINE",
"389 0 LINE",
"510 0 LINE",
"565 698 LINE",
"492 698 LINE",
"463 298 LINE",
"448 87 LINE",
"440 87 LINE",
"348 516 LINE",
"254 516 LINE",
"162 87 LINE",
"154 87 LINE",
"139 298 LINE",
"110 698 LINE",
"35 698 LINE",
"90 0 LINE"
);
}
);
width = 600;
}
);
note = W;
unicode = 0057;
},
{
glyphname = X;
lastChange = "2017-11-24 19:34:51 +0000";
layers = (
{
layerId = "6B036DBC-DFAA-4A6A-8D11-6D1679C0E942";
paths = (
{
closed = 1;
nodes = (
"352 357 LINE",
"568 698 LINE",
"476 698 LINE",
"392 563 LINE",
"306 422 LINE",
"302 422 LINE",
"215 563 LINE",
"134 698 LINE",
"39 698 LINE",
"254 356 LINE",
"26 0 LINE",
"118 0 LINE",
"205 141 LINE",
"300 293 LINE",
"304 293 LINE",
"396 141 LINE",
"480 0 LINE",
"575 0 LINE"
);
}
);
width = 600;
}
);
note = X;
unicode = 0058;
},
{
glyphname = Y;
lastChange = "2017-11-24 19:34:51 +0000";
layers = (
{
layerId = "6B036DBC-DFAA-4A6A-8D11-6D1679C0E942";
paths = (
{
closed = 1;
nodes = (
"342 0 LINE",
"342 274 LINE",
"583 698 LINE",
"489 698 LINE",
"389 516 LINE",
"302 357 LINE",
"298 357 LINE",
"213 516 LINE",
"113 698 LINE",
"17 698 LINE",
"258 274 LINE",
"258 0 LINE"
);
}
);
width = 600;
}
);
note = Y;
unicode = 0059;
},
{
glyphname = Z;
lastChange = "2017-11-24 19:34:51 +0000";
layers = (
{
layerId = "6B036DBC-DFAA-4A6A-8D11-6D1679C0E942";
paths = (
{
closed = 1;
nodes = (
"552 73 LINE",
"139 73 LINE",
"535 623 LINE",
"535 698 LINE",
"65 698 LINE",
"65 625 LINE",
"443 625 LINE",
"48 75 LINE",
"48 0 LINE",
"552 0 LINE"
);
}
);
width = 600;
}
);
note = Z;
unicode = 005A;
},
{
glyphname = zero;
lastChange = "2017-11-24 19:34:51 +0000";
layers = (
{
layerId = "6B036DBC-DFAA-4A6A-8D11-6D1679C0E942";
paths = (
{
closed = 1;
nodes = (
"470 -12 OFFCURVE",
"544 121 OFFCURVE",
"544 349 CURVE SMOOTH",
"544 577 OFFCURVE",
"470 710 OFFCURVE",
"300 710 CURVE SMOOTH",
"130 710 OFFCURVE",
"56 577 OFFCURVE",
"56 349 CURVE SMOOTH",
"56 121 OFFCURVE",
"130 -12 OFFCURVE",
"300 -12 CURVE SMOOTH"
);
},
{
closed = 1;
nodes = (
"188 61 OFFCURVE",
"143 152 OFFCURVE",
"143 292 CURVE SMOOTH",
"143 406 LINE SMOOTH",
"143 546 OFFCURVE",
"188 637 OFFCURVE",
"300 637 CURVE SMOOTH",
"412 637 OFFCURVE",
"457 546 OFFCURVE",
"457 406 CURVE SMOOTH",
"457 292 LINE SMOOTH",
"457 152 OFFCURVE",
"412 61 OFFCURVE",
"300 61 CURVE SMOOTH"
);
},
{
closed = 1;
nodes = (
"346 290 OFFCURVE",
"362 311 OFFCURVE",
"362 338 CURVE SMOOTH",
"362 360 LINE SMOOTH",
"362 387 OFFCURVE",
"346 408 OFFCURVE",
"300 408 CURVE SMOOTH",
"254 408 OFFCURVE",
"238 387 OFFCURVE",
"238 360 CURVE SMOOTH",
"238 338 LINE SMOOTH",
"238 311 OFFCURVE",
"254 290 OFFCURVE",
"300 290 CURVE SMOOTH"
);
}
);
width = 600;
}
);
note = zero;
unicode = 0030;
},
{
glyphname = zero.alt01;
lastChange = "2017-11-24 19:34:51 +0000";
layers = (
{
layerId = "6B036DBC-DFAA-4A6A-8D11-6D1679C0E942";
paths = (
{
closed = 1;
nodes = (
"470 -12 OFFCURVE",
"544 121 OFFCURVE",
"544 349 CURVE SMOOTH",
"544 577 OFFCURVE",
"470 710 OFFCURVE",
"300 710 CURVE SMOOTH",
"130 710 OFFCURVE",
"56 577 OFFCURVE",
"56 349 CURVE SMOOTH",
"56 121 OFFCURVE",
"130 -12 OFFCURVE",
"300 -12 CURVE SMOOTH"
);
},
{
closed = 1;
nodes = (
"369 637 OFFCURVE",
"413 603 OFFCURVE",
"436 543 CURVE",
"147 227 LINE",
"144 247 OFFCURVE",
"143 269 OFFCURVE",
"143 292 CURVE SMOOTH",
"143 406 LINE SMOOTH",
"143 546 OFFCURVE",
"188 637 OFFCURVE",
"300 637 CURVE SMOOTH"
);
},
{
closed = 1;
nodes = (
"231 61 OFFCURVE",
"187 95 OFFCURVE",
"164 155 CURVE",
"453 471 LINE",
"456 451 OFFCURVE",
"457 429 OFFCURVE",
"457 406 CURVE SMOOTH",
"457 292 LINE SMOOTH",
"457 152 OFFCURVE",
"412 61 OFFCURVE",
"300 61 CURVE SMOOTH"
);
}
);
width = 600;
}
);
note = zero.alt01;
},
{
glyphname = zero.alt02;
lastChange = "2017-11-24 19:34:51 +0000";
layers = (
{
layerId = "6B036DBC-DFAA-4A6A-8D11-6D1679C0E942";
paths = (
{
closed = 1;
nodes = (
"470 -12 OFFCURVE",
"544 121 OFFCURVE",
"544 349 CURVE SMOOTH",
"544 577 OFFCURVE",
"470 710 OFFCURVE",
"300 710 CURVE SMOOTH",
"130 710 OFFCURVE",
"56 577 OFFCURVE",
"56 349 CURVE SMOOTH",
"56 121 OFFCURVE",
"130 -12 OFFCURVE",
"300 -12 CURVE SMOOTH"
);
},
{
closed = 1;
nodes = (
"189 61 OFFCURVE",
"145 152 OFFCURVE",
"145 292 CURVE SMOOTH",
"145 406 LINE SMOOTH",
"145 546 OFFCURVE",
"189 637 OFFCURVE",
"300 637 CURVE SMOOTH",
"411 637 OFFCURVE",
"455 546 OFFCURVE",
"455 406 CURVE SMOOTH",
"455 292 LINE SMOOTH",
"455 152 OFFCURVE",
"411 61 OFFCURVE",
"300 61 CURVE SMOOTH"
);
}
);
width = 600;
}
);
note = zero.alt02;
},
{
glyphname = one;
lastChange = "2017-11-24 19:34:51 +0000";
layers = (
{
layerId = "6B036DBC-DFAA-4A6A-8D11-6D1679C0E942";
paths = (
{
closed = 1;
nodes = (
"553 0 LINE",
"553 73 LINE",
"369 73 LINE",
"369 698 LINE",
"277 698 LINE",
"49 569 LINE",
"82 505 LINE",
"285 622 LINE",
"285 73 LINE",
"85 73 LINE",
"85 0 LINE"
);
}
);
width = 600;
}
);
note = one;
unicode = 0031;
},
{
glyphname = two;
lastChange = "2017-11-24 19:34:51 +0000";
layers = (
{
layerId = "6B036DBC-DFAA-4A6A-8D11-6D1679C0E942";
paths = (
{
closed = 1;
nodes = (
"537 73 LINE",
"158 73 LINE",
"353 243 LINE SMOOTH",
"446 324 OFFCURVE",
"509 402 OFFCURVE",
"509 508 CURVE SMOOTH",
"509 626 OFFCURVE",
"431 710 OFFCURVE",
"292 710 CURVE SMOOTH",
"155 710 OFFCURVE",
"92 628 OFFCURVE",
"65 546 CURVE",
"140 518 LINE",
"162 590 OFFCURVE",
"205 637 OFFCURVE",
"290 637 CURVE SMOOTH",
"376 637 OFFCURVE",
"421 589 OFFCURVE",
"421 505 CURVE SMOOTH",
"421 493 LINE SMOOTH",
"421 422 OFFCURVE",
"372 357 OFFCURVE",
"304 296 CURVE SMOOTH",
"71 86 LINE",
"71 0 LINE",
"537 0 LINE"
);
}
);
width = 600;
}
);
note = two;
unicode = 0032;
},
{
glyphname = three;
lastChange = "2017-11-24 19:34:51 +0000";
layers = (
{
layerId = "6B036DBC-DFAA-4A6A-8D11-6D1679C0E942";
paths = (
{
closed = 1;
nodes = (
"193 402 LINE",
"193 330 LINE",
"276 330 LINE SMOOTH",
"378 330 OFFCURVE",
"430 282 OFFCURVE",
"430 200 CURVE SMOOTH",
"430 192 LINE SMOOTH",
"430 109 OFFCURVE",
"375 61 OFFCURVE",
"277 61 CURVE SMOOTH",
"189 61 OFFCURVE",
"148 100 OFFCURVE",
"111 155 CURVE",
"48 107 LINE",
"91 47 OFFCURVE",
"154 -12 OFFCURVE",
"277 -12 CURVE SMOOTH",
"422 -12 OFFCURVE",
"518 71 OFFCURVE",
"518 191 CURVE SMOOTH",
"518 296 OFFCURVE",
"445 352 OFFCURVE",
"368 367 CURVE",
"368 371 LINE",
"444 390 OFFCURVE",
"504 444 OFFCURVE",
"504 534 CURVE SMOOTH",
"504 647 OFFCURVE",
"409 710 OFFCURVE",
"290 710 CURVE SMOOTH",
"176 710 OFFCURVE",
"114 652 OFFCURVE",
"78 596 CURVE",
"141 548 LINE",
"170 601 OFFCURVE",
"214 637 OFFCURVE",
"288 637 CURVE SMOOTH",
"364 637 OFFCURVE",
"416 599 OFFCURVE",
"416 525 CURVE SMOOTH",
"416 518 LINE SMOOTH",
"416 451 OFFCURVE",
"367 402 OFFCURVE",
"270 402 CURVE SMOOTH"
);
}
);
width = 600;
}
);
note = three;
unicode = 0033;
},
{
glyphname = four;
lastChange = "2017-11-24 19:34:51 +0000";
layers = (
{
layerId = "6B036DBC-DFAA-4A6A-8D11-6D1679C0E942";
paths = (
{
closed = 1;
nodes = (
"458 0 LINE",
"458 137 LINE",
"562 137 LINE",
"562 206 LINE",
"458 206 LINE",
"458 698 LINE",
"336 698 LINE",
"34 211 LINE",
"34 137 LINE",
"378 137 LINE",
"378 0 LINE"
);
},
{
closed = 1;
nodes = (
"374 633 LINE",
"378 633 LINE",
"378 206 LINE",
"109 206 LINE"
);
}
);
width = 600;
}
);
note = four;
unicode = 0034;
},
{
glyphname = five;
lastChange = "2017-11-24 19:34:51 +0000";
layers = (
{
layerId = "6B036DBC-DFAA-4A6A-8D11-6D1679C0E942";
paths = (
{
closed = 1;
nodes = (
"501 698 LINE",
"121 698 LINE",
"96 314 LINE",
"167 304 LINE",
"197 337 OFFCURVE",
"229 363 OFFCURVE",
"295 363 CURVE SMOOTH",
"392 363 OFFCURVE",
"446 308 OFFCURVE",
"446 216 CURVE SMOOTH",
"446 208 LINE SMOOTH",
"446 117 OFFCURVE",
"393 61 OFFCURVE",
"297 61 CURVE SMOOTH",
"211 61 OFFCURVE",
"173 100 OFFCURVE",
"136 155 CURVE",
"73 107 LINE",
"116 47 OFFCURVE",
"177 -12 OFFCURVE",
"295 -12 CURVE SMOOTH",
"444 -12 OFFCURVE",
"533 83 OFFCURVE",
"533 219 CURVE SMOOTH",
"533 354 OFFCURVE",
"444 434 OFFCURVE",
"322 434 CURVE SMOOTH",
"248 434 OFFCURVE",
"210 405 OFFCURVE",
"176 358 CURVE",
"169 358 LINE",
"189 625 LINE",
"501 625 LINE"
);
}
);
width = 600;
}
);
note = five;
unicode = 0035;
},
{
glyphname = six;
lastChange = "2017-11-24 19:34:51 +0000";
layers = (
{
layerId = "6B036DBC-DFAA-4A6A-8D11-6D1679C0E942";
paths = (
{
closed = 1;
nodes = (
"443 -12 OFFCURVE",
"536 82 OFFCURVE",
"536 219 CURVE SMOOTH",
"536 351 OFFCURVE",
"449 434 OFFCURVE",
"327 434 CURVE SMOOTH",
"240 434 OFFCURVE",
"189 391 OFFCURVE",
"155 334 CURVE",
"150 336 LINE",
"189 498 OFFCURVE",
"273 589 OFFCURVE",
"425 698 CURVE",
"317 698 LINE",
"203 625 OFFCURVE",
"64 463 OFFCURVE",
"64 256 CURVE SMOOTH",
"64 90 OFFCURVE",
"154 -12 OFFCURVE",
"301 -12 CURVE SMOOTH"
);
},
{
closed = 1;
nodes = (
"205 59 OFFCURVE",
"149 114 OFFCURVE",
"149 208 CURVE SMOOTH",
"149 216 LINE SMOOTH",
"149 310 OFFCURVE",
"205 365 OFFCURVE",
"300 365 CURVE SMOOTH",
"395 365 OFFCURVE",
"451 310 OFFCURVE",
"451 216 CURVE SMOOTH",
"451 208 LINE SMOOTH",
"451 114 OFFCURVE",
"395 59 OFFCURVE",
"300 59 CURVE SMOOTH"
);
}
);
width = 600;
}
);
note = six;
unicode = 0036;
},
{
glyphname = seven;
lastChange = "2017-11-24 19:34:51 +0000";
layers = (
{
layerId = "6B036DBC-DFAA-4A6A-8D11-6D1679C0E942";
paths = (
{
closed = 1;
nodes = (
"263 0 LINE",
"531 624 LINE",
"531 698 LINE",
"65 698 LINE",
"65 496 LINE",
"140 496 LINE",
"140 626 LINE",
"446 626 LINE",
"173 0 LINE"
);
}
);
width = 600;
}
);
note = seven;
unicode = 0037;
},
{
glyphname = eight;
lastChange = "2017-11-24 19:34:51 +0000";
layers = (
{
layerId = "6B036DBC-DFAA-4A6A-8D11-6D1679C0E942";
paths = (
{
closed = 1;
nodes = (
"462 -12 OFFCURVE",
"545 75 OFFCURVE",
"545 190 CURVE SMOOTH",
"545 285 OFFCURVE",
"488 340 OFFCURVE",
"403 363 CURVE",
"403 371 LINE",
"477 396 OFFCURVE",
"524 455 OFFCURVE",
"524 535 CURVE SMOOTH",
"524 641 OFFCURVE",
"441 710 OFFCURVE",
"300 710 CURVE SMOOTH",
"159 710 OFFCURVE",
"76 641 OFFCURVE",
"76 535 CURVE SMOOTH",
"76 455 OFFCURVE",
"123 396 OFFCURVE",
"197 371 CURVE",
"197 363 LINE",
"112 340 OFFCURVE",
"55 285 OFFCURVE",
"55 190 CURVE SMOOTH",
"55 75 OFFCURVE",
"138 -12 OFFCURVE",
"300 -12 CURVE SMOOTH"
);
},
{
closed = 1;
nodes = (
"202 59 OFFCURVE",
"142 106 OFFCURVE",
"142 185 CURVE SMOOTH",
"142 207 LINE SMOOTH",
"142 287 OFFCURVE",
"200 333 OFFCURVE",
"300 333 CURVE SMOOTH",
"400 333 OFFCURVE",
"458 287 OFFCURVE",
"458 207 CURVE SMOOTH",
"458 185 LINE SMOOTH",
"458 106 OFFCURVE",
"398 59 OFFCURVE",
"300 59 CURVE SMOOTH"
);
},
{
closed = 1;
nodes = (
"210 401 OFFCURVE",
"161 442 OFFCURVE",
"161 513 CURVE SMOOTH",
"161 527 LINE SMOOTH",
"161 598 OFFCURVE",
"212 638 OFFCURVE",
"300 638 CURVE SMOOTH",
"388 638 OFFCURVE",
"439 598 OFFCURVE",
"439 527 CURVE SMOOTH",
"439 513 LINE SMOOTH",
"439 442 OFFCURVE",
"390 401 OFFCURVE",
"300 401 CURVE SMOOTH"
);
}
);
width = 600;
}
);
note = eight;
unicode = 0038;
},
{
glyphname = nine;
lastChange = "2017-11-24 19:34:51 +0000";
layers = (
{
layerId = "6B036DBC-DFAA-4A6A-8D11-6D1679C0E942";
paths = (
{
closed = 1;
nodes = (
"536 608 OFFCURVE",
"446 710 OFFCURVE",
"299 710 CURVE SMOOTH",
"157 710 OFFCURVE",
"64 616 OFFCURVE",
"64 479 CURVE SMOOTH",
"64 347 OFFCURVE",
"151 264 OFFCURVE",
"273 264 CURVE SMOOTH",
"360 264 OFFCURVE",
"411 307 OFFCURVE",
"445 364 CURVE",
"450 362 LINE",
"411 200 OFFCURVE",
"327 109 OFFCURVE",
"175 0 CURVE",
"283 0 LINE",
"397 73 OFFCURVE",
"536 235 OFFCURVE",
"536 442 CURVE SMOOTH"
);
},
{
closed = 1;
nodes = (
"205 333 OFFCURVE",
"149 388 OFFCURVE",
"149 482 CURVE SMOOTH",
"149 490 LINE SMOOTH",
"149 584 OFFCURVE",
"205 639 OFFCURVE",
"300 639 CURVE SMOOTH",
"395 639 OFFCURVE",
"451 584 OFFCURVE",
"451 490 CURVE SMOOTH",
"451 482 LINE SMOOTH",
"451 388 OFFCURVE",
"395 333 OFFCURVE",
"300 333 CURVE SMOOTH"
);
}
);
width = 600;
}
);
note = nine;
unicode = 0039;
},
{
glyphname = ampersand;
lastChange = "2017-11-24 19:34:51 +0000";
layers = (
{
layerId = "6B036DBC-DFAA-4A6A-8D11-6D1679C0E942";
paths = (
{
closed = 1;
nodes = (
"307 -12 OFFCURVE",
"366 34 OFFCURVE",
"385 103 CURVE",
"390 103 LINE",
"477 0 LINE",
"572 0 LINE",
"450 144 LINE",
"473 206 OFFCURVE",
"477 250 OFFCURVE",
"486 314 CURVE",
"561 314 LINE",
"561 381 LINE",
"420 381 LINE",
"417 317 OFFCURVE",
"416 246 OFFCURVE",
"407 194 CURVE",
"402 194 LINE",
"329 284 LINE",
"239 395 LINE SMOOTH",
"188 459 OFFCURVE",
"168 494 OFFCURVE",
"168 536 CURVE SMOOTH",
"168 544 LINE SMOOTH",
"168 601 OFFCURVE",
"206 642 OFFCURVE",
"266 642 CURVE SMOOTH",
"318 642 OFFCURVE",
"353 611 OFFCURVE",
"370 570 CURVE",
"436 604 LINE",
"417 655 OFFCURVE",
"359 710 OFFCURVE",
"270 710 CURVE SMOOTH",
"171 710 OFFCURVE",
"89 642 OFFCURVE",
"89 541 CURVE SMOOTH",
"89 482 OFFCURVE",
"117 432 OFFCURVE",
"154 384 CURVE",
"54 333 OFFCURVE",
"25 251 OFFCURVE",
"25 181 CURVE SMOOTH",
"25 74 OFFCURVE",
"95 -12 OFFCURVE",
"217 -12 CURVE SMOOTH"
);
},
{
closed = 1;
nodes = (
"161 59 OFFCURVE",
"108 105 OFFCURVE",
"108 177 CURVE SMOOTH",
"108 192 LINE SMOOTH",
"108 249 OFFCURVE",
"131 299 OFFCURVE",
"192 337 CURVE",
"366 127 LINE",
"341 84 OFFCURVE",
"295 59 OFFCURVE",
"238 59 CURVE SMOOTH"
);
}
);
width = 600;
}
);
note = ampersand;
unicode = 0026;
},
{
glyphname = at;
lastChange = "2017-11-24 19:34:51 +0000";
layers = (
{
layerId = "6B036DBC-DFAA-4A6A-8D11-6D1679C0E942";
paths = (
{
closed = 1;
nodes = (
"454 -48 LINE",
"331 -48 LINE SMOOTH",
"172 -48 OFFCURVE",
"137 74 OFFCURVE",
"137 229 CURVE SMOOTH",
"137 358 LINE SMOOTH",
"137 559 OFFCURVE",
"184 646 OFFCURVE",
"303 646 CURVE SMOOTH",
"410 646 OFFCURVE",
"454 576 OFFCURVE",
"454 463 CURVE SMOOTH",
"454 439 LINE",
"449 439 LINE",
"436 473 OFFCURVE",
"408 508 OFFCURVE",
"349 508 CURVE SMOOTH",
"268 508 OFFCURVE",
"216 441 OFFCURVE",
"216 293 CURVE SMOOTH",
"216 146 OFFCURVE",
"268 79 OFFCURVE",
"349 79 CURVE SMOOTH",
"408 79 OFFCURVE",
"436 114 OFFCURVE",
"449 148 CURVE",
"454 148 LINE",
"454 91 LINE",
"525 91 LINE",
"525 463 LINE SMOOTH",
"525 603 OFFCURVE",
"461 710 OFFCURVE",
"301 710 CURVE SMOOTH",
"145 710 OFFCURVE",
"62 609 OFFCURVE",
"62 300 CURVE SMOOTH",
"62 24 OFFCURVE",
"128 -112 OFFCURVE",
"331 -112 CURVE SMOOTH",
"454 -112 LINE"
);
},
{
closed = 1;
nodes = (
"320 139 OFFCURVE",
"290 174 OFFCURVE",
"290 263 CURVE SMOOTH",
"290 324 LINE SMOOTH",
"290 413 OFFCURVE",
"320 448 OFFCURVE",
"375 448 CURVE SMOOTH",
"423 448 OFFCURVE",
"454 421 OFFCURVE",
"454 370 CURVE SMOOTH",
"454 217 LINE SMOOTH",
"454 166 OFFCURVE",
"423 139 OFFCURVE",
"375 139 CURVE SMOOTH"
);
}
);
width = 600;
}
);
note = at;
unicode = 0040;
},
{
glyphname = hyphen;
lastChange = "2017-11-24 19:34:51 +0000";
layers = (
{
layerId = "6B036DBC-DFAA-4A6A-8D11-6D1679C0E942";
paths = (
{
closed = 1;
nodes = (
"445 262 LINE",
"445 346 LINE",
"155 346 LINE",
"155 262 LINE"
);
}
);
width = 600;
}
);
note = hyphen;
unicode = 002D;
},
{
glyphname = uni00AD;
lastChange = "2017-11-24 19:34:51 +0000";
layers = (
{
layerId = "6B036DBC-DFAA-4A6A-8D11-6D1679C0E942";
paths = (
{
closed = 1;
nodes = (
"445 262 LINE",
"445 346 LINE",
"155 346 LINE",
"155 262 LINE"
);
}
);
width = 600;
}
);
note = uni00AD;
unicode = 00AD;
},
{
glyphname = endash;
lastChange = "2017-11-24 19:34:51 +0000";
layers = (
{
layerId = "6B036DBC-DFAA-4A6A-8D11-6D1679C0E942";
paths = (
{
closed = 1;
nodes = (
"540 267 LINE",
"540 341 LINE",
"60 341 LINE",
"60 267 LINE"
);
}
);
width = 600;
}
);
note = endash;
unicode = 2013;
},
{
glyphname = emdash;
lastChange = "2017-11-24 19:34:51 +0000";
layers = (
{
layerId = "6B036DBC-DFAA-4A6A-8D11-6D1679C0E942";
paths = (
{
closed = 1;
nodes = (
"600 267 LINE",
"600 341 LINE",
"0 341 LINE",
"0 267 LINE"
);
}
);
width = 600;
}
);
note = emdash;
unicode = 2014;
},
{
glyphname = underscore;
lastChange = "2017-11-24 19:34:51 +0000";
layers = (
{
layerId = "6B036DBC-DFAA-4A6A-8D11-6D1679C0E942";
paths = (
{
closed = 1;
nodes = (
"540 -169 LINE",
"540 -95 LINE",
"60 -95 LINE",
"60 -169 LINE"
);
}
);
width = 600;
}
);
note = underscore;
unicode = 005F;
},
{
glyphname = period;
lastChange = "2017-11-24 19:34:51 +0000";
layers = (
{
layerId = "6B036DBC-DFAA-4A6A-8D11-6D1679C0E942";
paths = (
{
closed = 1;
nodes = (
"354 -9 OFFCURVE",
"374 17 OFFCURVE",
"374 51 CURVE SMOOTH",
"374 69 LINE SMOOTH",
"374 103 OFFCURVE",
"354 129 OFFCURVE",
"300 129 CURVE SMOOTH",
"246 129 OFFCURVE",
"226 103 OFFCURVE",
"226 69 CURVE SMOOTH",
"226 51 LINE SMOOTH",
"226 17 OFFCURVE",
"246 -9 OFFCURVE",
"300 -9 CURVE SMOOTH"
);
}
);
width = 600;
}
);
note = period;
unicode = 002E;
},
{
glyphname = ellipsis;
lastChange = "2017-11-24 19:34:51 +0000";
layers = (
{
layerId = "6B036DBC-DFAA-4A6A-8D11-6D1679C0E942";
paths = (
{
closed = 1;
nodes = (
"153 -4 OFFCURVE",
"170 18 OFFCURVE",
"170 47 CURVE SMOOTH",
"170 76 LINE SMOOTH",
"170 105 OFFCURVE",
"153 127 OFFCURVE",
"107 127 CURVE SMOOTH",
"61 127 OFFCURVE",
"44 105 OFFCURVE",
"44 76 CURVE SMOOTH",
"44 47 LINE SMOOTH",
"44 18 OFFCURVE",
"61 -4 OFFCURVE",
"107 -4 CURVE SMOOTH"
);
},
{
closed = 1;
nodes = (
"346 -4 OFFCURVE",
"363 18 OFFCURVE",
"363 47 CURVE SMOOTH",
"363 76 LINE SMOOTH",
"363 105 OFFCURVE",
"346 127 OFFCURVE",
"300 127 CURVE SMOOTH",
"254 127 OFFCURVE",
"237 105 OFFCURVE",
"237 76 CURVE SMOOTH",
"237 47 LINE SMOOTH",
"237 18 OFFCURVE",
"254 -4 OFFCURVE",
"300 -4 CURVE SMOOTH"
);
},
{
closed = 1;
nodes = (
"539 -4 OFFCURVE",
"556 18 OFFCURVE",
"556 47 CURVE SMOOTH",
"556 76 LINE SMOOTH",
"556 105 OFFCURVE",
"539 127 OFFCURVE",
"493 127 CURVE SMOOTH",
"447 127 OFFCURVE",
"430 105 OFFCURVE",
"430 76 CURVE SMOOTH",
"430 47 LINE SMOOTH",
"430 18 OFFCURVE",
"447 -4 OFFCURVE",
"493 -4 CURVE SMOOTH"
);
}
);
width = 600;
}
);
note = ellipsis;
unicode = 2026;
},
{
glyphname = colon;
lastChange = "2017-11-24 19:34:51 +0000";
layers = (
{
layerId = "6B036DBC-DFAA-4A6A-8D11-6D1679C0E942";
paths = (
{
closed = 1;
nodes = (
"354 387 OFFCURVE",
"374 413 OFFCURVE",
"374 447 CURVE SMOOTH",
"374 465 LINE SMOOTH",
"374 499 OFFCURVE",
"354 525 OFFCURVE",
"300 525 CURVE SMOOTH",
"246 525 OFFCURVE",
"226 499 OFFCURVE",
"226 465 CURVE SMOOTH",
"226 447 LINE SMOOTH",
"226 413 OFFCURVE",
"246 387 OFFCURVE",
"300 387 CURVE SMOOTH"
);
},
{
closed = 1;
nodes = (
"354 -9 OFFCURVE",
"374 17 OFFCURVE",
"374 51 CURVE SMOOTH",
"374 69 LINE SMOOTH",
"374 103 OFFCURVE",
"354 129 OFFCURVE",
"300 129 CURVE SMOOTH",
"246 129 OFFCURVE",
"226 103 OFFCURVE",
"226 69 CURVE SMOOTH",
"226 51 LINE SMOOTH",
"226 17 OFFCURVE",
"246 -9 OFFCURVE",
"300 -9 CURVE SMOOTH"
);
}
);
width = 600;
}
);
note = colon;
unicode = 003A;
},
{
glyphname = comma;
lastChange = "2017-11-24 19:34:51 +0000";
layers = (
{
layerId = "6B036DBC-DFAA-4A6A-8D11-6D1679C0E942";
paths = (
{
closed = 1;
nodes = (
"204 -141 LINE",
"271 -141 LINE",
"386 136 LINE",
"257 136 LINE"
);
}
);
width = 600;
}
);
note = comma;
unicode = 002C;
},
{
glyphname = semicolon;
lastChange = "2017-11-24 19:34:51 +0000";
layers = (
{
layerId = "6B036DBC-DFAA-4A6A-8D11-6D1679C0E942";
paths = (
{
closed = 1;
nodes = (
"354 387 OFFCURVE",
"374 413 OFFCURVE",
"374 447 CURVE SMOOTH",
"374 465 LINE SMOOTH",
"374 499 OFFCURVE",
"354 525 OFFCURVE",
"300 525 CURVE SMOOTH",
"246 525 OFFCURVE",
"226 499 OFFCURVE",
"226 465 CURVE SMOOTH",
"226 447 LINE SMOOTH",
"226 413 OFFCURVE",
"246 387 OFFCURVE",
"300 387 CURVE SMOOTH"
);
},
{
closed = 1;
nodes = (
"204 -141 LINE",
"271 -141 LINE",
"386 136 LINE",
"257 136 LINE"
);
}
);
width = 600;
}
);
note = semicolon;
unicode = 003B;
},
{
glyphname = quotesingle;
lastChange = "2017-11-24 19:34:51 +0000";
layers = (
{
layerId = "6B036DBC-DFAA-4A6A-8D11-6D1679C0E942";
paths = (
{
closed = 1;
nodes = (
"338 463 LINE",
"338 740 LINE",
"262 740 LINE",
"262 463 LINE"
);
}
);
width = 600;
}
);
note = quotesingle;
unicode = 0027;
},
{
glyphname = quotedbl;
lastChange = "2017-11-24 19:34:51 +0000";
layers = (
{
layerId = "6B036DBC-DFAA-4A6A-8D11-6D1679C0E942";
paths = (
{
closed = 1;
nodes = (
"427 463 LINE",
"427 740 LINE",
"351 740 LINE",
"351 463 LINE"
);
},
{
closed = 1;
nodes = (
"249 463 LINE",
"249 740 LINE",
"173 740 LINE",
"173 463 LINE"
);
}
);
width = 600;
}
);
note = quotedbl;
unicode = 0022;
},
{
glyphname = quoteleft;
lastChange = "2017-11-24 19:34:51 +0000";
layers = (
{
layerId = "6B036DBC-DFAA-4A6A-8D11-6D1679C0E942";
paths = (
{
closed = 1;
nodes = (
"195 463 LINE",
"324 463 LINE",
"377 740 LINE",
"310 740 LINE"
);
}
);
width = 600;
}
);
note = quoteleft;
unicode = 2018;
},
{
glyphname = quoteright;
lastChange = "2017-11-24 19:34:51 +0000";
layers = (
{
layerId = "6B036DBC-DFAA-4A6A-8D11-6D1679C0E942";
paths = (
{
closed = 1;
nodes = (
"223 463 LINE",
"290 463 LINE",
"405 740 LINE",
"276 740 LINE"
);
}
);
width = 600;
}
);
note = quoteright;
unicode = 2019;
},
{
glyphname = quotedblleft;
lastChange = "2017-11-24 19:34:51 +0000";
layers = (
{
layerId = "6B036DBC-DFAA-4A6A-8D11-6D1679C0E942";
paths = (
{
closed = 1;
nodes = (
"321 463 LINE",
"450 463 LINE",
"503 740 LINE",
"436 740 LINE"
);
},
{
closed = 1;
nodes = (
"81 463 LINE",
"210 463 LINE",
"263 740 LINE",
"196 740 LINE"
);
}
);
width = 600;
}
);
note = quotedblleft;
unicode = 201C;
},
{
glyphname = quotedblright;
lastChange = "2017-11-24 19:34:51 +0000";
layers = (
{
layerId = "6B036DBC-DFAA-4A6A-8D11-6D1679C0E942";
paths = (
{
closed = 1;
nodes = (
"349 463 LINE",
"416 463 LINE",
"531 740 LINE",
"402 740 LINE"
);
},
{
closed = 1;
nodes = (
"109 463 LINE",
"176 463 LINE",
"291 740 LINE",
"162 740 LINE"
);
}
);
width = 600;
}
);
note = quotedblright;
unicode = 201D;
},
{
glyphname = quotesinglbase;
lastChange = "2017-11-24 19:34:51 +0000";
layers = (
{
layerId = "6B036DBC-DFAA-4A6A-8D11-6D1679C0E942";
paths = (
{
closed = 1;
nodes = (
"204 -141 LINE",
"271 -141 LINE",
"386 136 LINE",
"257 136 LINE"
);
}
);
width = 600;
}
);
note = quotesinglbase;
unicode = 201A;
},
{
glyphname = quotedblbase;
lastChange = "2017-11-24 19:34:51 +0000";
layers = (
{
layerId = "6B036DBC-DFAA-4A6A-8D11-6D1679C0E942";
paths = (
{
closed = 1;
nodes = (
"349 -141 LINE",
"416 -141 LINE",
"531 136 LINE",
"402 136 LINE"
);
},
{
closed = 1;
nodes = (
"109 -141 LINE",
"176 -141 LINE",
"291 136 LINE",
"162 136 LINE"
);
}
);
width = 600;
}
);
note = quotedblbase;
unicode = 201E;
},
{
glyphname = guilsinglleft;
lastChange = "2017-11-24 19:34:51 +0000";
layers = (
{
layerId = "6B036DBC-DFAA-4A6A-8D11-6D1679C0E942";
paths = (
{
closed = 1;
nodes = (
"401 113 LINE",
"253 270 LINE",
"401 427 LINE",
"376 484 LINE",
"170 310 LINE",
"170 230 LINE",
"376 56 LINE"
);
}
);
width = 600;
}
);
note = guilsinglleft;
unicode = 2039;
},
{
glyphname = guilsinglright;
lastChange = "2017-11-24 19:34:51 +0000";
layers = (
{
layerId = "6B036DBC-DFAA-4A6A-8D11-6D1679C0E942";
paths = (
{
closed = 1;
nodes = (
"224 56 LINE",
"430 230 LINE",
"430 310 LINE",
"224 484 LINE",
"199 427 LINE",
"347 270 LINE",
"199 113 LINE"
);
}
);
width = 600;
}
);
note = guilsinglright;
unicode = 203A;
},
{
glyphname = guillemotleft;
lastChange = "2017-11-24 19:34:51 +0000";
layers = (
{
layerId = "6B036DBC-DFAA-4A6A-8D11-6D1679C0E942";
paths = (
{
closed = 1;
nodes = (
"534 113 LINE",
"386 270 LINE",
"534 427 LINE",
"509 484 LINE",
"303 310 LINE",
"303 230 LINE",
"509 56 LINE"
);
},
{
closed = 1;
nodes = (
"304 113 LINE",
"156 270 LINE",
"304 427 LINE",
"279 484 LINE",
"73 310 LINE",
"73 230 LINE",
"279 56 LINE"
);
}
);
width = 600;
}
);
note = guillemotleft;
unicode = 00AB;
},
{
glyphname = guillemotright;
lastChange = "2017-11-24 19:34:51 +0000";
layers = (
{
layerId = "6B036DBC-DFAA-4A6A-8D11-6D1679C0E942";
paths = (
{
closed = 1;
nodes = (
"321 56 LINE",
"527 230 LINE",
"527 310 LINE",
"321 484 LINE",
"296 427 LINE",
"444 270 LINE",
"296 113 LINE"
);
},
{
closed = 1;
nodes = (
"91 56 LINE",
"297 230 LINE",
"297 310 LINE",
"91 484 LINE",
"66 427 LINE",
"214 270 LINE",
"66 113 LINE"
);
}
);
width = 600;
}
);
note = guillemotright;
unicode = 00BB;
},
{
glyphname = exclamdown;
lastChange = "2017-11-24 19:34:51 +0000";
layers = (
{
layerId = "6B036DBC-DFAA-4A6A-8D11-6D1679C0E942";
paths = (
{
closed = 1;
nodes = (
"344 -182 LINE",
"344 21 LINE",
"316 283 LINE",
"284 283 LINE",
"256 21 LINE",
"256 -182 LINE"
);
},
{
closed = 1;
nodes = (
"354 387 OFFCURVE",
"374 413 OFFCURVE",
"374 447 CURVE SMOOTH",
"374 465 LINE SMOOTH",
"374 499 OFFCURVE",
"354 525 OFFCURVE",
"300 525 CURVE SMOOTH",
"246 525 OFFCURVE",
"226 499 OFFCURVE",
"226 465 CURVE SMOOTH",
"226 447 LINE SMOOTH",
"226 413 OFFCURVE",
"246 387 OFFCURVE",
"300 387 CURVE SMOOTH"
);
}
);
width = 600;
}
);
note = exclamdown;
unicode = 00A1;
},
{
glyphname = exclam;
lastChange = "2017-11-24 19:34:51 +0000";
layers = (
{
layerId = "6B036DBC-DFAA-4A6A-8D11-6D1679C0E942";
paths = (
{
closed = 1;
nodes = (
"316 233 LINE",
"344 495 LINE",
"344 698 LINE",
"256 698 LINE",
"256 495 LINE",
"284 233 LINE"
);
},
{
closed = 1;
nodes = (
"354 -9 OFFCURVE",
"374 17 OFFCURVE",
"374 51 CURVE SMOOTH",
"374 69 LINE SMOOTH",
"374 103 OFFCURVE",
"354 129 OFFCURVE",
"300 129 CURVE SMOOTH",
"246 129 OFFCURVE",
"226 103 OFFCURVE",
"226 69 CURVE SMOOTH",
"226 51 LINE SMOOTH",
"226 17 OFFCURVE",
"246 -9 OFFCURVE",
"300 -9 CURVE SMOOTH"
);
}
);
width = 600;
}
);
note = exclam;
unicode = 0021;
},
{
glyphname = questiondown;
lastChange = "2017-11-24 19:34:51 +0000";
layers = (
{
layerId = "6B036DBC-DFAA-4A6A-8D11-6D1679C0E942";
paths = (
{
closed = 1;
nodes = (
"427 -194 OFFCURVE",
"497 -120 OFFCURVE",
"523 -32 CURVE",
"448 -4 LINE",
"430 -71 OFFCURVE",
"382 -121 OFFCURVE",
"302 -121 CURVE SMOOTH",
"225 -121 OFFCURVE",
"177 -83 OFFCURVE",
"177 -9 CURVE SMOOTH",
"177 5 LINE SMOOTH",
"177 95 OFFCURVE",
"247 139 OFFCURVE",
"361 144 CURVE",
"361 301 LINE",
"282 301 LINE",
"282 200 LINE",
"188 183 OFFCURVE",
"90 121 OFFCURVE",
"90 -5 CURVE SMOOTH",
"90 -120 OFFCURVE",
"172 -194 OFFCURVE",
"299 -194 CURVE SMOOTH"
);
},
{
closed = 1;
nodes = (
"372 387 OFFCURVE",
"392 413 OFFCURVE",
"392 447 CURVE SMOOTH",
"392 465 LINE SMOOTH",
"392 499 OFFCURVE",
"372 525 OFFCURVE",
"318 525 CURVE SMOOTH",
"264 525 OFFCURVE",
"244 499 OFFCURVE",
"244 465 CURVE SMOOTH",
"244 447 LINE SMOOTH",
"244 413 OFFCURVE",
"264 387 OFFCURVE",
"318 387 CURVE SMOOTH"
);
}
);
width = 600;
}
);
note = questiondown;
unicode = 00BF;
},
{
glyphname = question;
lastChange = "2017-11-24 19:34:51 +0000";
layers = (
{
layerId = "6B036DBC-DFAA-4A6A-8D11-6D1679C0E942";
paths = (
{
closed = 1;
nodes = (
"318 215 LINE",
"318 316 LINE",
"412 333 OFFCURVE",
"510 395 OFFCURVE",
"510 521 CURVE SMOOTH",
"510 636 OFFCURVE",
"428 710 OFFCURVE",
"301 710 CURVE SMOOTH",
"173 710 OFFCURVE",
"103 636 OFFCURVE",
"77 548 CURVE",
"152 520 LINE",
"170 587 OFFCURVE",
"218 637 OFFCURVE",
"298 637 CURVE SMOOTH",
"375 637 OFFCURVE",
"423 599 OFFCURVE",
"423 525 CURVE SMOOTH",
"423 511 LINE SMOOTH",
"423 421 OFFCURVE",
"353 377 OFFCURVE",
"239 372 CURVE",
"239 215 LINE"
);
},
{
closed = 1;
nodes = (
"336 -9 OFFCURVE",
"356 17 OFFCURVE",
"356 51 CURVE SMOOTH",
"356 69 LINE SMOOTH",
"356 103 OFFCURVE",
"336 129 OFFCURVE",
"282 129 CURVE SMOOTH",
"228 129 OFFCURVE",
"208 103 OFFCURVE",
"208 69 CURVE SMOOTH",
"208 51 LINE SMOOTH",
"208 17 OFFCURVE",
"228 -9 OFFCURVE",
"282 -9 CURVE SMOOTH"
);
}
);
width = 600;
}
);
note = question;
unicode = 003F;
},
{
glyphname = parenleft;
lastChange = "2017-11-24 19:34:51 +0000";
layers = (
{
layerId = "6B036DBC-DFAA-4A6A-8D11-6D1679C0E942";
paths = (
{
closed = 1;
nodes = (
"205 116 OFFCURVE",
"300 -54 OFFCURVE",
"413 -138 CURVE",
"494 -138 LINE",
"378 -51 OFFCURVE",
"280 97 OFFCURVE",
"280 268 CURVE SMOOTH",
"280 354 LINE SMOOTH",
"280 525 OFFCURVE",
"378 673 OFFCURVE",
"494 760 CURVE",
"413 760 LINE",
"300 676 OFFCURVE",
"205 506 OFFCURVE",
"205 311 CURVE SMOOTH"
);
}
);
width = 600;
}
);
note = parenleft;
unicode = 0028;
},
{
glyphname = parenright;
lastChange = "2017-11-24 19:34:51 +0000";
layers = (
{
layerId = "6B036DBC-DFAA-4A6A-8D11-6D1679C0E942";
paths = (
{
closed = 1;
nodes = (
"395 506 OFFCURVE",
"300 676 OFFCURVE",
"187 760 CURVE",
"106 760 LINE",
"222 673 OFFCURVE",
"320 525 OFFCURVE",
"320 354 CURVE SMOOTH",
"320 268 LINE SMOOTH",
"320 97 OFFCURVE",
"222 -51 OFFCURVE",
"106 -138 CURVE",
"187 -138 LINE",
"300 -54 OFFCURVE",
"395 116 OFFCURVE",
"395 311 CURVE SMOOTH"
);
}
);
width = 600;
}
);
note = parenright;
unicode = 0029;
},
{
glyphname = bracketleft;
lastChange = "2017-11-24 19:34:51 +0000";
layers = (
{
layerId = "6B036DBC-DFAA-4A6A-8D11-6D1679C0E942";
paths = (
{
closed = 1;
nodes = (
"505 -138 LINE",
"505 -76 LINE",
"294 -76 LINE",
"294 698 LINE",
"505 698 LINE",
"505 760 LINE",
"225 760 LINE",
"225 -138 LINE"
);
}
);
width = 600;
}
);
note = bracketleft;
unicode = 005B;
},
{
glyphname = bracketright;
lastChange = "2017-11-24 19:34:51 +0000";
layers = (
{
layerId = "6B036DBC-DFAA-4A6A-8D11-6D1679C0E942";
paths = (
{
closed = 1;
nodes = (
"95 760 LINE",
"95 698 LINE",
"306 698 LINE",
"306 -76 LINE",
"95 -76 LINE",
"95 -138 LINE",
"375 -138 LINE",
"375 760 LINE"
);
}
);
width = 600;
}
);
note = bracketright;
unicode = 005D;
},
{
glyphname = braceleft;
lastChange = "2017-11-24 19:34:51 +0000";
layers = (
{
layerId = "6B036DBC-DFAA-4A6A-8D11-6D1679C0E942";
paths = (
{
closed = 1;
nodes = (
"495 -138 LINE",
"495 -76 LINE",
"304 -76 LINE",
"304 1 LINE SMOOTH",
"304 56 OFFCURVE",
"323 79 OFFCURVE",
"344 107 CURVE SMOOTH",
"366 136 OFFCURVE",
"391 166 OFFCURVE",
"391 208 CURVE SMOOTH",
"391 263 OFFCURVE",
"348 300 OFFCURVE",
"281 309 CURVE",
"281 313 LINE",
"348 322 OFFCURVE",
"391 359 OFFCURVE",
"391 414 CURVE SMOOTH",
"391 456 OFFCURVE",
"366 486 OFFCURVE",
"344 515 CURVE SMOOTH",
"323 543 OFFCURVE",
"304 566 OFFCURVE",
"304 621 CURVE SMOOTH",
"304 698 LINE",
"495 698 LINE",
"495 760 LINE",
"319 760 LINE SMOOTH",
"264 760 OFFCURVE",
"235 724 OFFCURVE",
"235 678 CURVE SMOOTH",
"235 615 LINE SMOOTH",
"235 543 OFFCURVE",
"267 510 OFFCURVE",
"291 480 CURVE SMOOTH",
"313 453 OFFCURVE",
"321 436 OFFCURVE",
"321 415 CURVE SMOOTH",
"321 365 OFFCURVE",
"273 342 OFFCURVE",
"183 342 CURVE SMOOTH",
"105 342 LINE",
"105 280 LINE",
"183 280 LINE SMOOTH",
"273 280 OFFCURVE",
"321 257 OFFCURVE",
"321 207 CURVE SMOOTH",
"321 186 OFFCURVE",
"313 169 OFFCURVE",
"291 142 CURVE SMOOTH",
"267 112 OFFCURVE",
"235 79 OFFCURVE",
"235 7 CURVE SMOOTH",
"235 -56 LINE SMOOTH",
"235 -102 OFFCURVE",
"264 -138 OFFCURVE",
"319 -138 CURVE SMOOTH"
);
}
);
width = 600;
}
);
note = braceleft;
unicode = 007B;
},
{
glyphname = braceright;
lastChange = "2017-11-24 19:34:51 +0000";
layers = (
{
layerId = "6B036DBC-DFAA-4A6A-8D11-6D1679C0E942";
paths = (
{
closed = 1;
nodes = (
"105 760 LINE",
"105 698 LINE",
"296 698 LINE",
"296 621 LINE SMOOTH",
"296 566 OFFCURVE",
"277 543 OFFCURVE",
"256 515 CURVE SMOOTH",
"234 486 OFFCURVE",
"209 456 OFFCURVE",
"209 414 CURVE SMOOTH",
"209 359 OFFCURVE",
"252 322 OFFCURVE",
"319 313 CURVE",
"319 309 LINE",
"252 300 OFFCURVE",
"209 263 OFFCURVE",
"209 208 CURVE SMOOTH",
"209 166 OFFCURVE",
"234 136 OFFCURVE",
"256 107 CURVE SMOOTH",
"277 79 OFFCURVE",
"296 56 OFFCURVE",
"296 1 CURVE SMOOTH",
"296 -76 LINE",
"105 -76 LINE",
"105 -138 LINE",
"281 -138 LINE SMOOTH",
"336 -138 OFFCURVE",
"365 -102 OFFCURVE",
"365 -56 CURVE SMOOTH",
"365 7 LINE SMOOTH",
"365 79 OFFCURVE",
"333 112 OFFCURVE",
"309 142 CURVE SMOOTH",
"287 169 OFFCURVE",
"279 186 OFFCURVE",
"279 207 CURVE SMOOTH",
"279 257 OFFCURVE",
"327 280 OFFCURVE",
"417 280 CURVE SMOOTH",
"495 280 LINE",
"495 342 LINE",
"417 342 LINE SMOOTH",
"327 342 OFFCURVE",
"279 365 OFFCURVE",
"279 415 CURVE SMOOTH",
"279 436 OFFCURVE",
"287 453 OFFCURVE",
"309 480 CURVE SMOOTH",
"333 510 OFFCURVE",
"365 543 OFFCURVE",
"365 615 CURVE SMOOTH",
"365 678 LINE SMOOTH",
"365 724 OFFCURVE",
"336 760 OFFCURVE",
"281 760 CURVE SMOOTH"
);
}
);
width = 600;
}
);
note = braceright;
unicode = 007D;
},
{
glyphname = slash;
lastChange = "2017-11-24 19:34:51 +0000";
layers = (
{
layerId = "6B036DBC-DFAA-4A6A-8D11-6D1679C0E942";
paths = (
{
closed = 1;
nodes = (
"162 -138 LINE",
"510 760 LINE",
"438 760 LINE",
"90 -138 LINE"
);
}
);
width = 600;
}
);
note = slash;
unicode = 002F;
},
{
glyphname = backslash;
lastChange = "2017-11-24 19:34:51 +0000";
layers = (
{
layerId = "6B036DBC-DFAA-4A6A-8D11-6D1679C0E942";
paths = (
{
closed = 1;
nodes = (
"510 -138 LINE",
"162 760 LINE",
"90 760 LINE",
"438 -138 LINE"
);
}
);
width = 600;
}
);
note = backslash;
unicode = 005C;
},
{
glyphname = fraction;
lastChange = "2017-11-24 19:34:51 +0000";
layers = (
{
layerId = "6B036DBC-DFAA-4A6A-8D11-6D1679C0E942";
paths = (
{
closed = 1;
nodes = (
"350 398 LINE",
"422 398 LINE",
"582 698 LINE",
"510 698 LINE"
);
},
{
closed = 1;
nodes = (
"18 0 LINE",
"90 0 LINE",
"250 300 LINE",
"178 300 LINE"
);
}
);
width = 600;
}
);
note = fraction;
unicode = 2044;
},
{
glyphname = percent;
lastChange = "2017-11-24 19:34:51 +0000";
layers = (
{
layerId = "6B036DBC-DFAA-4A6A-8D11-6D1679C0E942";
paths = (
{
closed = 1;
nodes = (
"256 356 OFFCURVE",
"318 416 OFFCURVE",
"318 533 CURVE SMOOTH",
"318 650 OFFCURVE",
"256 710 OFFCURVE",
"169 710 CURVE SMOOTH",
"82 710 OFFCURVE",
"20 650 OFFCURVE",
"20 533 CURVE SMOOTH",
"20 416 OFFCURVE",
"82 356 OFFCURVE",
"169 356 CURVE SMOOTH"
);
},
{
closed = 1;
nodes = (
"121 410 OFFCURVE",
"88 445 OFFCURVE",
"88 508 CURVE SMOOTH",
"88 558 LINE SMOOTH",
"88 621 OFFCURVE",
"121 656 OFFCURVE",
"169 656 CURVE SMOOTH",
"217 656 OFFCURVE",
"250 621 OFFCURVE",
"250 558 CURVE SMOOTH",
"250 508 LINE SMOOTH",
"250 445 OFFCURVE",
"217 410 OFFCURVE",
"169 410 CURVE SMOOTH"
);
},
{
closed = 1;
nodes = (
"350 398 LINE",
"422 398 LINE",
"582 698 LINE",
"510 698 LINE"
);
},
{
closed = 1;
nodes = (
"18 0 LINE",
"90 0 LINE",
"250 300 LINE",
"178 300 LINE"
);
},
{
closed = 1;
nodes = (
"518 -12 OFFCURVE",
"580 48 OFFCURVE",
"580 165 CURVE SMOOTH",
"580 282 OFFCURVE",
"518 342 OFFCURVE",
"431 342 CURVE SMOOTH",
"344 342 OFFCURVE",
"282 282 OFFCURVE",
"282 165 CURVE SMOOTH",
"282 48 OFFCURVE",
"344 -12 OFFCURVE",
"431 -12 CURVE SMOOTH"
);
},
{
closed = 1;
nodes = (
"383 42 OFFCURVE",
"350 77 OFFCURVE",
"350 140 CURVE SMOOTH",
"350 190 LINE SMOOTH",
"350 253 OFFCURVE",
"383 288 OFFCURVE",
"431 288 CURVE SMOOTH",
"479 288 OFFCURVE",
"512 253 OFFCURVE",
"512 190 CURVE SMOOTH",
"512 140 LINE SMOOTH",
"512 77 OFFCURVE",
"479 42 OFFCURVE",
"431 42 CURVE SMOOTH"
);
}
);
width = 600;
}
);
note = percent;
unicode = 0025;
},
{
glyphname = perthousand;
lastChange = "2017-11-24 19:34:51 +0000";
layers = (
{
layerId = "6B036DBC-DFAA-4A6A-8D11-6D1679C0E942";
paths = (
{
closed = 1;
nodes = (
"226 400 OFFCURVE",
"278 453 OFFCURVE",
"278 555 CURVE SMOOTH",
"278 658 OFFCURVE",
"225 710 OFFCURVE",
"139 710 CURVE SMOOTH",
"52 710 OFFCURVE",
"0 657 OFFCURVE",
"0 555 CURVE SMOOTH",
"0 452 OFFCURVE",
"53 400 OFFCURVE",
"139 400 CURVE SMOOTH"
);
},
{
closed = 1;
nodes = (
"94 450 OFFCURVE",
"68 483 OFFCURVE",
"68 531 CURVE SMOOTH",
"68 579 LINE SMOOTH",
"68 627 OFFCURVE",
"94 660 OFFCURVE",
"139 660 CURVE SMOOTH",
"184 660 OFFCURVE",
"210 627 OFFCURVE",
"210 579 CURVE SMOOTH",
"210 531 LINE SMOOTH",
"210 483 OFFCURVE",
"184 450 OFFCURVE",
"139 450 CURVE SMOOTH"
);
},
{
closed = 1;
nodes = (
"81 278 LINE",
"531 454 LINE",
"511 504 LINE",
"61 328 LINE"
);
},
{
closed = 1;
nodes = (
"293 -12 OFFCURVE",
"329 6 OFFCURVE",
"353 38 CURVE",
"359 38 LINE",
"383 6 OFFCURVE",
"419 -12 OFFCURVE",
"464 -12 CURVE SMOOTH",
"548 -12 OFFCURVE",
"600 41 OFFCURVE",
"600 143 CURVE SMOOTH",
"600 245 OFFCURVE",
"548 298 OFFCURVE",
"464 298 CURVE SMOOTH",
"419 298 OFFCURVE",
"383 280 OFFCURVE",
"359 248 CURVE",
"354 248 LINE",
"329 280 OFFCURVE",
"293 298 OFFCURVE",
"248 298 CURVE SMOOTH",
"164 298 OFFCURVE",
"112 245 OFFCURVE",
"112 143 CURVE SMOOTH",
"112 41 OFFCURVE",
"164 -12 OFFCURVE",
"248 -12 CURVE SMOOTH"
);
},
{
closed = 1;
nodes = (
"206 38 OFFCURVE",
"180 71 OFFCURVE",
"180 119 CURVE SMOOTH",
"180 167 LINE SMOOTH",
"180 215 OFFCURVE",
"206 248 OFFCURVE",
"251 248 CURVE SMOOTH",
"296 248 OFFCURVE",
"322 215 OFFCURVE",
"322 167 CURVE SMOOTH",
"322 119 LINE SMOOTH",
"322 71 OFFCURVE",
"296 38 OFFCURVE",
"251 38 CURVE SMOOTH"
);
},
{
closed = 1;
nodes = (
"416 38 OFFCURVE",
"390 71 OFFCURVE",
"390 119 CURVE SMOOTH",
"390 167 LINE SMOOTH",
"390 215 OFFCURVE",
"416 248 OFFCURVE",
"461 248 CURVE SMOOTH",
"506 248 OFFCURVE",
"532 215 OFFCURVE",
"532 167 CURVE SMOOTH",
"532 119 LINE SMOOTH",
"532 71 OFFCURVE",
"506 38 OFFCURVE",
"461 38 CURVE SMOOTH"
);
}
);
width = 600;
}
);
note = perthousand;
unicode = 2030;
},
{
glyphname = bar;
lastChange = "2017-11-24 19:34:51 +0000";
layers = (
{
layerId = "6B036DBC-DFAA-4A6A-8D11-6D1679C0E942";
paths = (
{
closed = 1;
nodes = (
"335 -138 LINE",
"335 760 LINE",
"265 760 LINE",
"265 -138 LINE"
);
}
);
width = 600;
}
);
note = bar;
unicode = 007C;
},
{
glyphname = brokenbar;
lastChange = "2017-11-24 19:34:51 +0000";
layers = (
{
layerId = "6B036DBC-DFAA-4A6A-8D11-6D1679C0E942";
paths = (
{
closed = 1;
nodes = (
"335 401 LINE",
"335 760 LINE",
"265 760 LINE",
"265 401 LINE"
);
},
{
closed = 1;
nodes = (
"335 -138 LINE",
"335 221 LINE",
"265 221 LINE",
"265 -138 LINE"
);
}
);
width = 600;
}
);
note = brokenbar;
unicode = 00A6;
},
{
glyphname = section;
lastChange = "2017-11-24 19:34:51 +0000";
layers = (
{
layerId = "6B036DBC-DFAA-4A6A-8D11-6D1679C0E942";
paths = (
{
closed = 1;
nodes = (
"487 56 OFFCURVE",
"463 103 OFFCURVE",
"411 135 CURVE",
"411 140 LINE",
"482 168 OFFCURVE",
"523 219 OFFCURVE",
"523 283 CURVE SMOOTH",
"523 351 OFFCURVE",
"476 407 OFFCURVE",
"366 438 CURVE SMOOTH",
"302 456 LINE SMOOTH",
"235 475 OFFCURVE",
"196 503 OFFCURVE",
"196 553 CURVE SMOOTH",
"196 607 OFFCURVE",
"241 641 OFFCURVE",
"317 641 CURVE SMOOTH",
"368 641 OFFCURVE",
"409 625 OFFCURVE",
"441 598 CURVE",
"488 654 LINE",
"441 694 OFFCURVE",
"379 710 OFFCURVE",
"318 710 CURVE SMOOTH",
"198 710 OFFCURVE",
"117 648 OFFCURVE",
"117 552 CURVE SMOOTH",
"117 499 OFFCURVE",
"141 452 OFFCURVE",
"193 420 CURVE",
"193 415 LINE",
"122 387 OFFCURVE",
"81 336 OFFCURVE",
"81 272 CURVE SMOOTH",
"81 204 OFFCURVE",
"128 148 OFFCURVE",
"238 117 CURVE SMOOTH",
"302 99 LINE SMOOTH",
"369 80 OFFCURVE",
"408 52 OFFCURVE",
"408 2 CURVE SMOOTH",
"408 -52 OFFCURVE",
"363 -86 OFFCURVE",
"287 -86 CURVE SMOOTH",
"236 -86 OFFCURVE",
"195 -70 OFFCURVE",
"163 -43 CURVE",
"116 -99 LINE",
"163 -139 OFFCURVE",
"225 -155 OFFCURVE",
"286 -155 CURVE SMOOTH",
"406 -155 OFFCURVE",
"487 -93 OFFCURVE",
"487 3 CURVE SMOOTH"
);
},
{
closed = 1;
nodes = (
"444 216 OFFCURVE",
"418 180 OFFCURVE",
"377 152 CURVE",
"367 156 OFFCURVE",
"355 160 OFFCURVE",
"343 163 CURVE SMOOTH",
"280 180 LINE SMOOTH",
"198 202 OFFCURVE",
"160 235 OFFCURVE",
"160 292 CURVE SMOOTH",
"160 339 OFFCURVE",
"186 375 OFFCURVE",
"227 403 CURVE",
"237 399 OFFCURVE",
"249 395 OFFCURVE",
"261 392 CURVE SMOOTH",
"324 375 LINE SMOOTH",
"406 353 OFFCURVE",
"444 320 OFFCURVE",
"444 263 CURVE SMOOTH"
);
}
);
width = 600;
}
);
note = section;
unicode = 00A7;
},
{
glyphname = paragraph;
lastChange = "2017-11-24 19:34:51 +0000";
layers = (
{
layerId = "6B036DBC-DFAA-4A6A-8D11-6D1679C0E942";
paths = (
{
closed = 1;
nodes = (
"270 -149 LINE",
"342 -149 LINE",
"342 634 LINE",
"432 634 LINE",
"432 -149 LINE",
"504 -149 LINE",
"504 698 LINE",
"270 698 LINE SMOOTH",
"146 698 OFFCURVE",
"45 603 OFFCURVE",
"45 472 CURVE SMOOTH",
"45 341 OFFCURVE",
"146 246 OFFCURVE",
"270 246 CURVE"
);
}
);
width = 600;
}
);
note = paragraph;
unicode = 00B6;
},
{
glyphname = copyright;
lastChange = "2017-11-24 19:34:51 +0000";
layers = (
{
layerId = "6B036DBC-DFAA-4A6A-8D11-6D1679C0E942";
paths = (
{
closed = 1;
nodes = (
"467 18 OFFCURVE",
"600 145 OFFCURVE",
"600 349 CURVE SMOOTH",
"600 553 OFFCURVE",
"467 680 OFFCURVE",
"300 680 CURVE SMOOTH",
"133 680 OFFCURVE",
"0 553 OFFCURVE",
"0 349 CURVE SMOOTH",
"0 145 OFFCURVE",
"133 18 OFFCURVE",
"300 18 CURVE SMOOTH"
);
},
{
closed = 1;
nodes = (
"163 73 OFFCURVE",
"63 182 OFFCURVE",
"63 319 CURVE SMOOTH",
"63 379 LINE SMOOTH",
"63 516 OFFCURVE",
"163 625 OFFCURVE",
"300 625 CURVE SMOOTH",
"437 625 OFFCURVE",
"537 516 OFFCURVE",
"537 379 CURVE SMOOTH",
"537 319 LINE SMOOTH",
"537 182 OFFCURVE",
"437 73 OFFCURVE",
"300 73 CURVE SMOOTH"
);
},
{
closed = 1;
nodes = (
"370 171 OFFCURVE",
"414 205 OFFCURVE",
"436 252 CURVE",
"386 283 LINE",
"368 250 OFFCURVE",
"346 228 OFFCURVE",
"306 228 CURVE SMOOTH",
"252 228 OFFCURVE",
"223 266 OFFCURVE",
"223 321 CURVE SMOOTH",
"223 378 LINE SMOOTH",
"223 432 OFFCURVE",
"253 470 OFFCURVE",
"305 470 CURVE SMOOTH",
"342 470 OFFCURVE",
"364 450 OFFCURVE",
"378 418 CURVE",
"431 447 LINE",
"409 495 OFFCURVE",
"368 527 OFFCURVE",
"305 527 CURVE SMOOTH",
"209 527 OFFCURVE",
"151 458 OFFCURVE",
"151 349 CURVE SMOOTH",
"151 241 OFFCURVE",
"208 171 OFFCURVE",
"305 171 CURVE SMOOTH"
);
}
);
width = 600;
}
);
note = copyright;
unicode = 00A9;
},
{
glyphname = registered;
lastChange = "2017-11-24 19:34:51 +0000";
layers = (
{
layerId = "6B036DBC-DFAA-4A6A-8D11-6D1679C0E942";
paths = (
{
closed = 1;
nodes = (
"402 346 OFFCURVE",
"483 424 OFFCURVE",
"483 528 CURVE SMOOTH",
"483 632 OFFCURVE",
"402 710 OFFCURVE",
"300 710 CURVE SMOOTH",
"198 710 OFFCURVE",
"117 632 OFFCURVE",
"117 528 CURVE SMOOTH",
"117 424 OFFCURVE",
"198 346 OFFCURVE",
"300 346 CURVE SMOOTH"
);
},
{
closed = 1;
nodes = (
"223 387 OFFCURVE",
"165 439 OFFCURVE",
"165 518 CURVE SMOOTH",
"165 538 LINE SMOOTH",
"165 617 OFFCURVE",
"223 669 OFFCURVE",
"300 669 CURVE SMOOTH",
"377 669 OFFCURVE",
"435 617 OFFCURVE",
"435 538 CURVE SMOOTH",
"435 518 LINE SMOOTH",
"435 439 OFFCURVE",
"377 387 OFFCURVE",
"300 387 CURVE SMOOTH"
);
},
{
closed = 1;
nodes = (
"270 506 LINE",
"299 506 LINE",
"338 436 LINE",
"383 436 LINE",
"337 512 LINE",
"360 520 OFFCURVE",
"374 539 OFFCURVE",
"374 564 CURVE SMOOTH",
"374 599 OFFCURVE",
"352 621 OFFCURVE",
"315 621 CURVE SMOOTH",
"230 621 LINE",
"230 436 LINE",
"270 436 LINE"
);
},
{
closed = 1;
nodes = (
"270 535 LINE",
"270 590 LINE",
"306 590 LINE SMOOTH",
"322 590 OFFCURVE",
"332 581 OFFCURVE",
"332 566 CURVE SMOOTH",
"332 559 LINE SMOOTH",
"332 544 OFFCURVE",
"322 535 OFFCURVE",
"306 535 CURVE SMOOTH"
);
}
);
width = 600;
}
);
note = registered;
unicode = 00AE;
},
{
glyphname = trademark;
lastChange = "2017-11-24 19:34:51 +0000";
layers = (
{
layerId = "6B036DBC-DFAA-4A6A-8D11-6D1679C0E942";
paths = (
{
closed = 1;
nodes = (
"154 419 LINE",
"154 652 LINE",
"240 652 LINE",
"240 698 LINE",
"16 698 LINE",
"16 652 LINE",
"102 652 LINE",
"102 419 LINE"
);
},
{
closed = 1;
nodes = (
"330 419 LINE",
"330 546 LINE",
"329 629 LINE",
"333 629 LINE",
"412 473 LINE",
"491 629 LINE",
"495 629 LINE",
"494 546 LINE",
"494 419 LINE",
"542 419 LINE",
"542 698 LINE",
"480 698 LINE",
"415 564 LINE",
"412 564 LINE",
"347 698 LINE",
"282 698 LINE",
"282 419 LINE"
);
}
);
width = 600;
}
);
note = trademark;
unicode = 2122;
},
{
glyphname = ordfeminine;
lastChange = "2017-11-24 19:34:51 +0000";
layers = (
{
layerId = "6B036DBC-DFAA-4A6A-8D11-6D1679C0E942";
paths = (
{
closed = 1;
nodes = (
"463 357 LINE",
"463 413 LINE",
"425 413 LINE",
"425 583 LINE SMOOTH",
"425 664 OFFCURVE",
"373 710 OFFCURVE",
"288 710 CURVE SMOOTH",
"214 710 OFFCURVE",
"170 674 OFFCURVE",
"150 640 CURVE",
"192 606 LINE",
"207 636 OFFCURVE",
"239 658 OFFCURVE",
"285 658 CURVE SMOOTH",
"335 658 OFFCURVE",
"362 633 OFFCURVE",
"362 580 CURVE SMOOTH",
"362 552 LINE",
"289 552 LINE SMOOTH",
"193 552 OFFCURVE",
"138 519 OFFCURVE",
"138 448 CURVE SMOOTH",
"138 389 OFFCURVE",
"177 349 OFFCURVE",
"249 349 CURVE SMOOTH",
"311 349 OFFCURVE",
"347 379 OFFCURVE",
"362 410 CURVE",
"366 410 LINE",
"368 377 OFFCURVE",
"385 357 OFFCURVE",
"429 357 CURVE SMOOTH"
);
},
{
closed = 1;
nodes = (
"362 506 LINE",
"362 465 LINE SMOOTH",
"362 425 OFFCURVE",
"315 400 OFFCURVE",
"262 400 CURVE SMOOTH",
"222 400 OFFCURVE",
"201 415 OFFCURVE",
"201 449 CURVE SMOOTH",
"201 459 LINE SMOOTH",
"201 490 OFFCURVE",
"232 506 OFFCURVE",
"287 506 CURVE SMOOTH"
);
}
);
width = 600;
}
);
note = ordfeminine;
unicode = 00AA;
},
{
glyphname = ordmasculine;
lastChange = "2017-11-24 19:34:51 +0000";
layers = (
{
layerId = "6B036DBC-DFAA-4A6A-8D11-6D1679C0E942";
paths = (
{
closed = 1;
nodes = (
"400 349 OFFCURVE",
"460 418 OFFCURVE",
"460 530 CURVE SMOOTH",
"460 641 OFFCURVE",
"400 710 OFFCURVE",
"300 710 CURVE SMOOTH",
"200 710 OFFCURVE",
"140 641 OFFCURVE",
"140 530 CURVE SMOOTH",
"140 418 OFFCURVE",
"199 349 OFFCURVE",
"300 349 CURVE SMOOTH"
);
},
{
closed = 1;
nodes = (
"240 402 OFFCURVE",
"209 443 OFFCURVE",
"209 500 CURVE SMOOTH",
"209 559 LINE SMOOTH",
"209 616 OFFCURVE",
"240 657 OFFCURVE",
"300 657 CURVE SMOOTH",
"360 657 OFFCURVE",
"391 616 OFFCURVE",
"391 559 CURVE SMOOTH",
"391 500 LINE SMOOTH",
"391 443 OFFCURVE",
"360 402 OFFCURVE",
"300 402 CURVE SMOOTH"
);
}
);
width = 600;
}
);
note = ordmasculine;
unicode = 00BA;
},
{
glyphname = degree;
lastChange = "2017-11-24 19:34:51 +0000";
layers = (
{
layerId = "6B036DBC-DFAA-4A6A-8D11-6D1679C0E942";
paths = (
{
closed = 1;
nodes = (
"396 368 OFFCURVE",
"471 442 OFFCURVE",
"471 539 CURVE SMOOTH",
"471 636 OFFCURVE",
"396 710 OFFCURVE",
"300 710 CURVE SMOOTH",
"204 710 OFFCURVE",
"129 636 OFFCURVE",
"129 539 CURVE SMOOTH",
"129 442 OFFCURVE",
"204 368 OFFCURVE",
"300 368 CURVE SMOOTH"
);
},
{
closed = 1;
nodes = (
"239 432 OFFCURVE",
"199 479 OFFCURVE",
"199 539 CURVE SMOOTH",
"199 599 OFFCURVE",
"239 646 OFFCURVE",
"300 646 CURVE SMOOTH",
"361 646 OFFCURVE",
"401 599 OFFCURVE",
"401 539 CURVE SMOOTH",
"401 479 OFFCURVE",
"361 432 OFFCURVE",
"300 432 CURVE SMOOTH"
);
}
);
width = 600;
}
);
note = degree;
unicode = 00B0;
},
{
glyphname = asterisk;
lastChange = "2017-11-24 19:34:51 +0000";
layers = (
{
layerId = "6B036DBC-DFAA-4A6A-8D11-6D1679C0E942";
paths = (
{
closed = 1;
nodes = (
"300 224 LINE",
"425 52 LINE",
"482 94 LINE",
"358 264 LINE",
"557 330 LINE",
"536 396 LINE",
"337 332 LINE",
"337 548 LINE",
"263 548 LINE",
"263 332 LINE",
"64 396 LINE",
"43 330 LINE",
"242 264 LINE",
"118 94 LINE",
"175 52 LINE"
);
}
);
width = 600;
}
);
note = asterisk;
unicode = 002A;
},
{
glyphname = dagger;
lastChange = "2017-11-24 19:34:51 +0000";
layers = (
{
layerId = "6B036DBC-DFAA-4A6A-8D11-6D1679C0E942";
paths = (
{
closed = 1;
nodes = (
"335 -200 LINE",
"335 452 LINE",
"530 452 LINE",
"530 516 LINE",
"335 516 LINE",
"335 740 LINE",
"265 740 LINE",
"265 516 LINE",
"70 516 LINE",
"70 452 LINE",
"265 452 LINE",
"265 -200 LINE"
);
}
);
width = 600;
}
);
note = dagger;
unicode = 2020;
},
{
glyphname = daggerdbl;
lastChange = "2017-11-24 19:34:51 +0000";
layers = (
{
layerId = "6B036DBC-DFAA-4A6A-8D11-6D1679C0E942";
paths = (
{
closed = 1;
nodes = (
"335 -200 LINE",
"335 24 LINE",
"530 24 LINE",
"530 88 LINE",
"335 88 LINE",
"335 452 LINE",
"530 452 LINE",
"530 516 LINE",
"335 516 LINE",
"335 740 LINE",
"265 740 LINE",
"265 516 LINE",
"70 516 LINE",
"70 452 LINE",
"265 452 LINE",
"265 88 LINE",
"70 88 LINE",
"70 24 LINE",
"265 24 LINE",
"265 -200 LINE"
);
}
);
width = 600;
}
);
note = daggerdbl;
unicode = 2021;
},
{
glyphname = numbersign;
lastChange = "2017-11-24 19:34:51 +0000";
layers = (
{
layerId = "6B036DBC-DFAA-4A6A-8D11-6D1679C0E942";
paths = (
{
closed = 1;
nodes = (
"110 0 LINE",
"183 0 LINE",
"306 698 LINE",
"233 698 LINE",
"195 482 LINE",
"52 482 LINE",
"52 416 LINE",
"183 416 LINE",
"160 282 LINE",
"16 282 LINE",
"16 216 LINE",
"148 216 LINE"
);
},
{
closed = 1;
nodes = (
"294 0 LINE",
"367 0 LINE",
"405 216 LINE",
"548 216 LINE",
"548 282 LINE",
"417 282 LINE",
"440 416 LINE",
"584 416 LINE",
"584 482 LINE",
"452 482 LINE",
"490 698 LINE",
"417 698 LINE"
);
}
);
width = 600;
}
);
note = numbersign;
unicode = 0023;
},
{
glyphname = asciicircum;
lastChange = "2017-11-24 19:34:51 +0000";
layers = (
{
layerId = "6B036DBC-DFAA-4A6A-8D11-6D1679C0E942";
paths = (
{
closed = 1;
nodes = (
"555 318 LINE",
"345 698 LINE",
"255 698 LINE",
"45 318 LINE",
"107 287 LINE",
"296 629 LINE",
"300 629 LINE",
"489 287 LINE"
);
}
);
width = 600;
}
);
note = asciicircum;
unicode = 005E;
},
{
glyphname = asciitilde;
lastChange = "2017-11-24 19:34:51 +0000";
layers = (
{
layerId = "6B036DBC-DFAA-4A6A-8D11-6D1679C0E942";
paths = (
{
closed = 1;
nodes = (
"483 236 OFFCURVE",
"516 259 OFFCURVE",
"544 291 CURVE",
"510 335 LINE",
"480 313 OFFCURVE",
"459 303 OFFCURVE",
"426 303 CURVE SMOOTH",
"384 303 OFFCURVE",
"348 319 OFFCURVE",
"310 337 CURVE SMOOTH",
"263 359 OFFCURVE",
"228 374 OFFCURVE",
"179 374 CURVE SMOOTH",
"117 374 OFFCURVE",
"84 351 OFFCURVE",
"56 319 CURVE",
"90 275 LINE",
"120 297 OFFCURVE",
"141 307 OFFCURVE",
"174 307 CURVE SMOOTH",
"216 307 OFFCURVE",
"252 291 OFFCURVE",
"290 273 CURVE SMOOTH",
"337 251 OFFCURVE",
"372 236 OFFCURVE",
"421 236 CURVE SMOOTH"
);
}
);
width = 600;
}
);
note = asciitilde;
unicode = 007E;
},
{
glyphname = plus;
lastChange = "2017-11-24 19:34:51 +0000";
layers = (
{
layerId = "6B036DBC-DFAA-4A6A-8D11-6D1679C0E942";
paths = (
{
closed = 1;
nodes = (
"338 62 LINE",
"338 271 LINE",
"538 271 LINE",
"538 339 LINE",
"338 339 LINE",
"338 548 LINE",
"262 548 LINE",
"262 339 LINE",
"62 339 LINE",
"62 271 LINE",
"262 271 LINE",
"262 62 LINE"
);
}
);
width = 600;
}
);
note = plus;
unicode = 002B;
},
{
glyphname = minus;
lastChange = "2017-11-24 19:34:51 +0000";
layers = (
{
layerId = "6B036DBC-DFAA-4A6A-8D11-6D1679C0E942";
paths = (
{
closed = 1;
nodes = (
"538 271 LINE",
"538 339 LINE",
"62 339 LINE",
"62 271 LINE"
);
}
);
width = 600;
}
);
note = minus;
unicode = 2212;
},
{
glyphname = plusminus;
lastChange = "2017-11-24 19:34:51 +0000";
layers = (
{
layerId = "6B036DBC-DFAA-4A6A-8D11-6D1679C0E942";
paths = (
{
closed = 1;
nodes = (
"338 152 LINE",
"338 351 LINE",
"538 351 LINE",
"538 419 LINE",
"338 419 LINE",
"338 618 LINE",
"262 618 LINE",
"262 419 LINE",
"62 419 LINE",
"62 351 LINE",
"262 351 LINE",
"262 152 LINE"
);
},
{
closed = 1;
nodes = (
"538 0 LINE",
"538 68 LINE",
"62 68 LINE",
"62 0 LINE"
);
}
);
width = 600;
}
);
note = plusminus;
unicode = 00B1;
},
{
glyphname = multiply;
lastChange = "2017-11-24 19:34:51 +0000";
layers = (
{
layerId = "6B036DBC-DFAA-4A6A-8D11-6D1679C0E942";
paths = (
{
closed = 1;
nodes = (
"463 93 LINE",
"512 142 LINE",
"349 305 LINE",
"512 468 LINE",
"463 517 LINE",
"300 354 LINE",
"137 517 LINE",
"88 468 LINE",
"251 305 LINE",
"88 142 LINE",
"137 93 LINE",
"300 256 LINE"
);
}
);
width = 600;
}
);
note = multiply;
unicode = 00D7;
},
{
glyphname = divide;
lastChange = "2017-11-24 19:34:51 +0000";
layers = (
{
layerId = "6B036DBC-DFAA-4A6A-8D11-6D1679C0E942";
paths = (
{
closed = 1;
nodes = (
"538 271 LINE",
"538 339 LINE",
"62 339 LINE",
"62 271 LINE"
);
},
{
closed = 1;
nodes = (
"346 52 OFFCURVE",
"362 73 OFFCURVE",
"362 100 CURVE SMOOTH",
"362 122 LINE SMOOTH",
"362 149 OFFCURVE",
"346 170 OFFCURVE",
"300 170 CURVE SMOOTH",
"254 170 OFFCURVE",
"238 149 OFFCURVE",
"238 122 CURVE SMOOTH",
"238 100 LINE SMOOTH",
"238 73 OFFCURVE",
"254 52 OFFCURVE",
"300 52 CURVE SMOOTH"
);
},
{
closed = 1;
nodes = (
"346 440 OFFCURVE",
"362 461 OFFCURVE",
"362 488 CURVE SMOOTH",
"362 510 LINE SMOOTH",
"362 537 OFFCURVE",
"346 558 OFFCURVE",
"300 558 CURVE SMOOTH",
"254 558 OFFCURVE",
"238 537 OFFCURVE",
"238 510 CURVE SMOOTH",
"238 488 LINE SMOOTH",
"238 461 OFFCURVE",
"254 440 OFFCURVE",
"300 440 CURVE SMOOTH"
);
}
);
width = 600;
}
);
note = divide;
unicode = 00F7;
},
{
glyphname = equal;
lastChange = "2017-11-24 19:34:51 +0000";
layers = (
{
layerId = "6B036DBC-DFAA-4A6A-8D11-6D1679C0E942";
paths = (
{
closed = 1;
nodes = (
"538 372 LINE",
"538 440 LINE",
"62 440 LINE",
"62 372 LINE"
);
},
{
closed = 1;
nodes = (
"538 172 LINE",
"538 240 LINE",
"62 240 LINE",
"62 172 LINE"
);
}
);
width = 600;
}
);
note = equal;
unicode = 003D;
},
{
glyphname = approxequal;
lastChange = "2017-11-24 19:34:51 +0000";
layers = (
{
layerId = "6B036DBC-DFAA-4A6A-8D11-6D1679C0E942";
paths = (
{
closed = 1;
nodes = (
"483 137 OFFCURVE",
"516 160 OFFCURVE",
"544 192 CURVE",
"510 236 LINE",
"480 214 OFFCURVE",
"459 204 OFFCURVE",
"426 204 CURVE SMOOTH",
"384 204 OFFCURVE",
"348 220 OFFCURVE",
"310 238 CURVE SMOOTH",
"263 260 OFFCURVE",
"228 275 OFFCURVE",
"179 275 CURVE SMOOTH",
"117 275 OFFCURVE",
"84 252 OFFCURVE",
"56 220 CURVE",
"90 176 LINE",
"120 198 OFFCURVE",
"141 208 OFFCURVE",
"174 208 CURVE SMOOTH",
"216 208 OFFCURVE",
"252 192 OFFCURVE",
"290 174 CURVE SMOOTH",
"337 152 OFFCURVE",
"372 137 OFFCURVE",
"421 137 CURVE SMOOTH"
);
},
{
closed = 1;
nodes = (
"483 336 OFFCURVE",
"516 359 OFFCURVE",
"544 391 CURVE",
"510 435 LINE",
"480 413 OFFCURVE",
"459 403 OFFCURVE",
"426 403 CURVE SMOOTH",
"384 403 OFFCURVE",
"348 419 OFFCURVE",
"310 437 CURVE SMOOTH",
"263 459 OFFCURVE",
"228 474 OFFCURVE",
"179 474 CURVE SMOOTH",
"117 474 OFFCURVE",
"84 451 OFFCURVE",
"56 419 CURVE",
"90 375 LINE",
"120 397 OFFCURVE",
"141 407 OFFCURVE",
"174 407 CURVE SMOOTH",
"216 407 OFFCURVE",
"252 391 OFFCURVE",
"290 373 CURVE SMOOTH",
"337 351 OFFCURVE",
"372 336 OFFCURVE",
"421 336 CURVE SMOOTH"
);
}
);
width = 600;
}
);
note = approxequal;
unicode = 2248;
},
{
glyphname = notequal;
lastChange = "2017-11-24 19:34:51 +0000";
layers = (
{
layerId = "6B036DBC-DFAA-4A6A-8D11-6D1679C0E942";
paths = (
{
closed = 1;
nodes = (
"209 72 LINE",
"263 172 LINE",
"538 172 LINE",
"538 240 LINE",
"300 240 LINE",
"371 372 LINE",
"538 372 LINE",
"538 440 LINE",
"408 440 LINE",
"463 540 LINE",
"391 540 LINE",
"337 440 LINE",
"62 440 LINE",
"62 372 LINE",
"300 372 LINE",
"229 240 LINE",
"62 240 LINE",
"62 172 LINE",
"192 172 LINE",
"137 72 LINE"
);
}
);
width = 600;
}
);
note = notequal;
unicode = 2260;
},
{
glyphname = less;
lastChange = "2017-11-24 19:34:51 +0000";
layers = (
{
layerId = "6B036DBC-DFAA-4A6A-8D11-6D1679C0E942";
paths = (
{
closed = 1;
nodes = (
"515 16 LINE",
"515 101 LINE",
"160 302 LINE",
"160 310 LINE",
"515 511 LINE",
"515 594 LINE",
"85 345 LINE",
"85 265 LINE"
);
}
);
width = 600;
}
);
note = less;
unicode = 003C;
},
{
glyphname = greater;
lastChange = "2017-11-24 19:34:51 +0000";
layers = (
{
layerId = "6B036DBC-DFAA-4A6A-8D11-6D1679C0E942";
paths = (
{
closed = 1;
nodes = (
"85 16 LINE",
"515 265 LINE",
"515 345 LINE",
"85 594 LINE",
"85 509 LINE",
"440 308 LINE",
"440 300 LINE",
"85 99 LINE"
);
}
);
width = 600;
}
);
note = greater;
unicode = 003E;
},
{
glyphname = lessequal;
lastChange = "2017-11-24 19:34:51 +0000";
layers = (
{
layerId = "6B036DBC-DFAA-4A6A-8D11-6D1679C0E942";
paths = (
{
closed = 1;
nodes = (
"515 0 LINE",
"515 68 LINE",
"85 68 LINE",
"85 0 LINE"
);
},
{
closed = 1;
nodes = (
"515 593 LINE",
"85 401 LINE",
"85 312 LINE",
"515 121 LINE",
"515 203 LINE",
"160 354 LINE",
"160 361 LINE",
"515 513 LINE"
);
}
);
width = 600;
}
);
note = lessequal;
unicode = 2264;
},
{
glyphname = greaterequal;
lastChange = "2017-11-24 19:34:51 +0000";
layers = (
{
layerId = "6B036DBC-DFAA-4A6A-8D11-6D1679C0E942";
paths = (
{
closed = 1;
nodes = (
"85 121 LINE",
"515 313 LINE",
"515 402 LINE",
"85 593 LINE",
"85 511 LINE",
"440 360 LINE",
"440 353 LINE",
"85 201 LINE"
);
},
{
closed = 1;
nodes = (
"85 0 LINE",
"515 0 LINE",
"515 68 LINE",
"85 68 LINE"
);
}
);
width = 600;
}
);
note = greaterequal;
unicode = 2265;
},
{
glyphname = periodcentered;
lastChange = "2017-11-24 19:34:51 +0000";
layers = (
{
layerId = "6B036DBC-DFAA-4A6A-8D11-6D1679C0E942";
paths = (
{
closed = 1;
nodes = (
"354 235 OFFCURVE",
"374 261 OFFCURVE",
"374 295 CURVE SMOOTH",
"374 313 LINE SMOOTH",
"374 347 OFFCURVE",
"354 373 OFFCURVE",
"300 373 CURVE SMOOTH",
"246 373 OFFCURVE",
"226 347 OFFCURVE",
"226 313 CURVE SMOOTH",
"226 295 LINE SMOOTH",
"226 261 OFFCURVE",
"246 235 OFFCURVE",
"300 235 CURVE SMOOTH"
);
}
);
width = 600;
}
);
note = periodcentered;
unicode = 00B7;
},
{
glyphname = bullet;
lastChange = "2017-11-24 19:34:51 +0000";
layers = (
{
layerId = "6B036DBC-DFAA-4A6A-8D11-6D1679C0E942";
paths = (
{
closed = 1;
nodes = (
"389 186 OFFCURVE",
"422 231 OFFCURVE",
"422 290 CURVE SMOOTH",
"422 318 LINE SMOOTH",
"422 377 OFFCURVE",
"389 422 OFFCURVE",
"300 422 CURVE SMOOTH",
"211 422 OFFCURVE",
"178 377 OFFCURVE",
"178 318 CURVE SMOOTH",
"178 290 LINE SMOOTH",
"178 231 OFFCURVE",
"211 186 OFFCURVE",
"300 186 CURVE SMOOTH"
);
}
);
width = 600;
}
);
note = bullet;
unicode = 2022;
},
{
glyphname = lozenge;
lastChange = "2017-11-24 19:34:51 +0000";
layers = (
{
layerId = "6B036DBC-DFAA-4A6A-8D11-6D1679C0E942";
paths = (
{
closed = 1;
nodes = (
"341 0 LINE",
"559 349 LINE",
"341 698 LINE",
"260 698 LINE",
"42 349 LINE",
"260 0 LINE"
);
},
{
closed = 1;
nodes = (
"297 75 LINE",
"126 349 LINE",
"297 623 LINE",
"304 623 LINE",
"475 349 LINE",
"304 75 LINE"
);
}
);
width = 600;
}
);
note = lozenge;
unicode = 25CA;
},
{
glyphname = logicalnot;
lastChange = "2017-11-24 19:34:51 +0000";
layers = (
{
layerId = "6B036DBC-DFAA-4A6A-8D11-6D1679C0E942";
paths = (
{
closed = 1;
nodes = (
"522 78 LINE",
"522 339 LINE",
"62 339 LINE",
"62 271 LINE",
"453 271 LINE",
"453 78 LINE"
);
}
);
width = 600;
}
);
note = logicalnot;
unicode = 00AC;
},
{
glyphname = radical;
lastChange = "2017-11-24 19:34:51 +0000";
layers = (
{
layerId = "6B036DBC-DFAA-4A6A-8D11-6D1679C0E942";
paths = (
{
closed = 1;
nodes = (
"367 0 LINE",
"572 698 LINE",
"494 698 LINE",
"395 351 LINE",
"314 67 LINE",
"309 67 LINE",
"232 351 LINE",
"187 516 LINE",
"24 516 LINE",
"24 452 LINE",
"126 452 LINE",
"253 0 LINE"
);
}
);
width = 600;
}
);
note = radical;
unicode = 221A;
},
{
glyphname = integral;
lastChange = "2017-11-24 19:34:51 +0000";
layers = (
{
layerId = "6B036DBC-DFAA-4A6A-8D11-6D1679C0E942";
paths = (
{
closed = 1;
nodes = (
"35 -200 LINE",
"213 -200 LINE SMOOTH",
"291 -200 OFFCURVE",
"327 -151 OFFCURVE",
"327 -82 CURVE SMOOTH",
"327 671 LINE",
"539 671 LINE",
"539 740 LINE",
"361 740 LINE SMOOTH",
"283 740 OFFCURVE",
"247 691 OFFCURVE",
"247 622 CURVE SMOOTH",
"247 -132 LINE",
"35 -132 LINE"
);
}
);
width = 600;
}
);
note = integral;
unicode = 222B;
},
{
glyphname = infinity;
lastChange = "2017-11-24 19:34:51 +0000";
layers = (
{
layerId = "6B036DBC-DFAA-4A6A-8D11-6D1679C0E942";
paths = (
{
closed = 1;
nodes = (
"214 126 OFFCURVE",
"263 171 OFFCURVE",
"280 259 CURVE",
"284 259 LINE",
"313 166 OFFCURVE",
"364 126 OFFCURVE",
"435 126 CURVE SMOOTH",
"531 126 OFFCURVE",
"589 192 OFFCURVE",
"589 305 CURVE SMOOTH",
"589 418 OFFCURVE",
"535 484 OFFCURVE",
"442 484 CURVE SMOOTH",
"385 484 OFFCURVE",
"337 439 OFFCURVE",
"320 351 CURVE",
"316 351 LINE",
"287 444 OFFCURVE",
"236 484 OFFCURVE",
"165 484 CURVE SMOOTH",
"69 484 OFFCURVE",
"11 418 OFFCURVE",
"11 305 CURVE SMOOTH",
"11 192 OFFCURVE",
"64 126 OFFCURVE",
"157 126 CURVE SMOOTH"
);
},
{
closed = 1;
nodes = (
"118 188 OFFCURVE",
"87 220 OFFCURVE",
"87 278 CURVE SMOOTH",
"87 332 LINE SMOOTH",
"87 390 OFFCURVE",
"118 422 OFFCURVE",
"166 422 CURVE SMOOTH",
"211 422 OFFCURVE",
"248 378 OFFCURVE",
"269 307 CURVE",
"248 234 OFFCURVE",
"211 188 OFFCURVE",
"166 188 CURVE SMOOTH"
);
},
{
closed = 1;
nodes = (
"389 188 OFFCURVE",
"352 232 OFFCURVE",
"331 303 CURVE",
"352 376 OFFCURVE",
"389 422 OFFCURVE",
"434 422 CURVE SMOOTH",
"482 422 OFFCURVE",
"513 390 OFFCURVE",
"513 332 CURVE SMOOTH",
"513 278 LINE SMOOTH",
"513 220 OFFCURVE",
"482 188 OFFCURVE",
"434 188 CURVE SMOOTH"
);
}
);
width = 600;
}
);
note = infinity;
unicode = 221E;
},
{
glyphname = uni212E;
lastChange = "2017-11-24 19:34:51 +0000";
layers = (
{
layerId = "6B036DBC-DFAA-4A6A-8D11-6D1679C0E942";
paths = (
{
closed = 1;
nodes = (
"145 349 LINE",
"574 349 LINE",
"574 556 OFFCURVE",
"466 710 OFFCURVE",
"300 710 CURVE SMOOTH",
"134 710 OFFCURVE",
"26 556 OFFCURVE",
"26 349 CURVE SMOOTH",
"26 142 OFFCURVE",
"134 -12 OFFCURVE",
"300 -12 CURVE SMOOTH",
"424 -12 OFFCURVE",
"499 60 OFFCURVE",
"546 147 CURVE",
"505 170 LINE",
"462 91 OFFCURVE",
"402 34 OFFCURVE",
"300 34 CURVE SMOOTH",
"231 34 OFFCURVE",
"177 69 OFFCURVE",
"145 109 CURVE"
);
},
{
closed = 1;
nodes = (
"145 389 LINE",
"145 594 LINE",
"179 635 OFFCURVE",
"232 666 OFFCURVE",
"300 666 CURVE SMOOTH",
"368 666 OFFCURVE",
"421 635 OFFCURVE",
"455 594 CURVE",
"455 389 LINE"
);
}
);
width = 600;
}
);
note = uni212E;
unicode = 212E;
},
{
glyphname = uni2113;
lastChange = "2017-11-24 19:34:51 +0000";
layers = (
{
layerId = "6B036DBC-DFAA-4A6A-8D11-6D1679C0E942";
paths = (
{
closed = 1;
nodes = (
"421 -12 OFFCURVE",
"479 50 OFFCURVE",
"510 127 CURVE",
"452 162 LINE",
"415 94 OFFCURVE",
"384 55 OFFCURVE",
"325 55 CURVE SMOOTH",
"270 55 OFFCURVE",
"238 88 OFFCURVE",
"238 178 CURVE SMOOTH",
"238 223 LINE",
"374 343 OFFCURVE",
"448 452 OFFCURVE",
"448 585 CURVE SMOOTH",
"448 693 OFFCURVE",
"398 752 OFFCURVE",
"307 752 CURVE SMOOTH",
"219 752 OFFCURVE",
"159 698 OFFCURVE",
"159 555 CURVE SMOOTH",
"159 259 LINE",
"131 237 OFFCURVE",
"99 218 OFFCURVE",
"70 200 CURVE",
"103 146 LINE",
"123 158 OFFCURVE",
"140 169 OFFCURVE",
"159 183 CURVE",
"159 159 LINE SMOOTH",
"159 58 OFFCURVE",
"215 -12 OFFCURVE",
"321 -12 CURVE SMOOTH"
);
},
{
closed = 1;
nodes = (
"346 685 OFFCURVE",
"373 660 OFFCURVE",
"373 592 CURVE SMOOTH",
"373 575 LINE SMOOTH",
"373 485 OFFCURVE",
"325 398 OFFCURVE",
"238 309 CURVE",
"238 562 LINE SMOOTH",
"238 655 OFFCURVE",
"267 685 OFFCURVE",
"308 685 CURVE SMOOTH"
);
}
);
width = 600;
}
);
note = uni2113;
unicode = 2113;
},
{
glyphname = uni2116;
lastChange = "2017-11-24 19:34:51 +0000";
layers = (
{
layerId = "6B036DBC-DFAA-4A6A-8D11-6D1679C0E942";
paths = (
{
closed = 1;
nodes = (
"552 345 OFFCURVE",
"589 404 OFFCURVE",
"589 526 CURVE SMOOTH",
"589 647 OFFCURVE",
"552 706 OFFCURVE",
"481 706 CURVE SMOOTH",
"410 706 OFFCURVE",
"373 647 OFFCURVE",
"373 526 CURVE SMOOTH",
"373 404 OFFCURVE",
"409 345 OFFCURVE",
"481 345 CURVE SMOOTH"
);
},
{
closed = 1;
nodes = (
"111 0 LINE",
"111 608 LINE",
"117 608 LINE",
"155 349 LINE",
"206 0 LINE",
"333 0 LINE",
"333 698 LINE",
"265 698 LINE",
"265 90 LINE",
"259 90 LINE",
"221 349 LINE",
"170 698 LINE",
"43 698 LINE",
"43 0 LINE"
);
},
{
closed = 1;
nodes = (
"443 399 OFFCURVE",
"435 431 OFFCURVE",
"435 488 CURVE SMOOTH",
"435 563 LINE SMOOTH",
"435 620 OFFCURVE",
"443 652 OFFCURVE",
"481 652 CURVE SMOOTH",
"518 652 OFFCURVE",
"527 620 OFFCURVE",
"527 563 CURVE SMOOTH",
"527 488 LINE SMOOTH",
"527 431 OFFCURVE",
"518 399 OFFCURVE",
"481 399 CURVE SMOOTH"
);
},
{
closed = 1;
nodes = (
"585 256 LINE",
"585 313 LINE",
"377 313 LINE",
"377 256 LINE"
);
}
);
width = 600;
}
);
note = uni2116;
unicode = 2116;
},
{
glyphname = partialdiff;
lastChange = "2017-11-24 19:34:51 +0000";
layers = (
{
layerId = "6B036DBC-DFAA-4A6A-8D11-6D1679C0E942";
paths = (
{
closed = 1;
nodes = (
"534 530 OFFCURVE",
"376 636 OFFCURVE",
"273 698 CURVE",
"142 698 LINE",
"281 632 OFFCURVE",
"404 538 OFFCURVE",
"449 410 CURVE",
"445 408 LINE",
"412 460 OFFCURVE",
"361 504 OFFCURVE",
"279 504 CURVE SMOOTH",
"156 504 OFFCURVE",
"66 404 OFFCURVE",
"66 246 CURVE SMOOTH",
"66 89 OFFCURVE",
"154 -12 OFFCURVE",
"304 -12 CURVE SMOOTH",
"445 -12 OFFCURVE",
"534 78 OFFCURVE",
"534 272 CURVE SMOOTH"
);
},
{
closed = 1;
nodes = (
"211 57 OFFCURVE",
"151 107 OFFCURVE",
"151 211 CURVE SMOOTH",
"151 281 LINE SMOOTH",
"151 385 OFFCURVE",
"211 435 OFFCURVE",
"300 435 CURVE SMOOTH",
"389 435 OFFCURVE",
"449 385 OFFCURVE",
"449 281 CURVE SMOOTH",
"449 211 LINE SMOOTH",
"449 107 OFFCURVE",
"389 57 OFFCURVE",
"300 57 CURVE SMOOTH"
);
}
);
width = 600;
}
);
note = partialdiff;
unicode = 2202;
},
{
glyphname = cent;
lastChange = "2017-11-24 19:34:51 +0000";
layers = (
{
layerId = "6B036DBC-DFAA-4A6A-8D11-6D1679C0E942";
paths = (
{
closed = 1;
nodes = (
"341 -114 LINE",
"341 -11 LINE",
"431 -4 OFFCURVE",
"488 44 OFFCURVE",
"516 108 CURVE",
"459 147 LINE",
"436 97 OFFCURVE",
"397 64 OFFCURVE",
"340 58 CURVE",
"340 458 LINE",
"392 451 OFFCURVE",
"427 421 OFFCURVE",
"444 375 CURVE",
"508 409 LINE",
"481 473 OFFCURVE",
"427 520 OFFCURVE",
"341 527 CURVE",
"341 630 LINE",
"279 630 LINE",
"279 525 LINE",
"156 508 OFFCURVE",
"84 407 OFFCURVE",
"84 258 CURVE SMOOTH",
"84 110 OFFCURVE",
"155 8 OFFCURVE",
"279 -9 CURVE",
"279 -114 LINE"
);
},
{
closed = 1;
nodes = (
"170 302 LINE SMOOTH",
"170 380 OFFCURVE",
"209 440 OFFCURVE",
"280 455 CURVE",
"280 61 LINE",
"208 76 OFFCURVE",
"170 136 OFFCURVE",
"170 214 CURVE SMOOTH"
);
}
);
width = 600;
}
);
note = cent;
unicode = 00A2;
},
{
glyphname = Euro;
lastChange = "2017-11-24 19:34:51 +0000";
layers = (
{
layerId = "6B036DBC-DFAA-4A6A-8D11-6D1679C0E942";
paths = (
{
closed = 1;
nodes = (
"451 -12 OFFCURVE",
"504 65 OFFCURVE",
"538 141 CURVE",
"468 173 LINE",
"443 110 OFFCURVE",
"409 59 OFFCURVE",
"323 59 CURVE SMOOTH",
"227 59 OFFCURVE",
"174 126 OFFCURVE",
"160 234 CURVE",
"388 234 LINE",
"388 303 LINE",
"157 303 LINE",
"157 395 LINE",
"388 395 LINE",
"388 464 LINE",
"160 464 LINE",
"174 572 OFFCURVE",
"227 639 OFFCURVE",
"323 639 CURVE SMOOTH",
"409 639 OFFCURVE",
"443 588 OFFCURVE",
"468 525 CURVE",
"538 557 LINE",
"504 633 OFFCURVE",
"451 710 OFFCURVE",
"323 710 CURVE SMOOTH",
"153 710 OFFCURVE",
"70 581 OFFCURVE",
"70 349 CURVE SMOOTH",
"70 117 OFFCURVE",
"153 -12 OFFCURVE",
"323 -12 CURVE SMOOTH"
);
}
);
width = 600;
}
);
note = Euro;
unicode = 20AC;
},
{
glyphname = florin;
lastChange = "2017-11-24 19:34:51 +0000";
layers = (
{
layerId = "6B036DBC-DFAA-4A6A-8D11-6D1679C0E942";
paths = (
{
closed = 1;
nodes = (
"-43 -200 LINE",
"139 -200 LINE SMOOTH",
"217 -200 OFFCURVE",
"255 -156 OFFCURVE",
"267 -87 CURVE SMOOTH",
"343 370 LINE",
"528 370 LINE",
"539 438 LINE",
"354 438 LINE",
"386 629 LINE",
"598 629 LINE",
"610 698 LINE",
"427 698 LINE SMOOTH",
"349 698 OFFCURVE",
"311 654 OFFCURVE",
"299 585 CURVE SMOOTH",
"275 438 LINE",
"89 438 LINE",
"78 370 LINE",
"263 370 LINE",
"180 -132 LINE",
"-31 -132 LINE"
);
}
);
width = 600;
}
);
note = florin;
unicode = 0192;
},
{
glyphname = sterling;
lastChange = "2017-11-24 19:34:51 +0000";
layers = (
{
layerId = "6B036DBC-DFAA-4A6A-8D11-6D1679C0E942";
paths = (
{
closed = 1;
nodes = (
"538 0 LINE",
"538 80 LINE",
"154 80 LINE",
"154 85 LINE",
"192 110 OFFCURVE",
"236 165 OFFCURVE",
"236 247 CURVE SMOOTH",
"236 261 OFFCURVE",
"235 273 OFFCURVE",
"233 286 CURVE",
"415 286 LINE",
"415 355 LINE",
"214 355 LINE",
"200 397 OFFCURVE",
"184 440 OFFCURVE",
"184 494 CURVE SMOOTH",
"184 596 OFFCURVE",
"240 637 OFFCURVE",
"327 637 CURVE SMOOTH",
"403 637 OFFCURVE",
"450 605 OFFCURVE",
"487 551 CURVE",
"550 596 LINE",
"506 664 OFFCURVE",
"438 710 OFFCURVE",
"332 710 CURVE SMOOTH",
"187 710 OFFCURVE",
"98 623 OFFCURVE",
"98 499 CURVE SMOOTH",
"98 444 OFFCURVE",
"115 400 OFFCURVE",
"130 355 CURVE",
"52 355 LINE",
"52 286 LINE",
"149 286 LINE",
"152 270 OFFCURVE",
"154 254 OFFCURVE",
"154 237 CURVE SMOOTH",
"154 175 OFFCURVE",
"131 128 OFFCURVE",
"75 105 CURVE",
"75 0 LINE"
);
}
);
width = 600;
}
);
note = sterling;
unicode = 00A3;
},
{
glyphname = dollar;
lastChange = "2017-11-24 19:34:51 +0000";
layers = (
{
layerId = "6B036DBC-DFAA-4A6A-8D11-6D1679C0E942";
paths = (
{
closed = 1;
nodes = (
"279 -113 LINE",
"341 -113 LINE",
"341 -11 LINE",
"476 0 OFFCURVE",
"552 75 OFFCURVE",
"552 191 CURVE SMOOTH",
"552 285 OFFCURVE",
"507 363 OFFCURVE",
"370 386 CURVE SMOOTH",
"340 391 LINE",
"340 636 LINE",
"406 629 OFFCURVE",
"450 599 OFFCURVE",
"486 551 CURVE",
"549 596 LINE",
"499 664 OFFCURVE",
"433 702 OFFCURVE",
"341 709 CURVE",
"341 811 LINE",
"279 811 LINE",
"279 709 LINE",
"153 700 OFFCURVE",
"75 632 OFFCURVE",
"75 520 CURVE SMOOTH",
"75 429 OFFCURVE",
"119 349 OFFCURVE",
"257 326 CURVE SMOOTH",
"280 322 LINE",
"280 61 LINE",
"210 68 OFFCURVE",
"159 101 OFFCURVE",
"111 161 CURVE",
"50 111 LINE",
"98 44 OFFCURVE",
"168 -4 OFFCURVE",
"279 -11 CURVE"
);
},
{
closed = 1;
nodes = (
"156 589 OFFCURVE",
"201 629 OFFCURVE",
"280 637 CURVE",
"280 401 LINE",
"191 419 OFFCURVE",
"156 455 OFFCURVE",
"156 520 CURVE SMOOTH"
);
},
{
closed = 1;
nodes = (
"471 117 OFFCURVE",
"424 71 OFFCURVE",
"340 62 CURVE",
"340 312 LINE",
"433 296 OFFCURVE",
"471 261 OFFCURVE",
"471 190 CURVE SMOOTH"
);
}
);
width = 600;
}
);
note = dollar;
unicode = 0024;
},
{
glyphname = yen;
lastChange = "2017-11-24 19:34:51 +0000";
layers = (
{
layerId = "6B036DBC-DFAA-4A6A-8D11-6D1679C0E942";
paths = (
{
closed = 1;
nodes = (
"75 0 LINE",
"525 0 LINE",
"525 69 LINE",
"340 69 LINE",
"340 255 LINE",
"525 255 LINE",
"525 324 LINE",
"384 324 LINE",
"578 698 LINE",
"487 698 LINE",
"303 324 LINE",
"299 324 LINE",
"115 698 LINE",
"22 698 LINE",
"216 324 LINE",
"75 324 LINE",
"75 255 LINE",
"260 255 LINE",
"260 69 LINE",
"75 69 LINE"
);
}
);
width = 600;
}
);
note = yen;
unicode = 00A5;
},
{
glyphname = uni0E3F;
lastChange = "2017-11-24 19:34:51 +0000";
layers = (
{
layerId = "6B036DBC-DFAA-4A6A-8D11-6D1679C0E942";
paths = (
{
closed = 1;
nodes = (
"326 0 LINE",
"350 0 LINE SMOOTH",
"458 0 OFFCURVE",
"538 88 OFFCURVE",
"538 201 CURVE SMOOTH",
"538 294 OFFCURVE",
"483 339 OFFCURVE",
"413 361 CURVE",
"413 364 LINE",
"478 385 OFFCURVE",
"526 429 OFFCURVE",
"526 518 CURVE SMOOTH",
"526 627 OFFCURVE",
"453 698 OFFCURVE",
"334 698 CURVE SMOOTH",
"326 698 LINE",
"326 811 LINE",
"264 811 LINE",
"264 698 LINE",
"88 698 LINE",
"88 0 LINE",
"264 0 LINE",
"264 -113 LINE",
"326 -113 LINE"
);
},
{
closed = 1;
nodes = (
"170 394 LINE",
"170 627 LINE",
"265 627 LINE",
"265 394 LINE"
);
},
{
closed = 1;
nodes = (
"325 627 LINE",
"401 627 OFFCURVE",
"442 594 OFFCURVE",
"442 530 CURVE SMOOTH",
"442 489 LINE SMOOTH",
"442 425 OFFCURVE",
"401 394 OFFCURVE",
"325 394 CURVE"
);
},
{
closed = 1;
nodes = (
"170 71 LINE",
"170 327 LINE",
"265 327 LINE",
"265 71 LINE"
);
},
{
closed = 1;
nodes = (
"325 327 LINE",
"408 327 OFFCURVE",
"453 291 OFFCURVE",
"453 221 CURVE SMOOTH",
"453 177 LINE SMOOTH",
"453 106 OFFCURVE",
"408 71 OFFCURVE",
"325 71 CURVE"
);
}
);
width = 600;
}
);
note = uni0E3F;
unicode = 0E3F;
},
{
glyphname = uni20A1;
lastChange = "2017-11-24 19:34:51 +0000";
layers = (
{
layerId = "6B036DBC-DFAA-4A6A-8D11-6D1679C0E942";
paths = (
{
closed = 1;
nodes = (
"285 -113 LINE",
"347 -113 LINE",
"358 -10 LINE",
"461 3 OFFCURVE",
"507 72 OFFCURVE",
"538 141 CURVE",
"470 172 LINE",
"449 120 OFFCURVE",
"422 75 OFFCURVE",
"363 61 CURVE",
"421 606 LINE",
"443 586 OFFCURVE",
"458 558 OFFCURVE",
"470 527 CURVE",
"538 557 LINE",
"516 607 OFFCURVE",
"485 657 OFFCURVE",
"431 686 CURVE",
"444 811 LINE",
"382 811 LINE",
"371 706 LINE",
"357 709 OFFCURVE",
"340 710 OFFCURVE",
"323 710 CURVE SMOOTH",
"313 710 LINE",
"324 811 LINE",
"262 811 LINE",
"250 701 LINE",
"129 668 OFFCURVE",
"70 545 OFFCURVE",
"70 349 CURVE SMOOTH",
"70 196 OFFCURVE",
"106 88 OFFCURVE",
"180 32 CURVE",
"165 -113 LINE",
"227 -113 LINE",
"239 1 LINE",
"256 -5 OFFCURVE",
"275 -9 OFFCURVE",
"296 -11 CURVE"
);
},
{
closed = 1;
nodes = (
"339 641 OFFCURVE",
"353 639 OFFCURVE",
"366 636 CURVE",
"305 58 LINE",
"282 60 OFFCURVE",
"262 66 OFFCURVE",
"245 76 CURVE",
"304 640 LINE",
"310 641 OFFCURVE",
"316 641 OFFCURVE",
"323 641 CURVE SMOOTH"
);
},
{
closed = 1;
nodes = (
"153 406 LINE SMOOTH",
"153 511 OFFCURVE",
"183 588 OFFCURVE",
"244 622 CURVE",
"192 126 LINE",
"166 167 OFFCURVE",
"153 223 OFFCURVE",
"153 292 CURVE SMOOTH"
);
}
);
width = 600;
}
);
note = uni20A1;
unicode = 20A1;
},
{
glyphname = uni20A4;
lastChange = "2017-11-24 19:34:51 +0000";
layers = (
{
layerId = "6B036DBC-DFAA-4A6A-8D11-6D1679C0E942";
paths = (
{
closed = 1;
nodes = (
"538 80 LINE",
"154 80 LINE",
"154 85 LINE",
"186 106 OFFCURVE",
"222 148 OFFCURVE",
"233 209 CURVE",
"415 209 LINE",
"415 274 LINE",
"234 274 LINE",
"231 303 OFFCURVE",
"222 329 OFFCURVE",
"213 356 CURVE",
"415 356 LINE",
"415 421 LINE",
"193 421 LINE",
"188 444 OFFCURVE",
"184 467 OFFCURVE",
"184 494 CURVE SMOOTH",
"184 596 OFFCURVE",
"240 637 OFFCURVE",
"327 637 CURVE SMOOTH",
"403 637 OFFCURVE",
"450 605 OFFCURVE",
"487 551 CURVE",
"550 596 LINE",
"506 664 OFFCURVE",
"438 710 OFFCURVE",
"332 710 CURVE SMOOTH",
"187 710 OFFCURVE",
"98 623 OFFCURVE",
"98 499 CURVE SMOOTH",
"98 471 OFFCURVE",
"103 445 OFFCURVE",
"109 421 CURVE",
"52 421 LINE",
"52 356 LINE",
"130 356 LINE",
"139 330 OFFCURVE",
"147 303 OFFCURVE",
"151 274 CURVE",
"52 274 LINE",
"52 209 LINE",
"152 209 LINE",
"146 161 OFFCURVE",
"122 124 OFFCURVE",
"75 105 CURVE",
"75 0 LINE",
"538 0 LINE"
);
}
);
width = 600;
}
);
note = uni20A4;
unicode = 20A4;
},
{
glyphname = uni20A6;
lastChange = "2017-11-24 19:34:51 +0000";
layers = (
{
layerId = "6B036DBC-DFAA-4A6A-8D11-6D1679C0E942";
paths = (
{
closed = 1;
nodes = (
"383 0 LINE",
"508 0 LINE",
"508 244 LINE",
"573 244 LINE",
"573 309 LINE",
"508 309 LINE",
"508 389 LINE",
"573 389 LINE",
"573 454 LINE",
"508 454 LINE",
"508 698 LINE",
"438 698 LINE",
"438 450 LINE",
"302 450 LINE",
"217 698 LINE",
"92 698 LINE",
"92 454 LINE",
"27 454 LINE",
"27 389 LINE",
"92 389 LINE",
"92 309 LINE",
"27 309 LINE",
"27 244 LINE",
"92 244 LINE",
"92 0 LINE",
"162 0 LINE",
"162 248 LINE",
"298 248 LINE"
);
},
{
closed = 1;
nodes = (
"162 304 LINE",
"162 622 LINE",
"169 622 LINE",
"278 304 LINE"
);
},
{
closed = 1;
nodes = (
"322 394 LINE",
"438 394 LINE",
"438 76 LINE",
"431 76 LINE"
);
}
);
width = 600;
}
);
note = uni20A6;
unicode = 20A6;
},
{
glyphname = uni20A8;
lastChange = "2017-11-24 19:34:51 +0000";
layers = (
{
layerId = "6B036DBC-DFAA-4A6A-8D11-6D1679C0E942";
paths = (
{
closed = 1;
nodes = (
"129 0 LINE",
"129 322 LINE",
"173 322 LINE",
"266 93 LINE SMOOTH",
"298 15 OFFCURVE",
"354 -12 OFFCURVE",
"431 -12 CURVE SMOOTH",
"539 -12 OFFCURVE",
"589 42 OFFCURVE",
"589 121 CURVE SMOOTH",
"589 187 OFFCURVE",
"554 217 OFFCURVE",
"511 260 CURVE SMOOTH",
"496 275 LINE SMOOTH",
"457 314 OFFCURVE",
"442 331 OFFCURVE",
"442 361 CURVE SMOOTH",
"442 393 OFFCURVE",
"460 412 OFFCURVE",
"493 412 CURVE SMOOTH",
"516 412 OFFCURVE",
"536 403 OFFCURVE",
"553 390 CURVE",
"585 444 LINE",
"555 467 OFFCURVE",
"522 476 OFFCURVE",
"489 476 CURVE SMOOTH",
"411 476 OFFCURVE",
"367 426 OFFCURVE",
"367 361 CURVE SMOOTH",
"367 306 OFFCURVE",
"399 268 OFFCURVE",
"441 226 CURVE SMOOTH",
"460 207 LINE SMOOTH",
"494 173 OFFCURVE",
"514 159 OFFCURVE",
"514 121 CURVE SMOOTH",
"514 77 OFFCURVE",
"486 55 OFFCURVE",
"438 55 CURVE SMOOTH",
"388 55 OFFCURVE",
"360 78 OFFCURVE",
"338 130 CURVE SMOOTH",
"250 338 LINE",
"321 361 OFFCURVE",
"350 421 OFFCURVE",
"350 511 CURVE SMOOTH",
"350 630 OFFCURVE",
"300 698 OFFCURVE",
"178 698 CURVE SMOOTH",
"49 698 LINE",
"49 0 LINE"
);
},
{
closed = 1;
nodes = (
"129 392 LINE",
"129 626 LINE",
"171 626 LINE SMOOTH",
"238 626 OFFCURVE",
"268 593 OFFCURVE",
"268 532 CURVE SMOOTH",
"268 486 LINE SMOOTH",
"268 425 OFFCURVE",
"238 392 OFFCURVE",
"171 392 CURVE SMOOTH"
);
}
);
width = 600;
}
);
note = uni20A8;
unicode = 20A8;
},
{
glyphname = uni20A9;
lastChange = "2017-11-24 19:34:51 +0000";
layers = (
{
layerId = "6B036DBC-DFAA-4A6A-8D11-6D1679C0E942";
paths = (
{
closed = 1;
nodes = (
"97 0 LINE",
"227 0 LINE",
"292 404 LINE",
"308 404 LINE",
"373 0 LINE",
"503 0 LINE",
"511 248 LINE",
"574 248 LINE",
"574 313 LINE",
"513 313 LINE",
"516 399 LINE",
"574 399 LINE",
"574 464 LINE",
"518 464 LINE",
"525 698 LINE",
"452 698 LINE",
"449 459 LINE",
"153 459 LINE",
"150 698 LINE",
"75 698 LINE",
"82 464 LINE",
"26 464 LINE",
"26 399 LINE",
"84 399 LINE",
"87 313 LINE",
"26 313 LINE",
"26 248 LINE",
"89 248 LINE"
);
},
{
closed = 1;
nodes = (
"160 74 LINE",
"154 404 LINE",
"231 404 LINE",
"177 74 LINE"
);
},
{
closed = 1;
nodes = (
"425 74 LINE",
"371 404 LINE",
"448 404 LINE",
"442 74 LINE"
);
}
);
width = 600;
}
);
note = uni20A9;
unicode = 20A9;
},
{
glyphname = uni20AA;
lastChange = "2017-11-24 19:34:51 +0000";
layers = (
{
layerId = "6B036DBC-DFAA-4A6A-8D11-6D1679C0E942";
paths = (
{
closed = 1;
nodes = (
"196 0 LINE",
"356 0 LINE SMOOTH",
"466 0 OFFCURVE",
"545 65 OFFCURVE",
"545 198 CURVE SMOOTH",
"545 698 LINE",
"468 698 LINE",
"468 182 LINE SMOOTH",
"468 94 OFFCURVE",
"412 64 OFFCURVE",
"356 64 CURVE SMOOTH",
"272 64 LINE",
"272 551 LINE",
"196 551 LINE"
);
},
{
closed = 1;
nodes = (
"136 0 LINE",
"136 634 LINE",
"221 634 LINE SMOOTH",
"277 634 OFFCURVE",
"332 604 OFFCURVE",
"332 516 CURVE SMOOTH",
"332 147 LINE",
"408 147 LINE",
"408 500 LINE SMOOTH",
"408 633 OFFCURVE",
"331 698 OFFCURVE",
"221 698 CURVE SMOOTH",
"59 698 LINE",
"59 0 LINE"
);
}
);
width = 600;
}
);
note = uni20AA;
unicode = 20AA;
},
{
glyphname = uni20AB;
lastChange = "2017-11-24 19:34:51 +0000";
layers = (
{
layerId = "6B036DBC-DFAA-4A6A-8D11-6D1679C0E942";
paths = (
{
closed = 1;
nodes = (
"411 139 LINE",
"487 139 LINE",
"487 619 LINE",
"556 619 LINE",
"556 680 LINE",
"487 680 LINE",
"487 740 LINE",
"411 740 LINE",
"411 680 LINE",
"258 680 LINE",
"258 619 LINE",
"411 619 LINE",
"411 483 LINE",
"407 483 LINE",
"378 533 OFFCURVE",
"330 561 OFFCURVE",
"264 561 CURVE SMOOTH",
"152 561 OFFCURVE",
"83 484 OFFCURVE",
"83 345 CURVE SMOOTH",
"83 207 OFFCURVE",
"152 130 OFFCURVE",
"264 130 CURVE SMOOTH",
"330 130 OFFCURVE",
"378 158 OFFCURVE",
"407 208 CURVE",
"411 208 LINE"
);
},
{
closed = 1;
nodes = (
"212 194 OFFCURVE",
"164 240 OFFCURVE",
"164 311 CURVE SMOOTH",
"164 380 LINE SMOOTH",
"164 451 OFFCURVE",
"212 497 OFFCURVE",
"294 497 CURVE SMOOTH",
"357 497 OFFCURVE",
"411 460 OFFCURVE",
"411 405 CURVE SMOOTH",
"411 286 LINE SMOOTH",
"411 230 OFFCURVE",
"357 194 OFFCURVE",
"294 194 CURVE SMOOTH"
);
},
{
closed = 1;
nodes = (
"518 0 LINE",
"518 68 LINE",
"82 68 LINE",
"82 0 LINE"
);
}
);
width = 600;
}
);
note = uni20AB;
unicode = 20AB;
},
{
glyphname = uni20AD;
lastChange = "2017-11-24 19:34:51 +0000";
layers = (
{
layerId = "6B036DBC-DFAA-4A6A-8D11-6D1679C0E942";
paths = (
{
closed = 1;
nodes = (
"184 327 LINE",
"240 327 LINE",
"460 0 LINE",
"562 0 LINE",
"337 327 LINE",
"546 327 LINE",
"546 396 LINE",
"330 396 LINE",
"546 698 LINE",
"451 698 LINE",
"238 396 LINE",
"184 396 LINE",
"184 698 LINE",
"100 698 LINE",
"100 396 LINE",
"28 396 LINE",
"28 327 LINE",
"100 327 LINE",
"100 0 LINE",
"184 0 LINE"
);
}
);
width = 600;
}
);
note = uni20AD;
unicode = 20AD;
},
{
glyphname = uni20AE;
lastChange = "2017-11-24 19:34:51 +0000";
layers = (
{
layerId = "6B036DBC-DFAA-4A6A-8D11-6D1679C0E942";
paths = (
{
closed = 1;
nodes = (
"483 282 LINE",
"483 351 LINE",
"343 286 LINE",
"343 377 LINE",
"483 442 LINE",
"483 511 LINE",
"343 446 LINE",
"343 625 LINE",
"575 625 LINE",
"575 698 LINE",
"26 698 LINE",
"26 625 LINE",
"258 625 LINE",
"258 406 LINE",
"118 341 LINE",
"118 272 LINE",
"258 337 LINE",
"258 246 LINE",
"118 181 LINE",
"118 112 LINE",
"258 177 LINE",
"258 0 LINE",
"343 0 LINE",
"343 217 LINE"
);
}
);
width = 600;
}
);
note = uni20AE;
unicode = 20AE;
},
{
glyphname = uni20B1;
lastChange = "2017-11-24 19:34:51 +0000";
layers = (
{
layerId = "6B036DBC-DFAA-4A6A-8D11-6D1679C0E942";
paths = (
{
closed = 1;
nodes = (
"165 194 LINE",
"324 194 LINE SMOOTH",
"428 194 OFFCURVE",
"485 249 OFFCURVE",
"507 341 CURVE",
"574 341 LINE",
"574 406 LINE",
"517 406 LINE",
"518 419 OFFCURVE",
"518 432 OFFCURVE",
"518 446 CURVE SMOOTH",
"518 460 OFFCURVE",
"518 473 OFFCURVE",
"517 486 CURVE",
"574 486 LINE",
"574 551 LINE",
"507 551 LINE",
"485 643 OFFCURVE",
"428 698 OFFCURVE",
"324 698 CURVE SMOOTH",
"83 698 LINE",
"83 551 LINE",
"28 551 LINE",
"28 486 LINE",
"83 486 LINE",
"83 406 LINE",
"28 406 LINE",
"28 341 LINE",
"83 341 LINE",
"83 0 LINE",
"165 0 LINE"
);
},
{
closed = 1;
nodes = (
"165 629 LINE",
"322 629 LINE SMOOTH",
"384 629 OFFCURVE",
"420 600 OFFCURVE",
"432 549 CURVE",
"165 549 LINE"
);
},
{
closed = 1;
nodes = (
"165 404 LINE",
"165 488 LINE",
"436 488 LINE",
"436 404 LINE"
);
},
{
closed = 1;
nodes = (
"165 263 LINE",
"165 343 LINE",
"432 343 LINE",
"420 292 OFFCURVE",
"384 263 OFFCURVE",
"322 263 CURVE SMOOTH"
);
}
);
width = 600;
}
);
note = uni20B1;
unicode = 20B1;
},
{
glyphname = uni20B2;
lastChange = "2017-11-24 19:34:51 +0000";
layers = (
{
layerId = "6B036DBC-DFAA-4A6A-8D11-6D1679C0E942";
paths = (
{
closed = 1;
nodes = (
"189 -113 LINE",
"252 -113 LINE",
"270 -10 LINE",
"281 -11 OFFCURVE",
"292 -12 OFFCURVE",
"304 -12 CURVE SMOOTH",
"454 -12 OFFCURVE",
"522 95 OFFCURVE",
"522 244 CURVE SMOOTH",
"522 345 LINE",
"332 345 LINE",
"381 625 LINE",
"419 605 OFFCURVE",
"439 568 OFFCURVE",
"456 527 CURVE",
"524 557 LINE",
"499 613 OFFCURVE",
"464 670 OFFCURVE",
"395 696 CURVE",
"415 811 LINE",
"352 811 LINE",
"334 709 LINE",
"326 710 OFFCURVE",
"317 710 OFFCURVE",
"308 710 CURVE SMOOTH",
"140 710 OFFCURVE",
"56 582 OFFCURVE",
"56 349 CURVE SMOOTH",
"56 166 OFFCURVE",
"108 48 OFFCURVE",
"210 5 CURVE"
);
},
{
closed = 1;
nodes = (
"223 78 LINE",
"168 114 OFFCURVE",
"139 190 OFFCURVE",
"139 292 CURVE SMOOTH",
"139 406 LINE SMOOTH",
"139 549 OFFCURVE",
"195 641 OFFCURVE",
"309 641 CURVE SMOOTH",
"314 641 OFFCURVE",
"319 641 OFFCURVE",
"323 640 CURVE"
);
},
{
closed = 1;
nodes = (
"297 55 OFFCURVE",
"288 56 OFFCURVE",
"281 57 CURVE",
"320 280 LINE",
"446 280 LINE",
"446 228 LINE SMOOTH",
"446 120 OFFCURVE",
"395 55 OFFCURVE",
"305 55 CURVE SMOOTH"
);
}
);
width = 600;
}
);
note = uni20B2;
unicode = 20B2;
},
{
glyphname = uni20B4;
lastChange = "2017-11-24 19:34:51 +0000";
layers = (
{
layerId = "6B036DBC-DFAA-4A6A-8D11-6D1679C0E942";
paths = (
{
closed = 1;
nodes = (
"387 -12 OFFCURVE",
"466 22 OFFCURVE",
"520 85 CURVE",
"469 136 LINE",
"414 79 OFFCURVE",
"363 58 OFFCURVE",
"309 58 CURVE SMOOTH",
"230 58 OFFCURVE",
"183 103 OFFCURVE",
"183 180 CURVE SMOOTH",
"183 211 OFFCURVE",
"191 234 OFFCURVE",
"206 254 CURVE",
"573 254 LINE",
"573 319 LINE",
"281 319 LINE",
"281 322 LINE",
"425 409 LINE",
"573 409 LINE",
"573 474 LINE",
"476 474 LINE",
"484 491 OFFCURVE",
"490 511 OFFCURVE",
"490 540 CURVE SMOOTH",
"490 643 OFFCURVE",
"413 710 OFFCURVE",
"298 710 CURVE SMOOTH",
"227 710 OFFCURVE",
"155 685 OFFCURVE",
"98 624 CURVE",
"151 575 LINE",
"192 622 OFFCURVE",
"241 640 OFFCURVE",
"291 640 CURVE SMOOTH",
"365 640 OFFCURVE",
"409 602 OFFCURVE",
"409 531 CURVE SMOOTH",
"409 507 OFFCURVE",
"404 490 OFFCURVE",
"394 474 CURVE",
"27 474 LINE",
"27 409 LINE",
"316 409 LINE",
"316 406 LINE",
"172 319 LINE",
"27 319 LINE",
"27 254 LINE",
"121 254 LINE",
"111 233 OFFCURVE",
"102 208 OFFCURVE",
"102 172 CURVE SMOOTH",
"102 66 OFFCURVE",
"179 -12 OFFCURVE",
"304 -12 CURVE SMOOTH"
);
}
);
width = 600;
}
);
note = uni20B4;
unicode = 20B4;
},
{
glyphname = uni20B5;
lastChange = "2017-11-24 19:34:51 +0000";
layers = (
{
layerId = "6B036DBC-DFAA-4A6A-8D11-6D1679C0E942";
paths = (
{
closed = 1;
nodes = (
"194 -113 LINE",
"257 -113 LINE",
"276 -8 LINE",
"291 -11 OFFCURVE",
"306 -12 OFFCURVE",
"323 -12 CURVE SMOOTH",
"451 -12 OFFCURVE",
"504 65 OFFCURVE",
"538 141 CURVE",
"470 172 LINE",
"445 110 OFFCURVE",
"411 57 OFFCURVE",
"323 57 CURVE SMOOTH",
"310 57 OFFCURVE",
"298 58 OFFCURVE",
"286 61 CURVE",
"387 629 LINE",
"430 610 OFFCURVE",
"452 571 OFFCURVE",
"470 527 CURVE",
"538 557 LINE",
"512 616 OFFCURVE",
"474 675 OFFCURVE",
"400 699 CURVE",
"420 811 LINE",
"357 811 LINE",
"339 710 LINE",
"323 710 LINE SMOOTH",
"153 710 OFFCURVE",
"70 581 OFFCURVE",
"70 349 CURVE SMOOTH",
"70 172 OFFCURVE",
"118 55 OFFCURVE",
"216 10 CURVE"
);
},
{
closed = 1;
nodes = (
"230 85 LINE",
"178 123 OFFCURVE",
"153 196 OFFCURVE",
"153 292 CURVE SMOOTH",
"153 406 LINE SMOOTH",
"153 549 OFFCURVE",
"207 641 OFFCURVE",
"328 641 CURVE"
);
}
);
width = 600;
}
);
note = uni20B5;
unicode = 20B5;
},
{
glyphname = uni20B8;
lastChange = "2017-11-24 19:34:51 +0000";
layers = (
{
layerId = "6B036DBC-DFAA-4A6A-8D11-6D1679C0E942";
paths = (
{
closed = 1;
nodes = (
"555 629 LINE",
"555 698 LINE",
"45 698 LINE",
"45 629 LINE"
);
},
{
closed = 1;
nodes = (
"555 470 LINE",
"555 539 LINE",
"45 539 LINE",
"45 470 LINE",
"258 470 LINE",
"258 0 LINE",
"342 0 LINE",
"342 470 LINE"
);
}
);
width = 600;
}
);
note = uni20B8;
unicode = 20B8;
},
{
glyphname = uni20B9;
lastChange = "2017-11-24 19:34:51 +0000";
layers = (
{
layerId = "6B036DBC-DFAA-4A6A-8D11-6D1679C0E942";
paths = (
{
closed = 1;
nodes = (
"506 0 LINE",
"279 296 LINE",
"372 314 OFFCURVE",
"428 382 OFFCURVE",
"434 470 CURVE",
"554 470 LINE",
"554 539 LINE",
"428 539 LINE",
"416 587 OFFCURVE",
"389 612 OFFCURVE",
"363 624 CURVE",
"363 629 LINE",
"554 629 LINE",
"554 698 LINE",
"56 698 LINE",
"56 629 LINE",
"228 629 LINE SMOOTH",
"293 629 OFFCURVE",
"343 596 OFFCURVE",
"349 539 CURVE",
"56 539 LINE",
"56 470 LINE",
"352 470 LINE",
"352 396 OFFCURVE",
"301 360 OFFCURVE",
"228 360 CURVE SMOOTH",
"56 360 LINE",
"56 291 LINE",
"181 291 LINE",
"403 0 LINE"
);
}
);
width = 600;
}
);
note = uni20B9;
unicode = 20B9;
},
{
glyphname = uni20BA;
lastChange = "2017-11-24 19:34:51 +0000";
layers = (
{
layerId = "6B036DBC-DFAA-4A6A-8D11-6D1679C0E942";
paths = (
{
closed = 1;
nodes = (
"155 0 LINE",
"296 0 LINE SMOOTH",
"467 0 OFFCURVE",
"554 135 OFFCURVE",
"554 305 CURVE",
"472 305 LINE",
"472 163 OFFCURVE",
"404 73 OFFCURVE",
"291 73 CURVE SMOOTH",
"239 73 LINE",
"239 286 LINE",
"421 371 LINE",
"421 440 LINE",
"239 355 LINE",
"239 446 LINE",
"421 531 LINE",
"421 600 LINE",
"239 515 LINE",
"239 698 LINE",
"155 698 LINE",
"155 476 LINE",
"56 430 LINE",
"56 361 LINE",
"155 407 LINE",
"155 316 LINE",
"56 270 LINE",
"56 201 LINE",
"155 247 LINE"
);
}
);
width = 600;
}
);
note = uni20BA;
unicode = 20BA;
},
{
glyphname = uni20BD;
lastChange = "2017-11-24 19:34:51 +0000";
layers = (
{
layerId = "6B036DBC-DFAA-4A6A-8D11-6D1679C0E942";
paths = (
{
closed = 1;
nodes = (
"439 134 LINE",
"439 203 LINE",
"212 203 LINE",
"212 294 LINE",
"355 294 LINE SMOOTH",
"484 294 OFFCURVE",
"555 367 OFFCURVE",
"555 494 CURVE SMOOTH",
"555 621 OFFCURVE",
"485 698 OFFCURVE",
"356 698 CURVE SMOOTH",
"128 698 LINE",
"128 363 LINE",
"45 363 LINE",
"45 294 LINE",
"128 294 LINE",
"128 203 LINE",
"45 203 LINE",
"45 134 LINE",
"128 134 LINE",
"128 0 LINE",
"212 0 LINE",
"212 134 LINE"
);
},
{
closed = 1;
nodes = (
"212 625 LINE",
"356 625 LINE SMOOTH",
"426 625 OFFCURVE",
"468 589 OFFCURVE",
"468 525 CURVE SMOOTH",
"468 463 LINE SMOOTH",
"468 399 OFFCURVE",
"426 363 OFFCURVE",
"356 363 CURVE SMOOTH",
"212 363 LINE"
);
}
);
width = 600;
}
);
note = uni20BD;
unicode = 20BD;
},
{
glyphname = uni20BF;
lastChange = "2017-11-24 19:34:51 +0000";
layers = (
{
layerId = "6B036DBC-DFAA-4A6A-8D11-6D1679C0E942";
paths = (
{
closed = 1;
nodes = (
"319 -113 LINE",
"381 -113 LINE",
"381 2 LINE",
"476 15 OFFCURVE",
"543 97 OFFCURVE",
"543 201 CURVE SMOOTH",
"543 296 OFFCURVE",
"489 346 OFFCURVE",
"408 365 CURVE",
"408 368 LINE",
"474 390 OFFCURVE",
"517 436 OFFCURVE",
"517 518 CURVE SMOOTH",
"517 609 OFFCURVE",
"466 673 OFFCURVE",
"381 692 CURVE",
"381 811 LINE",
"319 811 LINE",
"319 698 LINE",
"250 698 LINE",
"250 811 LINE",
"188 811 LINE",
"188 698 LINE",
"88 698 LINE",
"88 0 LINE",
"188 0 LINE",
"188 -113 LINE",
"250 -113 LINE",
"250 0 LINE",
"319 0 LINE"
);
},
{
closed = 1;
nodes = (
"172 626 LINE",
"317 626 LINE SMOOTH",
"387 626 OFFCURVE",
"429 593 OFFCURVE",
"429 529 CURVE SMOOTH",
"429 490 LINE SMOOTH",
"429 426 OFFCURVE",
"387 395 OFFCURVE",
"317 395 CURVE SMOOTH",
"172 395 LINE"
);
},
{
closed = 1;
nodes = (
"172 326 LINE",
"331 326 LINE SMOOTH",
"408 326 OFFCURVE",
"454 290 OFFCURVE",
"454 220 CURVE SMOOTH",
"454 179 LINE SMOOTH",
"454 108 OFFCURVE",
"408 72 OFFCURVE",
"331 72 CURVE SMOOTH",
"172 72 LINE"
);
}
);
width = 600;
}
);
note = uni20BF;
unicode = 20BF;
},
{
glyphname = fi;
lastChange = "2017-11-24 19:34:51 +0000";
layers = (
{
layerId = "6B036DBC-DFAA-4A6A-8D11-6D1679C0E942";
paths = (
{
closed = 1;
nodes = (
"108 0 LINE",
"188 0 LINE",
"188 448 LINE",
"422 448 LINE",
"422 0 LINE",
"502 0 LINE",
"502 516 LINE",
"188 516 LINE",
"188 672 LINE",
"335 672 LINE",
"335 740 LINE",
"222 740 LINE SMOOTH",
"144 740 OFFCURVE",
"108 691 OFFCURVE",
"108 622 CURVE SMOOTH",
"108 516 LINE",
"38 516 LINE",
"38 448 LINE",
"108 448 LINE"
);
},
{
closed = 1;
nodes = (
"508 630 OFFCURVE",
"525 652 OFFCURVE",
"525 681 CURVE SMOOTH",
"525 697 LINE SMOOTH",
"525 726 OFFCURVE",
"508 748 OFFCURVE",
"462 748 CURVE SMOOTH",
"416 748 OFFCURVE",
"399 726 OFFCURVE",
"399 697 CURVE SMOOTH",
"399 681 LINE SMOOTH",
"399 652 OFFCURVE",
"416 630 OFFCURVE",
"462 630 CURVE SMOOTH"
);
}
);
width = 600;
}
);
note = fi;
unicode = FB01;
},
{
glyphname = fl;
lastChange = "2017-11-24 19:34:51 +0000";
layers = (
{
layerId = "6B036DBC-DFAA-4A6A-8D11-6D1679C0E942";
paths = (
{
closed = 1;
nodes = (
"108 0 LINE",
"188 0 LINE",
"188 448 LINE",
"345 448 LINE",
"345 516 LINE",
"188 516 LINE",
"188 672 LINE",
"345 672 LINE",
"345 740 LINE",
"222 740 LINE SMOOTH",
"144 740 OFFCURVE",
"108 691 OFFCURVE",
"108 622 CURVE SMOOTH",
"108 516 LINE",
"38 516 LINE",
"38 448 LINE",
"108 448 LINE"
);
},
{
closed = 1;
nodes = (
"422 0 LINE",
"502 0 LINE",
"502 740 LINE",
"422 740 LINE"
);
}
);
width = 600;
}
);
note = fl;
unicode = FB02;
},
{
glyphname = aacute;
lastChange = "2017-11-24 19:34:51 +0000";
layers = (
{
layerId = "6B036DBC-DFAA-4A6A-8D11-6D1679C0E942";
paths = (
{
closed = 1;
nodes = (
"396 744 LINE",
"323 779 LINE",
"238 609 LINE",
"290 585 LINE"
);
},
{
closed = 1;
nodes = (
"550 0 LINE",
"550 70 LINE",
"478 70 LINE",
"478 354 LINE SMOOTH",
"478 463 OFFCURVE",
"401 528 OFFCURVE",
"280 528 CURVE SMOOTH",
"175 528 OFFCURVE",
"109 478 OFFCURVE",
"83 424 CURVE",
"137 384 LINE",
"164 431 OFFCURVE",
"206 460 OFFCURVE",
"275 460 CURVE SMOOTH",
"353 460 OFFCURVE",
"398 421 OFFCURVE",
"398 346 CURVE SMOOTH",
"398 295 LINE",
"288 295 LINE SMOOTH",
"133 295 OFFCURVE",
"66 240 OFFCURVE",
"66 145 CURVE SMOOTH",
"66 48 OFFCURVE",
"135 -12 OFFCURVE",
"243 -12 CURVE SMOOTH",
"327 -12 OFFCURVE",
"376 25 OFFCURVE",
"398 84 CURVE",
"403 84 LINE",
"409 36 OFFCURVE",
"433 0 OFFCURVE",
"495 0 CURVE SMOOTH"
);
},
{
closed = 1;
nodes = (
"191 55 OFFCURVE",
"150 83 OFFCURVE",
"150 136 CURVE SMOOTH",
"150 157 LINE SMOOTH",
"150 207 OFFCURVE",
"193 235 OFFCURVE",
"288 235 CURVE SMOOTH",
"398 235 LINE",
"398 150 LINE SMOOTH",
"398 97 OFFCURVE",
"339 55 OFFCURVE",
"257 55 CURVE SMOOTH"
);
}
);
width = 600;
}
);
note = aacute;
unicode = 00E1;
},
{
glyphname = abreve;
lastChange = "2017-11-24 19:34:51 +0000";
layers = (
{
layerId = "6B036DBC-DFAA-4A6A-8D11-6D1679C0E942";
paths = (
{
closed = 1;
nodes = (
"390 595 OFFCURVE",
"425 685 OFFCURVE",
"444 746 CURVE",
"393 768 LINE",
"372 734 LINE SMOOTH",
"341 684 OFFCURVE",
"327 660 OFFCURVE",
"283 660 CURVE SMOOTH",
"239 660 OFFCURVE",
"225 684 OFFCURVE",
"194 734 CURVE SMOOTH",
"173 768 LINE",
"122 746 LINE",
"141 685 OFFCURVE",
"176 595 OFFCURVE",
"283 595 CURVE SMOOTH"
);
},
{
closed = 1;
nodes = (
"550 0 LINE",
"550 70 LINE",
"478 70 LINE",
"478 354 LINE SMOOTH",
"478 463 OFFCURVE",
"401 528 OFFCURVE",
"280 528 CURVE SMOOTH",
"175 528 OFFCURVE",
"109 478 OFFCURVE",
"83 424 CURVE",
"137 384 LINE",
"164 431 OFFCURVE",
"206 460 OFFCURVE",
"275 460 CURVE SMOOTH",
"353 460 OFFCURVE",
"398 421 OFFCURVE",
"398 346 CURVE SMOOTH",
"398 295 LINE",
"288 295 LINE SMOOTH",
"133 295 OFFCURVE",
"66 240 OFFCURVE",
"66 145 CURVE SMOOTH",
"66 48 OFFCURVE",
"135 -12 OFFCURVE",
"243 -12 CURVE SMOOTH",
"327 -12 OFFCURVE",
"376 25 OFFCURVE",
"398 84 CURVE",
"403 84 LINE",
"409 36 OFFCURVE",
"433 0 OFFCURVE",
"495 0 CURVE SMOOTH"
);
},
{
closed = 1;
nodes = (
"191 55 OFFCURVE",
"150 83 OFFCURVE",
"150 136 CURVE SMOOTH",
"150 157 LINE SMOOTH",
"150 207 OFFCURVE",
"193 235 OFFCURVE",
"288 235 CURVE SMOOTH",
"398 235 LINE",
"398 150 LINE SMOOTH",
"398 97 OFFCURVE",
"339 55 OFFCURVE",
"257 55 CURVE SMOOTH"
);
}
);
width = 600;
}
);
note = abreve;
unicode = 0103;
},
{
glyphname = acircumflex;
lastChange = "2017-11-24 19:34:51 +0000";
layers = (
{
layerId = "6B036DBC-DFAA-4A6A-8D11-6D1679C0E942";
paths = (
{
closed = 1;
nodes = (
"233 765 LINE",
"122 622 LINE",
"165 591 LINE",
"282 708 LINE",
"399 591 LINE",
"444 622 LINE",
"333 765 LINE"
);
},
{
closed = 1;
nodes = (
"550 0 LINE",
"550 70 LINE",
"478 70 LINE",
"478 354 LINE SMOOTH",
"478 463 OFFCURVE",
"401 528 OFFCURVE",
"280 528 CURVE SMOOTH",
"175 528 OFFCURVE",
"109 478 OFFCURVE",
"83 424 CURVE",
"137 384 LINE",
"164 431 OFFCURVE",
"206 460 OFFCURVE",
"275 460 CURVE SMOOTH",
"353 460 OFFCURVE",
"398 421 OFFCURVE",
"398 346 CURVE SMOOTH",
"398 295 LINE",
"288 295 LINE SMOOTH",
"133 295 OFFCURVE",
"66 240 OFFCURVE",
"66 145 CURVE SMOOTH",
"66 48 OFFCURVE",
"135 -12 OFFCURVE",
"243 -12 CURVE SMOOTH",
"327 -12 OFFCURVE",
"376 25 OFFCURVE",
"398 84 CURVE",
"403 84 LINE",
"409 36 OFFCURVE",
"433 0 OFFCURVE",
"495 0 CURVE SMOOTH"
);
},
{
closed = 1;
nodes = (
"191 55 OFFCURVE",
"150 83 OFFCURVE",
"150 136 CURVE SMOOTH",
"150 157 LINE SMOOTH",
"150 207 OFFCURVE",
"193 235 OFFCURVE",
"288 235 CURVE SMOOTH",
"398 235 LINE",
"398 150 LINE SMOOTH",
"398 97 OFFCURVE",
"339 55 OFFCURVE",
"257 55 CURVE SMOOTH"
);
}
);
width = 600;
}
);
note = acircumflex;
unicode = 00E2;
},
{
glyphname = adieresis;
lastChange = "2017-11-24 19:34:51 +0000";
layers = (
{
layerId = "6B036DBC-DFAA-4A6A-8D11-6D1679C0E942";
paths = (
{
closed = 1;
nodes = (
"231 618 OFFCURVE",
"247 638 OFFCURVE",
"247 664 CURVE SMOOTH",
"247 678 LINE SMOOTH",
"247 704 OFFCURVE",
"231 724 OFFCURVE",
"190 724 CURVE SMOOTH",
"149 724 OFFCURVE",
"133 704 OFFCURVE",
"133 678 CURVE SMOOTH",
"133 664 LINE SMOOTH",
"133 638 OFFCURVE",
"149 618 OFFCURVE",
"190 618 CURVE SMOOTH"
);
},
{
closed = 1;
nodes = (
"417 618 OFFCURVE",
"433 638 OFFCURVE",
"433 664 CURVE SMOOTH",
"433 678 LINE SMOOTH",
"433 704 OFFCURVE",
"417 724 OFFCURVE",
"376 724 CURVE SMOOTH",
"335 724 OFFCURVE",
"319 704 OFFCURVE",
"319 678 CURVE SMOOTH",
"319 664 LINE SMOOTH",
"319 638 OFFCURVE",
"335 618 OFFCURVE",
"376 618 CURVE SMOOTH"
);
},
{
closed = 1;
nodes = (
"550 0 LINE",
"550 70 LINE",
"478 70 LINE",
"478 354 LINE SMOOTH",
"478 463 OFFCURVE",
"401 528 OFFCURVE",
"280 528 CURVE SMOOTH",
"175 528 OFFCURVE",
"109 478 OFFCURVE",
"83 424 CURVE",
"137 384 LINE",
"164 431 OFFCURVE",
"206 460 OFFCURVE",
"275 460 CURVE SMOOTH",
"353 460 OFFCURVE",
"398 421 OFFCURVE",
"398 346 CURVE SMOOTH",
"398 295 LINE",
"288 295 LINE SMOOTH",
"133 295 OFFCURVE",
"66 240 OFFCURVE",
"66 145 CURVE SMOOTH",
"66 48 OFFCURVE",
"135 -12 OFFCURVE",
"243 -12 CURVE SMOOTH",
"327 -12 OFFCURVE",
"376 25 OFFCURVE",
"398 84 CURVE",
"403 84 LINE",
"409 36 OFFCURVE",
"433 0 OFFCURVE",
"495 0 CURVE SMOOTH"
);
},
{
closed = 1;
nodes = (
"191 55 OFFCURVE",
"150 83 OFFCURVE",
"150 136 CURVE SMOOTH",
"150 157 LINE SMOOTH",
"150 207 OFFCURVE",
"193 235 OFFCURVE",
"288 235 CURVE SMOOTH",
"398 235 LINE",
"398 150 LINE SMOOTH",
"398 97 OFFCURVE",
"339 55 OFFCURVE",
"257 55 CURVE SMOOTH"
);
}
);
width = 600;
}
);
note = adieresis;
unicode = 00E4;
},
{
glyphname = uni1EA1;
lastChange = "2017-11-24 19:34:51 +0000";
layers = (
{
layerId = "6B036DBC-DFAA-4A6A-8D11-6D1679C0E942";
paths = (
{
closed = 1;
nodes = (
"324 -172 OFFCURVE",
"340 -152 OFFCURVE",
"340 -126 CURVE SMOOTH",
"340 -112 LINE SMOOTH",
"340 -86 OFFCURVE",
"324 -66 OFFCURVE",
"283 -66 CURVE SMOOTH",
"242 -66 OFFCURVE",
"226 -86 OFFCURVE",
"226 -112 CURVE SMOOTH",
"226 -126 LINE SMOOTH",
"226 -152 OFFCURVE",
"242 -172 OFFCURVE",
"283 -172 CURVE SMOOTH"
);
},
{
closed = 1;
nodes = (
"550 0 LINE",
"550 70 LINE",
"478 70 LINE",
"478 354 LINE SMOOTH",
"478 463 OFFCURVE",
"401 528 OFFCURVE",
"280 528 CURVE SMOOTH",
"175 528 OFFCURVE",
"109 478 OFFCURVE",
"83 424 CURVE",
"137 384 LINE",
"164 431 OFFCURVE",
"206 460 OFFCURVE",
"275 460 CURVE SMOOTH",
"353 460 OFFCURVE",
"398 421 OFFCURVE",
"398 346 CURVE SMOOTH",
"398 295 LINE",
"288 295 LINE SMOOTH",
"133 295 OFFCURVE",
"66 240 OFFCURVE",
"66 145 CURVE SMOOTH",
"66 48 OFFCURVE",
"135 -12 OFFCURVE",
"243 -12 CURVE SMOOTH",
"327 -12 OFFCURVE",
"376 25 OFFCURVE",
"398 84 CURVE",
"403 84 LINE",
"409 36 OFFCURVE",
"433 0 OFFCURVE",
"495 0 CURVE SMOOTH"
);
},
{
closed = 1;
nodes = (
"191 55 OFFCURVE",
"150 83 OFFCURVE",
"150 136 CURVE SMOOTH",
"150 157 LINE SMOOTH",
"150 207 OFFCURVE",
"193 235 OFFCURVE",
"288 235 CURVE SMOOTH",
"398 235 LINE",
"398 150 LINE SMOOTH",
"398 97 OFFCURVE",
"339 55 OFFCURVE",
"257 55 CURVE SMOOTH"
);
}
);
width = 600;
}
);
note = uni1EA1;
unicode = 1EA1;
},
{
glyphname = agrave;
lastChange = "2017-11-24 19:34:51 +0000";
layers = (
{
layerId = "6B036DBC-DFAA-4A6A-8D11-6D1679C0E942";
paths = (
{
closed = 1;
nodes = (
"276 585 LINE",
"328 609 LINE",
"243 779 LINE",
"170 744 LINE"
);
},
{
closed = 1;
nodes = (
"550 0 LINE",
"550 70 LINE",
"478 70 LINE",
"478 354 LINE SMOOTH",
"478 463 OFFCURVE",
"401 528 OFFCURVE",
"280 528 CURVE SMOOTH",
"175 528 OFFCURVE",
"109 478 OFFCURVE",
"83 424 CURVE",
"137 384 LINE",
"164 431 OFFCURVE",
"206 460 OFFCURVE",
"275 460 CURVE SMOOTH",
"353 460 OFFCURVE",
"398 421 OFFCURVE",
"398 346 CURVE SMOOTH",
"398 295 LINE",
"288 295 LINE SMOOTH",
"133 295 OFFCURVE",
"66 240 OFFCURVE",
"66 145 CURVE SMOOTH",
"66 48 OFFCURVE",
"135 -12 OFFCURVE",
"243 -12 CURVE SMOOTH",
"327 -12 OFFCURVE",
"376 25 OFFCURVE",
"398 84 CURVE",
"403 84 LINE",
"409 36 OFFCURVE",
"433 0 OFFCURVE",
"495 0 CURVE SMOOTH"
);
},
{
closed = 1;
nodes = (
"191 55 OFFCURVE",
"150 83 OFFCURVE",
"150 136 CURVE SMOOTH",
"150 157 LINE SMOOTH",
"150 207 OFFCURVE",
"193 235 OFFCURVE",
"288 235 CURVE SMOOTH",
"398 235 LINE",
"398 150 LINE SMOOTH",
"398 97 OFFCURVE",
"339 55 OFFCURVE",
"257 55 CURVE SMOOTH"
);
}
);
width = 600;
}
);
note = agrave;
unicode = 00E0;
},
{
glyphname = uni1EA3;
lastChange = "2017-11-24 19:34:51 +0000";
layers = (
{
layerId = "6B036DBC-DFAA-4A6A-8D11-6D1679C0E942";
paths = (
{
closed = 1;
nodes = (
"199 704 LINE",
"317 704 LINE",
"259 600 LINE",
"305 577 LINE",
"329 607 LINE SMOOTH",
"360 646 OFFCURVE",
"378 681 OFFCURVE",
"378 710 CURVE SMOOTH",
"378 740 OFFCURVE",
"359 765 OFFCURVE",
"308 765 CURVE SMOOTH",
"199 765 LINE"
);
},
{
closed = 1;
nodes = (
"550 0 LINE",
"550 70 LINE",
"478 70 LINE",
"478 354 LINE SMOOTH",
"478 463 OFFCURVE",
"401 528 OFFCURVE",
"280 528 CURVE SMOOTH",
"175 528 OFFCURVE",
"109 478 OFFCURVE",
"83 424 CURVE",
"137 384 LINE",
"164 431 OFFCURVE",
"206 460 OFFCURVE",
"275 460 CURVE SMOOTH",
"353 460 OFFCURVE",
"398 421 OFFCURVE",
"398 346 CURVE SMOOTH",
"398 295 LINE",
"288 295 LINE SMOOTH",
"133 295 OFFCURVE",
"66 240 OFFCURVE",
"66 145 CURVE SMOOTH",
"66 48 OFFCURVE",
"135 -12 OFFCURVE",
"243 -12 CURVE SMOOTH",
"327 -12 OFFCURVE",
"376 25 OFFCURVE",
"398 84 CURVE",
"403 84 LINE",
"409 36 OFFCURVE",
"433 0 OFFCURVE",
"495 0 CURVE SMOOTH"
);
},
{
closed = 1;
nodes = (
"191 55 OFFCURVE",
"150 83 OFFCURVE",
"150 136 CURVE SMOOTH",
"150 157 LINE SMOOTH",
"150 207 OFFCURVE",
"193 235 OFFCURVE",
"288 235 CURVE SMOOTH",
"398 235 LINE",
"398 150 LINE SMOOTH",
"398 97 OFFCURVE",
"339 55 OFFCURVE",
"257 55 CURVE SMOOTH"
);
}
);
width = 600;
}
);
note = uni1EA3;
unicode = 1EA3;
},
{
glyphname = amacron;
lastChange = "2017-11-24 19:34:51 +0000";
layers = (
{
layerId = "6B036DBC-DFAA-4A6A-8D11-6D1679C0E942";
paths = (
{
closed = 1;
nodes = (
"143 637 LINE",
"423 637 LINE",
"423 705 LINE",
"143 705 LINE"
);
},
{
closed = 1;
nodes = (
"550 0 LINE",
"550 70 LINE",
"478 70 LINE",
"478 354 LINE SMOOTH",
"478 463 OFFCURVE",
"401 528 OFFCURVE",
"280 528 CURVE SMOOTH",
"175 528 OFFCURVE",
"109 478 OFFCURVE",
"83 424 CURVE",
"137 384 LINE",
"164 431 OFFCURVE",
"206 460 OFFCURVE",
"275 460 CURVE SMOOTH",
"353 460 OFFCURVE",
"398 421 OFFCURVE",
"398 346 CURVE SMOOTH",
"398 295 LINE",
"288 295 LINE SMOOTH",
"133 295 OFFCURVE",
"66 240 OFFCURVE",
"66 145 CURVE SMOOTH",
"66 48 OFFCURVE",
"135 -12 OFFCURVE",
"243 -12 CURVE SMOOTH",
"327 -12 OFFCURVE",
"376 25 OFFCURVE",
"398 84 CURVE",
"403 84 LINE",
"409 36 OFFCURVE",
"433 0 OFFCURVE",
"495 0 CURVE SMOOTH"
);
},
{
closed = 1;
nodes = (
"191 55 OFFCURVE",
"150 83 OFFCURVE",
"150 136 CURVE SMOOTH",
"150 157 LINE SMOOTH",
"150 207 OFFCURVE",
"193 235 OFFCURVE",
"288 235 CURVE SMOOTH",
"398 235 LINE",
"398 150 LINE SMOOTH",
"398 97 OFFCURVE",
"339 55 OFFCURVE",
"257 55 CURVE SMOOTH"
);
}
);
width = 600;
}
);
note = amacron;
unicode = 0101;
},
{
glyphname = aogonek;
lastChange = "2017-11-24 19:34:51 +0000";
layers = (
{
layerId = "6B036DBC-DFAA-4A6A-8D11-6D1679C0E942";
paths = (
{
closed = 1;
nodes = (
"550 70 LINE",
"478 70 LINE",
"478 354 LINE SMOOTH",
"478 463 OFFCURVE",
"401 528 OFFCURVE",
"280 528 CURVE SMOOTH",
"175 528 OFFCURVE",
"109 478 OFFCURVE",
"83 424 CURVE",
"137 384 LINE",
"164 431 OFFCURVE",
"206 460 OFFCURVE",
"274 460 CURVE SMOOTH",
"353 460 OFFCURVE",
"398 421 OFFCURVE",
"398 346 CURVE SMOOTH",
"398 295 LINE",
"288 295 LINE SMOOTH",
"133 295 OFFCURVE",
"66 240 OFFCURVE",
"66 145 CURVE SMOOTH",
"66 48 OFFCURVE",
"135 -12 OFFCURVE",
"243 -12 CURVE SMOOTH",
"327 -12 OFFCURVE",
"376 25 OFFCURVE",
"398 84 CURVE",
"403 84 LINE",
"407 37 OFFCURVE",
"434 4 OFFCURVE",
"483 0 CURVE",
"484 -3 LINE",
"409 -39 OFFCURVE",
"369 -79 OFFCURVE",
"369 -127 CURVE SMOOTH",
"369 -180 OFFCURVE",
"417 -207 OFFCURVE",
"478 -207 CURVE SMOOTH",
"528 -207 OFFCURVE",
"558 -188 OFFCURVE",
"571 -166 CURVE",
"531 -125 LINE",
"518 -141 OFFCURVE",
"501 -151 OFFCURVE",
"479 -151 CURVE SMOOTH",
"458 -151 OFFCURVE",
"437 -142 OFFCURVE",
"437 -114 CURVE SMOOTH",
"437 -94 OFFCURVE",
"447 -65 OFFCURVE",
"550 0 CURVE"
);
},
{
closed = 1;
nodes = (
"398 235 LINE",
"398 150 LINE SMOOTH",
"398 97 OFFCURVE",
"339 55 OFFCURVE",
"257 55 CURVE SMOOTH",
"191 55 OFFCURVE",
"150 83 OFFCURVE",
"150 136 CURVE SMOOTH",
"150 157 LINE SMOOTH",
"150 207 OFFCURVE",
"193 235 OFFCURVE",
"288 235 CURVE SMOOTH"
);
}
);
width = 600;
}
);
note = aogonek;
unicode = 0105;
},
{
glyphname = aring;
lastChange = "2017-11-24 19:34:51 +0000";
layers = (
{
layerId = "6B036DBC-DFAA-4A6A-8D11-6D1679C0E942";
paths = (
{
closed = 1;
nodes = (
"348 576 OFFCURVE",
"399 625 OFFCURVE",
"399 691 CURVE SMOOTH",
"399 757 OFFCURVE",
"348 806 OFFCURVE",
"283 806 CURVE SMOOTH",
"218 806 OFFCURVE",
"167 757 OFFCURVE",
"167 691 CURVE SMOOTH",
"167 625 OFFCURVE",
"218 576 OFFCURVE",
"283 576 CURVE SMOOTH"
);
},
{
closed = 1;
nodes = (
"247 625 OFFCURVE",
"225 645 OFFCURVE",
"225 680 CURVE SMOOTH",
"225 702 LINE SMOOTH",
"225 737 OFFCURVE",
"247 757 OFFCURVE",
"283 757 CURVE SMOOTH",
"319 757 OFFCURVE",
"341 737 OFFCURVE",
"341 702 CURVE SMOOTH",
"341 680 LINE SMOOTH",
"341 645 OFFCURVE",
"319 625 OFFCURVE",
"283 625 CURVE SMOOTH"
);
},
{
closed = 1;
nodes = (
"550 0 LINE",
"550 70 LINE",
"478 70 LINE",
"478 354 LINE SMOOTH",
"478 463 OFFCURVE",
"401 528 OFFCURVE",
"280 528 CURVE SMOOTH",
"175 528 OFFCURVE",
"109 478 OFFCURVE",
"83 424 CURVE",
"137 384 LINE",
"164 431 OFFCURVE",
"206 460 OFFCURVE",
"275 460 CURVE SMOOTH",
"353 460 OFFCURVE",
"398 421 OFFCURVE",
"398 346 CURVE SMOOTH",
"398 295 LINE",
"288 295 LINE SMOOTH",
"133 295 OFFCURVE",
"66 240 OFFCURVE",
"66 145 CURVE SMOOTH",
"66 48 OFFCURVE",
"135 -12 OFFCURVE",
"243 -12 CURVE SMOOTH",
"327 -12 OFFCURVE",
"376 25 OFFCURVE",
"398 84 CURVE",
"403 84 LINE",
"409 36 OFFCURVE",
"433 0 OFFCURVE",
"495 0 CURVE SMOOTH"
);
},
{
closed = 1;
nodes = (
"191 55 OFFCURVE",
"150 83 OFFCURVE",
"150 136 CURVE SMOOTH",
"150 157 LINE SMOOTH",
"150 207 OFFCURVE",
"193 235 OFFCURVE",
"288 235 CURVE SMOOTH",
"398 235 LINE",
"398 150 LINE SMOOTH",
"398 97 OFFCURVE",
"339 55 OFFCURVE",
"257 55 CURVE SMOOTH"
);
}
);
width = 600;
}
);
note = aring;
unicode = 00E5;
},
{
glyphname = aringacute;
lastChange = "2017-11-24 19:34:51 +0000";
layers = (
{
layerId = "6B036DBC-DFAA-4A6A-8D11-6D1679C0E942";
paths = (
{
closed = 1;
nodes = (
"388 919 LINE",
"328 956 LINE",
"253 840 LINE",
"294 814 LINE"
);
},
{
closed = 1;
nodes = (
"348 566 OFFCURVE",
"399 615 OFFCURVE",
"399 681 CURVE SMOOTH",
"399 747 OFFCURVE",
"348 796 OFFCURVE",
"283 796 CURVE SMOOTH",
"218 796 OFFCURVE",
"167 747 OFFCURVE",
"167 681 CURVE SMOOTH",
"167 615 OFFCURVE",
"218 566 OFFCURVE",
"283 566 CURVE SMOOTH"
);
},
{
closed = 1;
nodes = (
"247 615 OFFCURVE",
"225 635 OFFCURVE",
"225 670 CURVE SMOOTH",
"225 692 LINE SMOOTH",
"225 727 OFFCURVE",
"247 747 OFFCURVE",
"283 747 CURVE SMOOTH",
"319 747 OFFCURVE",
"341 727 OFFCURVE",
"341 692 CURVE SMOOTH",
"341 670 LINE SMOOTH",
"341 635 OFFCURVE",
"319 615 OFFCURVE",
"283 615 CURVE SMOOTH"
);
},
{
closed = 1;
nodes = (
"550 0 LINE",
"550 70 LINE",
"478 70 LINE",
"478 354 LINE SMOOTH",
"478 463 OFFCURVE",
"401 528 OFFCURVE",
"280 528 CURVE SMOOTH",
"175 528 OFFCURVE",
"109 478 OFFCURVE",
"83 424 CURVE",
"137 384 LINE",
"164 431 OFFCURVE",
"206 460 OFFCURVE",
"275 460 CURVE SMOOTH",
"353 460 OFFCURVE",
"398 421 OFFCURVE",
"398 346 CURVE SMOOTH",
"398 295 LINE",
"288 295 LINE SMOOTH",
"133 295 OFFCURVE",
"66 240 OFFCURVE",
"66 145 CURVE SMOOTH",
"66 48 OFFCURVE",
"135 -12 OFFCURVE",
"243 -12 CURVE SMOOTH",
"327 -12 OFFCURVE",
"376 25 OFFCURVE",
"398 84 CURVE",
"403 84 LINE",
"409 36 OFFCURVE",
"433 0 OFFCURVE",
"495 0 CURVE SMOOTH"
);
},
{
closed = 1;
nodes = (
"191 55 OFFCURVE",
"150 83 OFFCURVE",
"150 136 CURVE SMOOTH",
"150 157 LINE SMOOTH",
"150 207 OFFCURVE",
"193 235 OFFCURVE",
"288 235 CURVE SMOOTH",
"398 235 LINE",
"398 150 LINE SMOOTH",
"398 97 OFFCURVE",
"339 55 OFFCURVE",
"257 55 CURVE SMOOTH"
);
}
);
width = 600;
}
);
note = aringacute;
unicode = 01FB;
},
{
glyphname = atilde;
lastChange = "2017-11-24 19:34:51 +0000";
layers = (
{
layerId = "6B036DBC-DFAA-4A6A-8D11-6D1679C0E942";
paths = (
{
closed = 1;
nodes = (
"402 612 OFFCURVE",
"433 638 OFFCURVE",
"451 665 CURVE",
"418 705 LINE",
"398 688 OFFCURVE",
"382 678 OFFCURVE",
"360 678 CURVE SMOOTH",
"343 678 OFFCURVE",
"322 685 OFFCURVE",
"290 702 CURVE SMOOTH",
"269 713 OFFCURVE",
"245 728 OFFCURVE",
"210 728 CURVE SMOOTH",
"164 728 OFFCURVE",
"133 702 OFFCURVE",
"115 675 CURVE",
"148 635 LINE",
"168 652 OFFCURVE",
"184 662 OFFCURVE",
"206 662 CURVE SMOOTH",
"223 662 OFFCURVE",
"244 655 OFFCURVE",
"276 638 CURVE SMOOTH",
"297 627 OFFCURVE",
"321 612 OFFCURVE",
"356 612 CURVE SMOOTH"
);
},
{
closed = 1;
nodes = (
"550 0 LINE",
"550 70 LINE",
"478 70 LINE",
"478 354 LINE SMOOTH",
"478 463 OFFCURVE",
"401 528 OFFCURVE",
"280 528 CURVE SMOOTH",
"175 528 OFFCURVE",
"109 478 OFFCURVE",
"83 424 CURVE",
"137 384 LINE",
"164 431 OFFCURVE",
"206 460 OFFCURVE",
"275 460 CURVE SMOOTH",
"353 460 OFFCURVE",
"398 421 OFFCURVE",
"398 346 CURVE SMOOTH",
"398 295 LINE",
"288 295 LINE SMOOTH",
"133 295 OFFCURVE",
"66 240 OFFCURVE",
"66 145 CURVE SMOOTH",
"66 48 OFFCURVE",
"135 -12 OFFCURVE",
"243 -12 CURVE SMOOTH",
"327 -12 OFFCURVE",
"376 25 OFFCURVE",
"398 84 CURVE",
"403 84 LINE",
"409 36 OFFCURVE",
"433 0 OFFCURVE",
"495 0 CURVE SMOOTH"
);
},
{
closed = 1;
nodes = (
"191 55 OFFCURVE",
"150 83 OFFCURVE",
"150 136 CURVE SMOOTH",
"150 157 LINE SMOOTH",
"150 207 OFFCURVE",
"193 235 OFFCURVE",
"288 235 CURVE SMOOTH",
"398 235 LINE",
"398 150 LINE SMOOTH",
"398 97 OFFCURVE",
"339 55 OFFCURVE",
"257 55 CURVE SMOOTH"
);
}
);
width = 600;
}
);
note = atilde;
unicode = 00E3;
},
{
glyphname = uni1EAF;
lastChange = "2017-11-24 19:34:51 +0000";
layers = (
{
layerId = "6B036DBC-DFAA-4A6A-8D11-6D1679C0E942";
paths = (
{
closed = 1;
nodes = (
"386 585 OFFCURVE",
"428 659 OFFCURVE",
"449 724 CURVE",
"402 747 LINE",
"381 715 LINE SMOOTH",
"349 667 OFFCURVE",
"327 649 OFFCURVE",
"283 649 CURVE SMOOTH",
"239 649 OFFCURVE",
"217 667 OFFCURVE",
"185 715 CURVE SMOOTH",
"164 747 LINE",
"117 724 LINE",
"136 665 OFFCURVE",
"175 585 OFFCURVE",
"282 585 CURVE SMOOTH"
);
},
{
closed = 1;
nodes = (
"396 867 LINE",
"326 901 LINE",
"241 731 LINE",
"290 708 LINE"
);
},
{
closed = 1;
nodes = (
"550 0 LINE",
"550 70 LINE",
"478 70 LINE",
"478 354 LINE SMOOTH",
"478 463 OFFCURVE",
"401 528 OFFCURVE",
"280 528 CURVE SMOOTH",
"175 528 OFFCURVE",
"109 478 OFFCURVE",
"83 424 CURVE",
"137 384 LINE",
"164 431 OFFCURVE",
"206 460 OFFCURVE",
"275 460 CURVE SMOOTH",
"353 460 OFFCURVE",
"398 421 OFFCURVE",
"398 346 CURVE SMOOTH",
"398 295 LINE",
"288 295 LINE SMOOTH",
"133 295 OFFCURVE",
"66 240 OFFCURVE",
"66 145 CURVE SMOOTH",
"66 48 OFFCURVE",
"135 -12 OFFCURVE",
"243 -12 CURVE SMOOTH",
"327 -12 OFFCURVE",
"376 25 OFFCURVE",
"398 84 CURVE",
"403 84 LINE",
"409 36 OFFCURVE",
"433 0 OFFCURVE",
"495 0 CURVE SMOOTH"
);
},
{
closed = 1;
nodes = (
"191 55 OFFCURVE",
"150 83 OFFCURVE",
"150 136 CURVE SMOOTH",
"150 157 LINE SMOOTH",
"150 207 OFFCURVE",
"193 235 OFFCURVE",
"288 235 CURVE SMOOTH",
"398 235 LINE",
"398 150 LINE SMOOTH",
"398 97 OFFCURVE",
"339 55 OFFCURVE",
"257 55 CURVE SMOOTH"
);
}
);
width = 600;
}
);
note = uni1EAF;
unicode = 1EAF;
},
{
glyphname = uni1EB7;
lastChange = "2017-11-24 19:34:51 +0000";
layers = (
{
layerId = "6B036DBC-DFAA-4A6A-8D11-6D1679C0E942";
paths = (
{
closed = 1;
nodes = (
"324 -172 OFFCURVE",
"340 -152 OFFCURVE",
"340 -126 CURVE SMOOTH",
"340 -112 LINE SMOOTH",
"340 -86 OFFCURVE",
"324 -66 OFFCURVE",
"283 -66 CURVE SMOOTH",
"242 -66 OFFCURVE",
"226 -86 OFFCURVE",
"226 -112 CURVE SMOOTH",
"226 -126 LINE SMOOTH",
"226 -152 OFFCURVE",
"242 -172 OFFCURVE",
"283 -172 CURVE SMOOTH"
);
},
{
closed = 1;
nodes = (
"390 595 OFFCURVE",
"425 685 OFFCURVE",
"444 746 CURVE",
"393 768 LINE",
"372 734 LINE SMOOTH",
"341 684 OFFCURVE",
"327 660 OFFCURVE",
"283 660 CURVE SMOOTH",
"239 660 OFFCURVE",
"225 684 OFFCURVE",
"194 734 CURVE SMOOTH",
"173 768 LINE",
"122 746 LINE",
"141 685 OFFCURVE",
"176 595 OFFCURVE",
"283 595 CURVE SMOOTH"
);
},
{
closed = 1;
nodes = (
"550 0 LINE",
"550 70 LINE",
"478 70 LINE",
"478 354 LINE SMOOTH",
"478 463 OFFCURVE",
"401 528 OFFCURVE",
"280 528 CURVE SMOOTH",
"175 528 OFFCURVE",
"109 478 OFFCURVE",
"83 424 CURVE",
"137 384 LINE",
"164 431 OFFCURVE",
"206 460 OFFCURVE",
"275 460 CURVE SMOOTH",
"353 460 OFFCURVE",
"398 421 OFFCURVE",
"398 346 CURVE SMOOTH",
"398 295 LINE",
"288 295 LINE SMOOTH",
"133 295 OFFCURVE",
"66 240 OFFCURVE",
"66 145 CURVE SMOOTH",
"66 48 OFFCURVE",
"135 -12 OFFCURVE",
"243 -12 CURVE SMOOTH",
"327 -12 OFFCURVE",
"376 25 OFFCURVE",
"398 84 CURVE",
"403 84 LINE",
"409 36 OFFCURVE",
"433 0 OFFCURVE",
"495 0 CURVE SMOOTH"
);
},
{
closed = 1;
nodes = (
"191 55 OFFCURVE",
"150 83 OFFCURVE",
"150 136 CURVE SMOOTH",
"150 157 LINE SMOOTH",
"150 207 OFFCURVE",
"193 235 OFFCURVE",
"288 235 CURVE SMOOTH",
"398 235 LINE",
"398 150 LINE SMOOTH",
"398 97 OFFCURVE",
"339 55 OFFCURVE",
"257 55 CURVE SMOOTH"
);
}
);
width = 600;
}
);
note = uni1EB7;
unicode = 1EB7;
},
{
glyphname = uni1EB1;
lastChange = "2017-11-24 19:34:51 +0000";
layers = (
{
layerId = "6B036DBC-DFAA-4A6A-8D11-6D1679C0E942";
paths = (
{
closed = 1;
nodes = (
"391 585 OFFCURVE",
"430 665 OFFCURVE",
"449 724 CURVE",
"402 747 LINE",
"381 715 LINE SMOOTH",
"349 667 OFFCURVE",
"327 649 OFFCURVE",
"283 649 CURVE SMOOTH",
"239 649 OFFCURVE",
"217 667 OFFCURVE",
"185 715 CURVE SMOOTH",
"164 747 LINE",
"117 724 LINE",
"138 659 OFFCURVE",
"180 585 OFFCURVE",
"284 585 CURVE SMOOTH"
);
},
{
closed = 1;
nodes = (
"276 708 LINE",
"325 731 LINE",
"240 901 LINE",
"170 867 LINE"
);
},
{
closed = 1;
nodes = (
"550 0 LINE",
"550 70 LINE",
"478 70 LINE",
"478 354 LINE SMOOTH",
"478 463 OFFCURVE",
"401 528 OFFCURVE",
"280 528 CURVE SMOOTH",
"175 528 OFFCURVE",
"109 478 OFFCURVE",
"83 424 CURVE",
"137 384 LINE",
"164 431 OFFCURVE",
"206 460 OFFCURVE",
"275 460 CURVE SMOOTH",
"353 460 OFFCURVE",
"398 421 OFFCURVE",
"398 346 CURVE SMOOTH",
"398 295 LINE",
"288 295 LINE SMOOTH",
"133 295 OFFCURVE",
"66 240 OFFCURVE",
"66 145 CURVE SMOOTH",
"66 48 OFFCURVE",
"135 -12 OFFCURVE",
"243 -12 CURVE SMOOTH",
"327 -12 OFFCURVE",
"376 25 OFFCURVE",
"398 84 CURVE",
"403 84 LINE",
"409 36 OFFCURVE",
"433 0 OFFCURVE",
"495 0 CURVE SMOOTH"
);
},
{
closed = 1;
nodes = (
"191 55 OFFCURVE",
"150 83 OFFCURVE",
"150 136 CURVE SMOOTH",
"150 157 LINE SMOOTH",
"150 207 OFFCURVE",
"193 235 OFFCURVE",
"288 235 CURVE SMOOTH",
"398 235 LINE",
"398 150 LINE SMOOTH",
"398 97 OFFCURVE",
"339 55 OFFCURVE",
"257 55 CURVE SMOOTH"
);
}
);
width = 600;
}
);
note = uni1EB1;
unicode = 1EB1;
},
{
glyphname = uni1EB3;
lastChange = "2017-11-24 19:34:51 +0000";
layers = (
{
layerId = "6B036DBC-DFAA-4A6A-8D11-6D1679C0E942";
paths = (
{
closed = 1;
nodes = (
"391 585 OFFCURVE",
"430 665 OFFCURVE",
"449 724 CURVE",
"402 747 LINE",
"381 715 LINE SMOOTH",
"349 667 OFFCURVE",
"327 649 OFFCURVE",
"283 649 CURVE SMOOTH",
"239 649 OFFCURVE",
"217 667 OFFCURVE",
"185 715 CURVE SMOOTH",
"164 747 LINE",
"117 724 LINE",
"138 659 OFFCURVE",
"180 585 OFFCURVE",
"284 585 CURVE SMOOTH"
);
},
{
closed = 1;
nodes = (
"198 829 LINE",
"301 829 LINE",
"243 725 LINE",
"289 702 LINE",
"313 732 LINE SMOOTH",
"344 771 OFFCURVE",
"362 806 OFFCURVE",
"362 835 CURVE SMOOTH",
"362 865 OFFCURVE",
"343 890 OFFCURVE",
"292 890 CURVE SMOOTH",
"198 890 LINE"
);
},
{
closed = 1;
nodes = (
"550 0 LINE",
"550 70 LINE",
"478 70 LINE",
"478 354 LINE SMOOTH",
"478 463 OFFCURVE",
"401 528 OFFCURVE",
"280 528 CURVE SMOOTH",
"175 528 OFFCURVE",
"109 478 OFFCURVE",
"83 424 CURVE",
"137 384 LINE",
"164 431 OFFCURVE",
"206 460 OFFCURVE",
"275 460 CURVE SMOOTH",
"353 460 OFFCURVE",
"398 421 OFFCURVE",
"398 346 CURVE SMOOTH",
"398 295 LINE",
"288 295 LINE SMOOTH",
"133 295 OFFCURVE",
"66 240 OFFCURVE",
"66 145 CURVE SMOOTH",
"66 48 OFFCURVE",
"135 -12 OFFCURVE",
"243 -12 CURVE SMOOTH",
"327 -12 OFFCURVE",
"376 25 OFFCURVE",
"398 84 CURVE",
"403 84 LINE",
"409 36 OFFCURVE",
"433 0 OFFCURVE",
"495 0 CURVE SMOOTH"
);
},
{
closed = 1;
nodes = (
"191 55 OFFCURVE",
"150 83 OFFCURVE",
"150 136 CURVE SMOOTH",
"150 157 LINE SMOOTH",
"150 207 OFFCURVE",
"193 235 OFFCURVE",
"288 235 CURVE SMOOTH",
"398 235 LINE",
"398 150 LINE SMOOTH",
"398 97 OFFCURVE",
"339 55 OFFCURVE",
"257 55 CURVE SMOOTH"
);
}
);
width = 600;
}
);
note = uni1EB3;
unicode = 1EB3;
},
{
glyphname = uni1EB5;
lastChange = "2017-11-24 19:34:51 +0000";
layers = (
{
layerId = "6B036DBC-DFAA-4A6A-8D11-6D1679C0E942";
paths = (
{
closed = 1;
nodes = (
"391 585 OFFCURVE",
"430 665 OFFCURVE",
"449 724 CURVE",
"402 747 LINE",
"381 715 LINE SMOOTH",
"349 667 OFFCURVE",
"327 649 OFFCURVE",
"283 649 CURVE SMOOTH",
"239 649 OFFCURVE",
"217 667 OFFCURVE",
"185 715 CURVE SMOOTH",
"164 747 LINE",
"117 724 LINE",
"138 659 OFFCURVE",
"180 585 OFFCURVE",
"284 585 CURVE SMOOTH"
);
},
{
closed = 1;
nodes = (
"401 769 OFFCURVE",
"432 795 OFFCURVE",
"450 822 CURVE",
"419 858 LINE",
"399 841 OFFCURVE",
"383 831 OFFCURVE",
"361 831 CURVE SMOOTH",
"344 831 OFFCURVE",
"323 838 OFFCURVE",
"291 855 CURVE SMOOTH",
"270 866 OFFCURVE",
"246 881 OFFCURVE",
"211 881 CURVE SMOOTH",
"165 881 OFFCURVE",
"134 855 OFFCURVE",
"116 828 CURVE",
"147 792 LINE",
"167 809 OFFCURVE",
"183 819 OFFCURVE",
"205 819 CURVE SMOOTH",
"222 819 OFFCURVE",
"243 812 OFFCURVE",
"275 795 CURVE SMOOTH",
"296 784 OFFCURVE",
"320 769 OFFCURVE",
"355 769 CURVE SMOOTH"
);
},
{
closed = 1;
nodes = (
"550 0 LINE",
"550 70 LINE",
"478 70 LINE",
"478 354 LINE SMOOTH",
"478 463 OFFCURVE",
"401 528 OFFCURVE",
"280 528 CURVE SMOOTH",
"175 528 OFFCURVE",
"109 478 OFFCURVE",
"83 424 CURVE",
"137 384 LINE",
"164 431 OFFCURVE",
"206 460 OFFCURVE",
"275 460 CURVE SMOOTH",
"353 460 OFFCURVE",
"398 421 OFFCURVE",
"398 346 CURVE SMOOTH",
"398 295 LINE",
"288 295 LINE SMOOTH",
"133 295 OFFCURVE",
"66 240 OFFCURVE",
"66 145 CURVE SMOOTH",
"66 48 OFFCURVE",
"135 -12 OFFCURVE",
"243 -12 CURVE SMOOTH",
"327 -12 OFFCURVE",
"376 25 OFFCURVE",
"398 84 CURVE",
"403 84 LINE",
"409 36 OFFCURVE",
"433 0 OFFCURVE",
"495 0 CURVE SMOOTH"
);
},
{
closed = 1;
nodes = (
"191 55 OFFCURVE",
"150 83 OFFCURVE",
"150 136 CURVE SMOOTH",
"150 157 LINE SMOOTH",
"150 207 OFFCURVE",
"193 235 OFFCURVE",
"288 235 CURVE SMOOTH",
"398 235 LINE",
"398 150 LINE SMOOTH",
"398 97 OFFCURVE",
"339 55 OFFCURVE",
"257 55 CURVE SMOOTH"
);
}
);
width = 600;
}
);
note = uni1EB5;
unicode = 1EB5;
},
{
glyphname = uni1EA5;
lastChange = "2017-11-24 19:34:51 +0000";
layers = (
{
layerId = "6B036DBC-DFAA-4A6A-8D11-6D1679C0E942";
paths = (
{
closed = 1;
nodes = (
"543 871 LINE",
"473 905 LINE",
"388 735 LINE",
"437 712 LINE"
);
},
{
closed = 1;
nodes = (
"233 755 LINE",
"123 611 LINE",
"165 581 LINE",
"282 700 LINE",
"399 581 LINE",
"443 611 LINE",
"333 755 LINE"
);
},
{
closed = 1;
nodes = (
"550 0 LINE",
"550 70 LINE",
"478 70 LINE",
"478 354 LINE SMOOTH",
"478 463 OFFCURVE",
"401 528 OFFCURVE",
"280 528 CURVE SMOOTH",
"175 528 OFFCURVE",
"109 478 OFFCURVE",
"83 424 CURVE",
"137 384 LINE",
"164 431 OFFCURVE",
"206 460 OFFCURVE",
"275 460 CURVE SMOOTH",
"353 460 OFFCURVE",
"398 421 OFFCURVE",
"398 346 CURVE SMOOTH",
"398 295 LINE",
"288 295 LINE SMOOTH",
"133 295 OFFCURVE",
"66 240 OFFCURVE",
"66 145 CURVE SMOOTH",
"66 48 OFFCURVE",
"135 -12 OFFCURVE",
"243 -12 CURVE SMOOTH",
"327 -12 OFFCURVE",
"376 25 OFFCURVE",
"398 84 CURVE",
"403 84 LINE",
"409 36 OFFCURVE",
"433 0 OFFCURVE",
"495 0 CURVE SMOOTH"
);
},
{
closed = 1;
nodes = (
"191 55 OFFCURVE",
"150 83 OFFCURVE",
"150 136 CURVE SMOOTH",
"150 157 LINE SMOOTH",
"150 207 OFFCURVE",
"193 235 OFFCURVE",
"288 235 CURVE SMOOTH",
"398 235 LINE",
"398 150 LINE SMOOTH",
"398 97 OFFCURVE",
"339 55 OFFCURVE",
"257 55 CURVE SMOOTH"
);
}
);
width = 600;
}
);
note = uni1EA5;
unicode = 1EA5;
},
{
glyphname = uni1EAD;
lastChange = "2017-11-24 19:34:51 +0000";
layers = (
{
layerId = "6B036DBC-DFAA-4A6A-8D11-6D1679C0E942";
paths = (
{
closed = 1;
nodes = (
"324 -172 OFFCURVE",
"340 -152 OFFCURVE",
"340 -126 CURVE SMOOTH",
"340 -112 LINE SMOOTH",
"340 -86 OFFCURVE",
"324 -66 OFFCURVE",
"283 -66 CURVE SMOOTH",
"242 -66 OFFCURVE",
"226 -86 OFFCURVE",
"226 -112 CURVE SMOOTH",
"226 -126 LINE SMOOTH",
"226 -152 OFFCURVE",
"242 -172 OFFCURVE",
"283 -172 CURVE SMOOTH"
);
},
{
closed = 1;
nodes = (
"233 765 LINE",
"122 622 LINE",
"165 591 LINE",
"282 708 LINE",
"399 591 LINE",
"444 622 LINE",
"333 765 LINE"
);
},
{
closed = 1;
nodes = (
"550 0 LINE",
"550 70 LINE",
"478 70 LINE",
"478 354 LINE SMOOTH",
"478 463 OFFCURVE",
"401 528 OFFCURVE",
"280 528 CURVE SMOOTH",
"175 528 OFFCURVE",
"109 478 OFFCURVE",
"83 424 CURVE",
"137 384 LINE",
"164 431 OFFCURVE",
"206 460 OFFCURVE",
"275 460 CURVE SMOOTH",
"353 460 OFFCURVE",
"398 421 OFFCURVE",
"398 346 CURVE SMOOTH",
"398 295 LINE",
"288 295 LINE SMOOTH",
"133 295 OFFCURVE",
"66 240 OFFCURVE",
"66 145 CURVE SMOOTH",
"66 48 OFFCURVE",
"135 -12 OFFCURVE",
"243 -12 CURVE SMOOTH",
"327 -12 OFFCURVE",
"376 25 OFFCURVE",
"398 84 CURVE",
"403 84 LINE",
"409 36 OFFCURVE",
"433 0 OFFCURVE",
"495 0 CURVE SMOOTH"
);
},
{
closed = 1;
nodes = (
"191 55 OFFCURVE",
"150 83 OFFCURVE",
"150 136 CURVE SMOOTH",
"150 157 LINE SMOOTH",
"150 207 OFFCURVE",
"193 235 OFFCURVE",
"288 235 CURVE SMOOTH",
"398 235 LINE",
"398 150 LINE SMOOTH",
"398 97 OFFCURVE",
"339 55 OFFCURVE",
"257 55 CURVE SMOOTH"
);
}
);
width = 600;
}
);
note = uni1EAD;
unicode = 1EAD;
},
{
glyphname = uni1EA7;
lastChange = "2017-11-24 19:34:51 +0000";
layers = (
{
layerId = "6B036DBC-DFAA-4A6A-8D11-6D1679C0E942";
paths = (
{
closed = 1;
nodes = (
"129 712 LINE",
"178 735 LINE",
"93 905 LINE",
"23 871 LINE"
);
},
{
closed = 1;
nodes = (
"233 755 LINE",
"123 611 LINE",
"165 581 LINE",
"282 700 LINE",
"399 581 LINE",
"443 611 LINE",
"333 755 LINE"
);
},
{
closed = 1;
nodes = (
"550 0 LINE",
"550 70 LINE",
"478 70 LINE",
"478 354 LINE SMOOTH",
"478 463 OFFCURVE",
"401 528 OFFCURVE",
"280 528 CURVE SMOOTH",
"175 528 OFFCURVE",
"109 478 OFFCURVE",
"83 424 CURVE",
"137 384 LINE",
"164 431 OFFCURVE",
"206 460 OFFCURVE",
"275 460 CURVE SMOOTH",
"353 460 OFFCURVE",
"398 421 OFFCURVE",
"398 346 CURVE SMOOTH",
"398 295 LINE",
"288 295 LINE SMOOTH",
"133 295 OFFCURVE",
"66 240 OFFCURVE",
"66 145 CURVE SMOOTH",
"66 48 OFFCURVE",
"135 -12 OFFCURVE",
"243 -12 CURVE SMOOTH",
"327 -12 OFFCURVE",
"376 25 OFFCURVE",
"398 84 CURVE",
"403 84 LINE",
"409 36 OFFCURVE",
"433 0 OFFCURVE",
"495 0 CURVE SMOOTH"
);
},
{
closed = 1;
nodes = (
"191 55 OFFCURVE",
"150 83 OFFCURVE",
"150 136 CURVE SMOOTH",
"150 157 LINE SMOOTH",
"150 207 OFFCURVE",
"193 235 OFFCURVE",
"288 235 CURVE SMOOTH",
"398 235 LINE",
"398 150 LINE SMOOTH",
"398 97 OFFCURVE",
"339 55 OFFCURVE",
"257 55 CURVE SMOOTH"
);
}
);
width = 600;
}
);
note = uni1EA7;
unicode = 1EA7;
},
{
glyphname = uni1EA9;
lastChange = "2017-11-24 19:34:51 +0000";
layers = (
{
layerId = "6B036DBC-DFAA-4A6A-8D11-6D1679C0E942";
paths = (
{
closed = 1;
nodes = (
"336 833 LINE",
"454 833 LINE",
"396 729 LINE",
"442 706 LINE",
"466 736 LINE SMOOTH",
"497 775 OFFCURVE",
"515 810 OFFCURVE",
"515 839 CURVE SMOOTH",
"515 869 OFFCURVE",
"496 894 OFFCURVE",
"445 894 CURVE SMOOTH",
"336 894 LINE"
);
},
{
closed = 1;
nodes = (
"233 755 LINE",
"123 611 LINE",
"165 581 LINE",
"282 700 LINE",
"399 581 LINE",
"443 611 LINE",
"333 755 LINE"
);
},
{
closed = 1;
nodes = (
"550 0 LINE",
"550 70 LINE",
"478 70 LINE",
"478 354 LINE SMOOTH",
"478 463 OFFCURVE",
"401 528 OFFCURVE",
"280 528 CURVE SMOOTH",
"175 528 OFFCURVE",
"109 478 OFFCURVE",
"83 424 CURVE",
"137 384 LINE",
"164 431 OFFCURVE",
"206 460 OFFCURVE",
"275 460 CURVE SMOOTH",
"353 460 OFFCURVE",
"398 421 OFFCURVE",
"398 346 CURVE SMOOTH",
"398 295 LINE",
"288 295 LINE SMOOTH",
"133 295 OFFCURVE",
"66 240 OFFCURVE",
"66 145 CURVE SMOOTH",
"66 48 OFFCURVE",
"135 -12 OFFCURVE",
"243 -12 CURVE SMOOTH",
"327 -12 OFFCURVE",
"376 25 OFFCURVE",
"398 84 CURVE",
"403 84 LINE",
"409 36 OFFCURVE",
"433 0 OFFCURVE",
"495 0 CURVE SMOOTH"
);
},
{
closed = 1;
nodes = (
"191 55 OFFCURVE",
"150 83 OFFCURVE",
"150 136 CURVE SMOOTH",
"150 157 LINE SMOOTH",
"150 207 OFFCURVE",
"193 235 OFFCURVE",
"288 235 CURVE SMOOTH",
"398 235 LINE",
"398 150 LINE SMOOTH",
"398 97 OFFCURVE",
"339 55 OFFCURVE",
"257 55 CURVE SMOOTH"
);
}
);
width = 600;
}
);
note = uni1EA9;
unicode = 1EA9;
},
{
glyphname = uni1EAB;
lastChange = "2017-11-24 19:34:51 +0000";
layers = (
{
layerId = "6B036DBC-DFAA-4A6A-8D11-6D1679C0E942";
paths = (
{
closed = 1;
nodes = (
"165 892 OFFCURVE",
"134 866 OFFCURVE",
"116 839 CURVE",
"147 803 LINE",
"167 820 OFFCURVE",
"183 830 OFFCURVE",
"205 830 CURVE SMOOTH",
"222 830 OFFCURVE",
"243 823 OFFCURVE",
"275 806 CURVE SMOOTH",
"296 795 OFFCURVE",
"320 780 OFFCURVE",
"355 780 CURVE SMOOTH",
"401 780 OFFCURVE",
"432 806 OFFCURVE",
"450 833 CURVE",
"419 869 LINE",
"399 852 OFFCURVE",
"383 842 OFFCURVE",
"361 842 CURVE SMOOTH",
"344 842 OFFCURVE",
"323 849 OFFCURVE",
"291 866 CURVE SMOOTH",
"270 877 OFFCURVE",
"246 892 OFFCURVE",
"211 892 CURVE SMOOTH"
);
},
{
closed = 1;
nodes = (
"233 745 LINE",
"123 611 LINE",
"165 581 LINE",
"282 692 LINE",
"399 581 LINE",
"443 611 LINE",
"333 745 LINE"
);
},
{
closed = 1;
nodes = (
"550 0 LINE",
"550 70 LINE",
"478 70 LINE",
"478 354 LINE SMOOTH",
"478 463 OFFCURVE",
"401 528 OFFCURVE",
"280 528 CURVE SMOOTH",
"175 528 OFFCURVE",
"109 478 OFFCURVE",
"83 424 CURVE",
"137 384 LINE",
"164 431 OFFCURVE",
"206 460 OFFCURVE",
"275 460 CURVE SMOOTH",
"353 460 OFFCURVE",
"398 421 OFFCURVE",
"398 346 CURVE SMOOTH",
"398 295 LINE",
"288 295 LINE SMOOTH",
"133 295 OFFCURVE",
"66 240 OFFCURVE",
"66 145 CURVE SMOOTH",
"66 48 OFFCURVE",
"135 -12 OFFCURVE",
"243 -12 CURVE SMOOTH",
"327 -12 OFFCURVE",
"376 25 OFFCURVE",
"398 84 CURVE",
"403 84 LINE",
"409 36 OFFCURVE",
"433 0 OFFCURVE",
"495 0 CURVE SMOOTH"
);
},
{
closed = 1;
nodes = (
"191 55 OFFCURVE",
"150 83 OFFCURVE",
"150 136 CURVE SMOOTH",
"150 157 LINE SMOOTH",
"150 207 OFFCURVE",
"193 235 OFFCURVE",
"288 235 CURVE SMOOTH",
"398 235 LINE",
"398 150 LINE SMOOTH",
"398 97 OFFCURVE",
"339 55 OFFCURVE",
"257 55 CURVE SMOOTH"
);
}
);
width = 600;
}
);
note = uni1EAB;
unicode = 1EAB;
},
{
glyphname = aacute.alt01;
lastChange = "2017-11-24 19:34:51 +0000";
layers = (
{
layerId = "6B036DBC-DFAA-4A6A-8D11-6D1679C0E942";
paths = (
{
closed = 1;
nodes = (
"400 744 LINE",
"327 779 LINE",
"242 609 LINE",
"294 585 LINE"
);
},
{
closed = 1;
nodes = (
"425 0 LINE",
"505 0 LINE",
"505 516 LINE",
"425 516 LINE",
"425 432 LINE",
"421 432 LINE",
"388 495 OFFCURVE",
"334 528 OFFCURVE",
"262 528 CURVE SMOOTH",
"136 528 OFFCURVE",
"60 427 OFFCURVE",
"60 258 CURVE SMOOTH",
"60 89 OFFCURVE",
"136 -12 OFFCURVE",
"262 -12 CURVE SMOOTH",
"334 -12 OFFCURVE",
"388 21 OFFCURVE",
"421 84 CURVE",
"425 84 LINE"
);
},
{
closed = 1;
nodes = (
"200 59 OFFCURVE",
"146 121 OFFCURVE",
"146 214 CURVE SMOOTH",
"146 302 LINE SMOOTH",
"146 395 OFFCURVE",
"200 457 OFFCURVE",
"293 457 CURVE SMOOTH",
"364 457 OFFCURVE",
"425 420 OFFCURVE",
"425 351 CURVE SMOOTH",
"425 165 LINE SMOOTH",
"425 96 OFFCURVE",
"364 59 OFFCURVE",
"293 59 CURVE SMOOTH"
);
}
);
width = 600;
}
);
note = aacute.alt01;
},
{
glyphname = abreve.alt01;
lastChange = "2017-11-24 19:34:51 +0000";
layers = (
{
layerId = "6B036DBC-DFAA-4A6A-8D11-6D1679C0E942";
paths = (
{
closed = 1;
nodes = (
"394 595 OFFCURVE",
"429 685 OFFCURVE",
"448 746 CURVE",
"397 768 LINE",
"376 734 LINE SMOOTH",
"345 684 OFFCURVE",
"331 660 OFFCURVE",
"287 660 CURVE SMOOTH",
"243 660 OFFCURVE",
"229 684 OFFCURVE",
"198 734 CURVE SMOOTH",
"177 768 LINE",
"126 746 LINE",
"145 685 OFFCURVE",
"180 595 OFFCURVE",
"287 595 CURVE SMOOTH"
);
},
{
closed = 1;
nodes = (
"425 0 LINE",
"505 0 LINE",
"505 516 LINE",
"425 516 LINE",
"425 432 LINE",
"421 432 LINE",
"388 495 OFFCURVE",
"334 528 OFFCURVE",
"262 528 CURVE SMOOTH",
"136 528 OFFCURVE",
"60 427 OFFCURVE",
"60 258 CURVE SMOOTH",
"60 89 OFFCURVE",
"136 -12 OFFCURVE",
"262 -12 CURVE SMOOTH",
"334 -12 OFFCURVE",
"388 21 OFFCURVE",
"421 84 CURVE",
"425 84 LINE"
);
},
{
closed = 1;
nodes = (
"200 59 OFFCURVE",
"146 121 OFFCURVE",
"146 214 CURVE SMOOTH",
"146 302 LINE SMOOTH",
"146 395 OFFCURVE",
"200 457 OFFCURVE",
"293 457 CURVE SMOOTH",
"364 457 OFFCURVE",
"425 420 OFFCURVE",
"425 351 CURVE SMOOTH",
"425 165 LINE SMOOTH",
"425 96 OFFCURVE",
"364 59 OFFCURVE",
"293 59 CURVE SMOOTH"
);
}
);
width = 600;
}
);
note = abreve.alt01;
},
{
glyphname = acircumflex.alt01;
lastChange = "2017-11-24 19:34:51 +0000";
layers = (
{
layerId = "6B036DBC-DFAA-4A6A-8D11-6D1679C0E942";
paths = (
{
closed = 1;
nodes = (
"237 765 LINE",
"126 622 LINE",
"169 591 LINE",
"286 708 LINE",
"403 591 LINE",
"448 622 LINE",
"337 765 LINE"
);
},
{
closed = 1;
nodes = (
"425 0 LINE",
"505 0 LINE",
"505 516 LINE",
"425 516 LINE",
"425 432 LINE",
"421 432 LINE",
"388 495 OFFCURVE",
"334 528 OFFCURVE",
"262 528 CURVE SMOOTH",
"136 528 OFFCURVE",
"60 427 OFFCURVE",
"60 258 CURVE SMOOTH",
"60 89 OFFCURVE",
"136 -12 OFFCURVE",
"262 -12 CURVE SMOOTH",
"334 -12 OFFCURVE",
"388 21 OFFCURVE",
"421 84 CURVE",
"425 84 LINE"
);
},
{
closed = 1;
nodes = (
"200 59 OFFCURVE",
"146 121 OFFCURVE",
"146 214 CURVE SMOOTH",
"146 302 LINE SMOOTH",
"146 395 OFFCURVE",
"200 457 OFFCURVE",
"293 457 CURVE SMOOTH",
"364 457 OFFCURVE",
"425 420 OFFCURVE",
"425 351 CURVE SMOOTH",
"425 165 LINE SMOOTH",
"425 96 OFFCURVE",
"364 59 OFFCURVE",
"293 59 CURVE SMOOTH"
);
}
);
width = 600;
}
);
note = acircumflex.alt01;
},
{
glyphname = adieresis.alt01;
lastChange = "2017-11-24 19:34:51 +0000";
layers = (
{
layerId = "6B036DBC-DFAA-4A6A-8D11-6D1679C0E942";
paths = (
{
closed = 1;
nodes = (
"235 618 OFFCURVE",
"251 638 OFFCURVE",
"251 664 CURVE SMOOTH",
"251 678 LINE SMOOTH",
"251 704 OFFCURVE",
"235 724 OFFCURVE",
"194 724 CURVE SMOOTH",
"153 724 OFFCURVE",
"137 704 OFFCURVE",
"137 678 CURVE SMOOTH",
"137 664 LINE SMOOTH",
"137 638 OFFCURVE",
"153 618 OFFCURVE",
"194 618 CURVE SMOOTH"
);
},
{
closed = 1;
nodes = (
"421 618 OFFCURVE",
"437 638 OFFCURVE",
"437 664 CURVE SMOOTH",
"437 678 LINE SMOOTH",
"437 704 OFFCURVE",
"421 724 OFFCURVE",
"380 724 CURVE SMOOTH",
"339 724 OFFCURVE",
"323 704 OFFCURVE",
"323 678 CURVE SMOOTH",
"323 664 LINE SMOOTH",
"323 638 OFFCURVE",
"339 618 OFFCURVE",
"380 618 CURVE SMOOTH"
);
},
{
closed = 1;
nodes = (
"425 0 LINE",
"505 0 LINE",
"505 516 LINE",
"425 516 LINE",
"425 432 LINE",
"421 432 LINE",
"388 495 OFFCURVE",
"334 528 OFFCURVE",
"262 528 CURVE SMOOTH",
"136 528 OFFCURVE",
"60 427 OFFCURVE",
"60 258 CURVE SMOOTH",
"60 89 OFFCURVE",
"136 -12 OFFCURVE",
"262 -12 CURVE SMOOTH",
"334 -12 OFFCURVE",
"388 21 OFFCURVE",
"421 84 CURVE",
"425 84 LINE"
);
},
{
closed = 1;
nodes = (
"200 59 OFFCURVE",
"146 121 OFFCURVE",
"146 214 CURVE SMOOTH",
"146 302 LINE SMOOTH",
"146 395 OFFCURVE",
"200 457 OFFCURVE",
"293 457 CURVE SMOOTH",
"364 457 OFFCURVE",
"425 420 OFFCURVE",
"425 351 CURVE SMOOTH",
"425 165 LINE SMOOTH",
"425 96 OFFCURVE",
"364 59 OFFCURVE",
"293 59 CURVE SMOOTH"
);
}
);
width = 600;
}
);
note = adieresis.alt01;
},
{
glyphname = uni1EA1.alt01;
lastChange = "2017-11-24 19:34:51 +0000";
layers = (
{
layerId = "6B036DBC-DFAA-4A6A-8D11-6D1679C0E942";
paths = (
{
closed = 1;
nodes = (
"328 -172 OFFCURVE",
"344 -152 OFFCURVE",
"344 -126 CURVE SMOOTH",
"344 -112 LINE SMOOTH",
"344 -86 OFFCURVE",
"328 -66 OFFCURVE",
"287 -66 CURVE SMOOTH",
"246 -66 OFFCURVE",
"230 -86 OFFCURVE",
"230 -112 CURVE SMOOTH",
"230 -126 LINE SMOOTH",
"230 -152 OFFCURVE",
"246 -172 OFFCURVE",
"287 -172 CURVE SMOOTH"
);
},
{
closed = 1;
nodes = (
"425 0 LINE",
"505 0 LINE",
"505 516 LINE",
"425 516 LINE",
"425 432 LINE",
"421 432 LINE",
"388 495 OFFCURVE",
"334 528 OFFCURVE",
"262 528 CURVE SMOOTH",
"136 528 OFFCURVE",
"60 427 OFFCURVE",
"60 258 CURVE SMOOTH",
"60 89 OFFCURVE",
"136 -12 OFFCURVE",
"262 -12 CURVE SMOOTH",
"334 -12 OFFCURVE",
"388 21 OFFCURVE",
"421 84 CURVE",
"425 84 LINE"
);
},
{
closed = 1;
nodes = (
"200 59 OFFCURVE",
"146 121 OFFCURVE",
"146 214 CURVE SMOOTH",
"146 302 LINE SMOOTH",
"146 395 OFFCURVE",
"200 457 OFFCURVE",
"293 457 CURVE SMOOTH",
"364 457 OFFCURVE",
"425 420 OFFCURVE",
"425 351 CURVE SMOOTH",
"425 165 LINE SMOOTH",
"425 96 OFFCURVE",
"364 59 OFFCURVE",
"293 59 CURVE SMOOTH"
);
}
);
width = 600;
}
);
note = uni1EA1.alt01;
},
{
glyphname = agrave.alt01;
lastChange = "2017-11-24 19:34:51 +0000";
layers = (
{
layerId = "6B036DBC-DFAA-4A6A-8D11-6D1679C0E942";
paths = (
{
closed = 1;
nodes = (
"280 585 LINE",
"332 609 LINE",
"247 779 LINE",
"174 744 LINE"
);
},
{
closed = 1;
nodes = (
"425 0 LINE",
"505 0 LINE",
"505 516 LINE",
"425 516 LINE",
"425 432 LINE",
"421 432 LINE",
"388 495 OFFCURVE",
"334 528 OFFCURVE",
"262 528 CURVE SMOOTH",
"136 528 OFFCURVE",
"60 427 OFFCURVE",
"60 258 CURVE SMOOTH",
"60 89 OFFCURVE",
"136 -12 OFFCURVE",
"262 -12 CURVE SMOOTH",
"334 -12 OFFCURVE",
"388 21 OFFCURVE",
"421 84 CURVE",
"425 84 LINE"
);
},
{
closed = 1;
nodes = (
"200 59 OFFCURVE",
"146 121 OFFCURVE",
"146 214 CURVE SMOOTH",
"146 302 LINE SMOOTH",
"146 395 OFFCURVE",
"200 457 OFFCURVE",
"293 457 CURVE SMOOTH",
"364 457 OFFCURVE",
"425 420 OFFCURVE",
"425 351 CURVE SMOOTH",
"425 165 LINE SMOOTH",
"425 96 OFFCURVE",
"364 59 OFFCURVE",
"293 59 CURVE SMOOTH"
);
}
);
width = 600;
}
);
note = agrave.alt01;
},
{
glyphname = uni1EA3.alt01;
lastChange = "2017-11-24 19:34:51 +0000";
layers = (
{
layerId = "6B036DBC-DFAA-4A6A-8D11-6D1679C0E942";
paths = (
{
closed = 1;
nodes = (
"203 704 LINE",
"321 704 LINE",
"263 600 LINE",
"309 577 LINE",
"333 607 LINE SMOOTH",
"364 646 OFFCURVE",
"382 681 OFFCURVE",
"382 710 CURVE SMOOTH",
"382 740 OFFCURVE",
"363 765 OFFCURVE",
"312 765 CURVE SMOOTH",
"203 765 LINE"
);
},
{
closed = 1;
nodes = (
"425 0 LINE",
"505 0 LINE",
"505 516 LINE",
"425 516 LINE",
"425 432 LINE",
"421 432 LINE",
"388 495 OFFCURVE",
"334 528 OFFCURVE",
"262 528 CURVE SMOOTH",
"136 528 OFFCURVE",
"60 427 OFFCURVE",
"60 258 CURVE SMOOTH",
"60 89 OFFCURVE",
"136 -12 OFFCURVE",
"262 -12 CURVE SMOOTH",
"334 -12 OFFCURVE",
"388 21 OFFCURVE",
"421 84 CURVE",
"425 84 LINE"
);
},
{
closed = 1;
nodes = (
"200 59 OFFCURVE",
"146 121 OFFCURVE",
"146 214 CURVE SMOOTH",
"146 302 LINE SMOOTH",
"146 395 OFFCURVE",
"200 457 OFFCURVE",
"293 457 CURVE SMOOTH",
"364 457 OFFCURVE",
"425 420 OFFCURVE",
"425 351 CURVE SMOOTH",
"425 165 LINE SMOOTH",
"425 96 OFFCURVE",
"364 59 OFFCURVE",
"293 59 CURVE SMOOTH"
);
}
);
width = 600;
}
);
note = uni1EA3.alt01;
},
{
glyphname = amacron.alt01;
lastChange = "2017-11-24 19:34:51 +0000";
layers = (
{
layerId = "6B036DBC-DFAA-4A6A-8D11-6D1679C0E942";
paths = (
{
closed = 1;
nodes = (
"147 637 LINE",
"427 637 LINE",
"427 705 LINE",
"147 705 LINE"
);
},
{
closed = 1;
nodes = (
"425 0 LINE",
"505 0 LINE",
"505 516 LINE",
"425 516 LINE",
"425 432 LINE",
"421 432 LINE",
"388 495 OFFCURVE",
"334 528 OFFCURVE",
"262 528 CURVE SMOOTH",
"136 528 OFFCURVE",
"60 427 OFFCURVE",
"60 258 CURVE SMOOTH",
"60 89 OFFCURVE",
"136 -12 OFFCURVE",
"262 -12 CURVE SMOOTH",
"334 -12 OFFCURVE",
"388 21 OFFCURVE",
"421 84 CURVE",
"425 84 LINE"
);
},
{
closed = 1;
nodes = (
"200 59 OFFCURVE",
"146 121 OFFCURVE",
"146 214 CURVE SMOOTH",
"146 302 LINE SMOOTH",
"146 395 OFFCURVE",
"200 457 OFFCURVE",
"293 457 CURVE SMOOTH",
"364 457 OFFCURVE",
"425 420 OFFCURVE",
"425 351 CURVE SMOOTH",
"425 165 LINE SMOOTH",
"425 96 OFFCURVE",
"364 59 OFFCURVE",
"293 59 CURVE SMOOTH"
);
}
);
width = 600;
}
);
note = amacron.alt01;
},
{
glyphname = aogonek.alt01;
lastChange = "2017-11-24 19:34:51 +0000";
layers = (
{
layerId = "6B036DBC-DFAA-4A6A-8D11-6D1679C0E942";
paths = (
{
closed = 1;
nodes = (
"483 -207 OFFCURVE",
"513 -188 OFFCURVE",
"526 -166 CURVE",
"486 -125 LINE",
"473 -141 OFFCURVE",
"456 -151 OFFCURVE",
"434 -151 CURVE SMOOTH",
"413 -151 OFFCURVE",
"392 -142 OFFCURVE",
"392 -114 CURVE SMOOTH",
"392 -94 OFFCURVE",
"402 -65 OFFCURVE",
"505 0 CURVE",
"505 516 LINE",
"425 516 LINE",
"425 432 LINE",
"421 432 LINE",
"388 495 OFFCURVE",
"334 528 OFFCURVE",
"262 528 CURVE SMOOTH",
"136 528 OFFCURVE",
"60 427 OFFCURVE",
"60 258 CURVE SMOOTH",
"60 89 OFFCURVE",
"136 -12 OFFCURVE",
"262 -12 CURVE SMOOTH",
"334 -12 OFFCURVE",
"388 21 OFFCURVE",
"421 84 CURVE",
"425 84 LINE",
"425 0 LINE",
"438 0 LINE",
"439 -3 LINE",
"364 -39 OFFCURVE",
"324 -79 OFFCURVE",
"324 -127 CURVE SMOOTH",
"324 -180 OFFCURVE",
"372 -207 OFFCURVE",
"433 -207 CURVE SMOOTH"
);
},
{
closed = 1;
nodes = (
"200 59 OFFCURVE",
"146 121 OFFCURVE",
"146 214 CURVE SMOOTH",
"146 302 LINE SMOOTH",
"146 395 OFFCURVE",
"200 457 OFFCURVE",
"293 457 CURVE SMOOTH",
"364 457 OFFCURVE",
"425 420 OFFCURVE",
"425 351 CURVE SMOOTH",
"425 165 LINE SMOOTH",
"425 96 OFFCURVE",
"364 59 OFFCURVE",
"293 59 CURVE SMOOTH"
);
}
);
width = 600;
}
);
note = aogonek.alt01;
},
{
glyphname = aring.alt01;
lastChange = "2017-11-24 19:34:51 +0000";
layers = (
{
layerId = "6B036DBC-DFAA-4A6A-8D11-6D1679C0E942";
paths = (
{
closed = 1;
nodes = (
"352 576 OFFCURVE",
"403 625 OFFCURVE",
"403 691 CURVE SMOOTH",
"403 757 OFFCURVE",
"352 806 OFFCURVE",
"287 806 CURVE SMOOTH",
"222 806 OFFCURVE",
"171 757 OFFCURVE",
"171 691 CURVE SMOOTH",
"171 625 OFFCURVE",
"222 576 OFFCURVE",
"287 576 CURVE SMOOTH"
);
},
{
closed = 1;
nodes = (
"251 625 OFFCURVE",
"229 645 OFFCURVE",
"229 680 CURVE SMOOTH",
"229 702 LINE SMOOTH",
"229 737 OFFCURVE",
"251 757 OFFCURVE",
"287 757 CURVE SMOOTH",
"323 757 OFFCURVE",
"345 737 OFFCURVE",
"345 702 CURVE SMOOTH",
"345 680 LINE SMOOTH",
"345 645 OFFCURVE",
"323 625 OFFCURVE",
"287 625 CURVE SMOOTH"
);
},
{
closed = 1;
nodes = (
"425 0 LINE",
"505 0 LINE",
"505 516 LINE",
"425 516 LINE",
"425 432 LINE",
"421 432 LINE",
"388 495 OFFCURVE",
"334 528 OFFCURVE",
"262 528 CURVE SMOOTH",
"136 528 OFFCURVE",
"60 427 OFFCURVE",
"60 258 CURVE SMOOTH",
"60 89 OFFCURVE",
"136 -12 OFFCURVE",
"262 -12 CURVE SMOOTH",
"334 -12 OFFCURVE",
"388 21 OFFCURVE",
"421 84 CURVE",
"425 84 LINE"
);
},
{
closed = 1;
nodes = (
"200 59 OFFCURVE",
"146 121 OFFCURVE",
"146 214 CURVE SMOOTH",
"146 302 LINE SMOOTH",
"146 395 OFFCURVE",
"200 457 OFFCURVE",
"293 457 CURVE SMOOTH",
"364 457 OFFCURVE",
"425 420 OFFCURVE",
"425 351 CURVE SMOOTH",
"425 165 LINE SMOOTH",
"425 96 OFFCURVE",
"364 59 OFFCURVE",
"293 59 CURVE SMOOTH"
);
}
);
width = 600;
}
);
note = aring.alt01;
},
{
glyphname = aringacute.alt01;
lastChange = "2017-11-24 19:34:51 +0000";
layers = (
{
layerId = "6B036DBC-DFAA-4A6A-8D11-6D1679C0E942";
paths = (
{
closed = 1;
nodes = (
"392 919 LINE",
"332 956 LINE",
"257 840 LINE",
"298 814 LINE"
);
},
{
closed = 1;
nodes = (
"352 566 OFFCURVE",
"403 615 OFFCURVE",
"403 681 CURVE SMOOTH",
"403 747 OFFCURVE",
"352 796 OFFCURVE",
"287 796 CURVE SMOOTH",
"222 796 OFFCURVE",
"171 747 OFFCURVE",
"171 681 CURVE SMOOTH",
"171 615 OFFCURVE",
"222 566 OFFCURVE",
"287 566 CURVE SMOOTH"
);
},
{
closed = 1;
nodes = (
"251 615 OFFCURVE",
"229 635 OFFCURVE",
"229 670 CURVE SMOOTH",
"229 692 LINE SMOOTH",
"229 727 OFFCURVE",
"251 747 OFFCURVE",
"287 747 CURVE SMOOTH",
"323 747 OFFCURVE",
"345 727 OFFCURVE",
"345 692 CURVE SMOOTH",
"345 670 LINE SMOOTH",
"345 635 OFFCURVE",
"323 615 OFFCURVE",
"287 615 CURVE SMOOTH"
);
},
{
closed = 1;
nodes = (
"425 0 LINE",
"505 0 LINE",
"505 516 LINE",
"425 516 LINE",
"425 432 LINE",
"421 432 LINE",
"388 495 OFFCURVE",
"334 528 OFFCURVE",
"262 528 CURVE SMOOTH",
"136 528 OFFCURVE",
"60 427 OFFCURVE",
"60 258 CURVE SMOOTH",
"60 89 OFFCURVE",
"136 -12 OFFCURVE",
"262 -12 CURVE SMOOTH",
"334 -12 OFFCURVE",
"388 21 OFFCURVE",
"421 84 CURVE",
"425 84 LINE"
);
},
{
closed = 1;
nodes = (
"200 59 OFFCURVE",
"146 121 OFFCURVE",
"146 214 CURVE SMOOTH",
"146 302 LINE SMOOTH",
"146 395 OFFCURVE",
"200 457 OFFCURVE",
"293 457 CURVE SMOOTH",
"364 457 OFFCURVE",
"425 420 OFFCURVE",
"425 351 CURVE SMOOTH",
"425 165 LINE SMOOTH",
"425 96 OFFCURVE",
"364 59 OFFCURVE",
"293 59 CURVE SMOOTH"
);
}
);
width = 600;
}
);
note = aringacute.alt01;
},
{
glyphname = atilde.alt01;
lastChange = "2017-11-24 19:34:51 +0000";
layers = (
{
layerId = "6B036DBC-DFAA-4A6A-8D11-6D1679C0E942";
paths = (
{
closed = 1;
nodes = (
"406 612 OFFCURVE",
"437 638 OFFCURVE",
"455 665 CURVE",
"422 705 LINE",
"402 688 OFFCURVE",
"386 678 OFFCURVE",
"364 678 CURVE SMOOTH",
"347 678 OFFCURVE",
"326 685 OFFCURVE",
"294 702 CURVE SMOOTH",
"273 713 OFFCURVE",
"249 728 OFFCURVE",
"214 728 CURVE SMOOTH",
"168 728 OFFCURVE",
"137 702 OFFCURVE",
"119 675 CURVE",
"152 635 LINE",
"172 652 OFFCURVE",
"188 662 OFFCURVE",
"210 662 CURVE SMOOTH",
"227 662 OFFCURVE",
"248 655 OFFCURVE",
"280 638 CURVE SMOOTH",
"301 627 OFFCURVE",
"325 612 OFFCURVE",
"360 612 CURVE SMOOTH"
);
},
{
closed = 1;
nodes = (
"425 0 LINE",
"505 0 LINE",
"505 516 LINE",
"425 516 LINE",
"425 432 LINE",
"421 432 LINE",
"388 495 OFFCURVE",
"334 528 OFFCURVE",
"262 528 CURVE SMOOTH",
"136 528 OFFCURVE",
"60 427 OFFCURVE",
"60 258 CURVE SMOOTH",
"60 89 OFFCURVE",
"136 -12 OFFCURVE",
"262 -12 CURVE SMOOTH",
"334 -12 OFFCURVE",
"388 21 OFFCURVE",
"421 84 CURVE",
"425 84 LINE"
);
},
{
closed = 1;
nodes = (
"200 59 OFFCURVE",
"146 121 OFFCURVE",
"146 214 CURVE SMOOTH",
"146 302 LINE SMOOTH",
"146 395 OFFCURVE",
"200 457 OFFCURVE",
"293 457 CURVE SMOOTH",
"364 457 OFFCURVE",
"425 420 OFFCURVE",
"425 351 CURVE SMOOTH",
"425 165 LINE SMOOTH",
"425 96 OFFCURVE",
"364 59 OFFCURVE",
"293 59 CURVE SMOOTH"
);
}
);
width = 600;
}
);
note = atilde.alt01;
},
{
glyphname = uni1EAF.alt01;
lastChange = "2017-11-24 19:34:51 +0000";
layers = (
{
layerId = "6B036DBC-DFAA-4A6A-8D11-6D1679C0E942";
paths = (
{
closed = 1;
nodes = (
"390 585 OFFCURVE",
"432 659 OFFCURVE",
"453 724 CURVE",
"406 747 LINE",
"385 715 LINE SMOOTH",
"353 667 OFFCURVE",
"331 649 OFFCURVE",
"287 649 CURVE SMOOTH",
"243 649 OFFCURVE",
"221 667 OFFCURVE",
"189 715 CURVE SMOOTH",
"168 747 LINE",
"121 724 LINE",
"140 665 OFFCURVE",
"179 585 OFFCURVE",
"286 585 CURVE SMOOTH"
);
},
{
closed = 1;
nodes = (
"400 867 LINE",
"330 901 LINE",
"245 731 LINE",
"294 708 LINE"
);
},
{
closed = 1;
nodes = (
"425 0 LINE",
"505 0 LINE",
"505 516 LINE",
"425 516 LINE",
"425 432 LINE",
"421 432 LINE",
"388 495 OFFCURVE",
"334 528 OFFCURVE",
"262 528 CURVE SMOOTH",
"136 528 OFFCURVE",
"60 427 OFFCURVE",
"60 258 CURVE SMOOTH",
"60 89 OFFCURVE",
"136 -12 OFFCURVE",
"262 -12 CURVE SMOOTH",
"334 -12 OFFCURVE",
"388 21 OFFCURVE",
"421 84 CURVE",
"425 84 LINE"
);
},
{
closed = 1;
nodes = (
"200 59 OFFCURVE",
"146 121 OFFCURVE",
"146 214 CURVE SMOOTH",
"146 302 LINE SMOOTH",
"146 395 OFFCURVE",
"200 457 OFFCURVE",
"293 457 CURVE SMOOTH",
"364 457 OFFCURVE",
"425 420 OFFCURVE",
"425 351 CURVE SMOOTH",
"425 165 LINE SMOOTH",
"425 96 OFFCURVE",
"364 59 OFFCURVE",
"293 59 CURVE SMOOTH"
);
}
);
width = 600;
}
);
note = uni1EAF.alt01;
},
{
glyphname = uni1EB7.alt01;
lastChange = "2017-11-24 19:34:51 +0000";
layers = (
{
layerId = "6B036DBC-DFAA-4A6A-8D11-6D1679C0E942";
paths = (
{
closed = 1;
nodes = (
"328 -172 OFFCURVE",
"344 -152 OFFCURVE",
"344 -126 CURVE SMOOTH",
"344 -112 LINE SMOOTH",
"344 -86 OFFCURVE",
"328 -66 OFFCURVE",
"287 -66 CURVE SMOOTH",
"246 -66 OFFCURVE",
"230 -86 OFFCURVE",
"230 -112 CURVE SMOOTH",
"230 -126 LINE SMOOTH",
"230 -152 OFFCURVE",
"246 -172 OFFCURVE",
"287 -172 CURVE SMOOTH"
);
},
{
closed = 1;
nodes = (
"394 595 OFFCURVE",
"429 685 OFFCURVE",
"448 746 CURVE",
"397 768 LINE",
"376 734 LINE SMOOTH",
"345 684 OFFCURVE",
"331 660 OFFCURVE",
"287 660 CURVE SMOOTH",
"243 660 OFFCURVE",
"229 684 OFFCURVE",
"198 734 CURVE SMOOTH",
"177 768 LINE",
"126 746 LINE",
"145 685 OFFCURVE",
"180 595 OFFCURVE",
"287 595 CURVE SMOOTH"
);
},
{
closed = 1;
nodes = (
"425 0 LINE",
"505 0 LINE",
"505 516 LINE",
"425 516 LINE",
"425 432 LINE",
"421 432 LINE",
"388 495 OFFCURVE",
"334 528 OFFCURVE",
"262 528 CURVE SMOOTH",
"136 528 OFFCURVE",
"60 427 OFFCURVE",
"60 258 CURVE SMOOTH",
"60 89 OFFCURVE",
"136 -12 OFFCURVE",
"262 -12 CURVE SMOOTH",
"334 -12 OFFCURVE",
"388 21 OFFCURVE",
"421 84 CURVE",
"425 84 LINE"
);
},
{
closed = 1;
nodes = (
"200 59 OFFCURVE",
"146 121 OFFCURVE",
"146 214 CURVE SMOOTH",
"146 302 LINE SMOOTH",
"146 395 OFFCURVE",
"200 457 OFFCURVE",
"293 457 CURVE SMOOTH",
"364 457 OFFCURVE",
"425 420 OFFCURVE",
"425 351 CURVE SMOOTH",
"425 165 LINE SMOOTH",
"425 96 OFFCURVE",
"364 59 OFFCURVE",
"293 59 CURVE SMOOTH"
);
}
);
width = 600;
}
);
note = uni1EB7.alt01;
},
{
glyphname = uni1EB1.alt01;
lastChange = "2017-11-24 19:34:51 +0000";
layers = (
{
layerId = "6B036DBC-DFAA-4A6A-8D11-6D1679C0E942";
paths = (
{
closed = 1;
nodes = (
"395 585 OFFCURVE",
"434 665 OFFCURVE",
"453 724 CURVE",
"406 747 LINE",
"385 715 LINE SMOOTH",
"353 667 OFFCURVE",
"331 649 OFFCURVE",
"287 649 CURVE SMOOTH",
"243 649 OFFCURVE",
"221 667 OFFCURVE",
"189 715 CURVE SMOOTH",
"168 747 LINE",
"121 724 LINE",
"142 659 OFFCURVE",
"184 585 OFFCURVE",
"288 585 CURVE SMOOTH"
);
},
{
closed = 1;
nodes = (
"280 708 LINE",
"329 731 LINE",
"244 901 LINE",
"174 867 LINE"
);
},
{
closed = 1;
nodes = (
"425 0 LINE",
"505 0 LINE",
"505 516 LINE",
"425 516 LINE",
"425 432 LINE",
"421 432 LINE",
"388 495 OFFCURVE",
"334 528 OFFCURVE",
"262 528 CURVE SMOOTH",
"136 528 OFFCURVE",
"60 427 OFFCURVE",
"60 258 CURVE SMOOTH",
"60 89 OFFCURVE",
"136 -12 OFFCURVE",
"262 -12 CURVE SMOOTH",
"334 -12 OFFCURVE",
"388 21 OFFCURVE",
"421 84 CURVE",
"425 84 LINE"
);
},
{
closed = 1;
nodes = (
"200 59 OFFCURVE",
"146 121 OFFCURVE",
"146 214 CURVE SMOOTH",
"146 302 LINE SMOOTH",
"146 395 OFFCURVE",
"200 457 OFFCURVE",
"293 457 CURVE SMOOTH",
"364 457 OFFCURVE",
"425 420 OFFCURVE",
"425 351 CURVE SMOOTH",
"425 165 LINE SMOOTH",
"425 96 OFFCURVE",
"364 59 OFFCURVE",
"293 59 CURVE SMOOTH"
);
}
);
width = 600;
}
);
note = uni1EB1.alt01;
},
{
glyphname = uni1EB3.alt01;
lastChange = "2017-11-24 19:34:51 +0000";
layers = (
{
layerId = "6B036DBC-DFAA-4A6A-8D11-6D1679C0E942";
paths = (
{
closed = 1;
nodes = (
"395 585 OFFCURVE",
"434 665 OFFCURVE",
"453 724 CURVE",
"406 747 LINE",
"385 715 LINE SMOOTH",
"353 667 OFFCURVE",
"331 649 OFFCURVE",
"287 649 CURVE SMOOTH",
"243 649 OFFCURVE",
"221 667 OFFCURVE",
"189 715 CURVE SMOOTH",
"168 747 LINE",
"121 724 LINE",
"142 659 OFFCURVE",
"184 585 OFFCURVE",
"288 585 CURVE SMOOTH"
);
},
{
closed = 1;
nodes = (
"202 829 LINE",
"305 829 LINE",
"247 725 LINE",
"293 702 LINE",
"317 732 LINE SMOOTH",
"348 771 OFFCURVE",
"366 806 OFFCURVE",
"366 835 CURVE SMOOTH",
"366 865 OFFCURVE",
"347 890 OFFCURVE",
"296 890 CURVE SMOOTH",
"202 890 LINE"
);
},
{
closed = 1;
nodes = (
"425 0 LINE",
"505 0 LINE",
"505 516 LINE",
"425 516 LINE",
"425 432 LINE",
"421 432 LINE",
"388 495 OFFCURVE",
"334 528 OFFCURVE",
"262 528 CURVE SMOOTH",
"136 528 OFFCURVE",
"60 427 OFFCURVE",
"60 258 CURVE SMOOTH",
"60 89 OFFCURVE",
"136 -12 OFFCURVE",
"262 -12 CURVE SMOOTH",
"334 -12 OFFCURVE",
"388 21 OFFCURVE",
"421 84 CURVE",
"425 84 LINE"
);
},
{
closed = 1;
nodes = (
"200 59 OFFCURVE",
"146 121 OFFCURVE",
"146 214 CURVE SMOOTH",
"146 302 LINE SMOOTH",
"146 395 OFFCURVE",
"200 457 OFFCURVE",
"293 457 CURVE SMOOTH",
"364 457 OFFCURVE",
"425 420 OFFCURVE",
"425 351 CURVE SMOOTH",
"425 165 LINE SMOOTH",
"425 96 OFFCURVE",
"364 59 OFFCURVE",
"293 59 CURVE SMOOTH"
);
}
);
width = 600;
}
);
note = uni1EB3.alt01;
},
{
glyphname = uni1EB5.alt01;
lastChange = "2017-11-24 19:34:51 +0000";
layers = (
{
layerId = "6B036DBC-DFAA-4A6A-8D11-6D1679C0E942";
paths = (
{
closed = 1;
nodes = (
"395 585 OFFCURVE",
"434 665 OFFCURVE",
"453 724 CURVE",
"406 747 LINE",
"385 715 LINE SMOOTH",
"353 667 OFFCURVE",
"331 649 OFFCURVE",
"287 649 CURVE SMOOTH",
"243 649 OFFCURVE",
"221 667 OFFCURVE",
"189 715 CURVE SMOOTH",
"168 747 LINE",
"121 724 LINE",
"142 659 OFFCURVE",
"184 585 OFFCURVE",
"288 585 CURVE SMOOTH"
);
},
{
closed = 1;
nodes = (
"405 769 OFFCURVE",
"436 795 OFFCURVE",
"454 822 CURVE",
"423 858 LINE",
"403 841 OFFCURVE",
"387 831 OFFCURVE",
"365 831 CURVE SMOOTH",
"348 831 OFFCURVE",
"327 838 OFFCURVE",
"295 855 CURVE SMOOTH",
"274 866 OFFCURVE",
"250 881 OFFCURVE",
"215 881 CURVE SMOOTH",
"169 881 OFFCURVE",
"138 855 OFFCURVE",
"120 828 CURVE",
"151 792 LINE",
"171 809 OFFCURVE",
"187 819 OFFCURVE",
"209 819 CURVE SMOOTH",
"226 819 OFFCURVE",
"247 812 OFFCURVE",
"279 795 CURVE SMOOTH",
"300 784 OFFCURVE",
"324 769 OFFCURVE",
"359 769 CURVE SMOOTH"
);
},
{
closed = 1;
nodes = (
"425 0 LINE",
"505 0 LINE",
"505 516 LINE",
"425 516 LINE",
"425 432 LINE",
"421 432 LINE",
"388 495 OFFCURVE",
"334 528 OFFCURVE",
"262 528 CURVE SMOOTH",
"136 528 OFFCURVE",
"60 427 OFFCURVE",
"60 258 CURVE SMOOTH",
"60 89 OFFCURVE",
"136 -12 OFFCURVE",
"262 -12 CURVE SMOOTH",
"334 -12 OFFCURVE",
"388 21 OFFCURVE",
"421 84 CURVE",
"425 84 LINE"
);
},
{
closed = 1;
nodes = (
"200 59 OFFCURVE",
"146 121 OFFCURVE",
"146 214 CURVE SMOOTH",
"146 302 LINE SMOOTH",
"146 395 OFFCURVE",
"200 457 OFFCURVE",
"293 457 CURVE SMOOTH",
"364 457 OFFCURVE",
"425 420 OFFCURVE",
"425 351 CURVE SMOOTH",
"425 165 LINE SMOOTH",
"425 96 OFFCURVE",
"364 59 OFFCURVE",
"293 59 CURVE SMOOTH"
);
}
);
width = 600;
}
);
note = uni1EB5.alt01;
},
{
glyphname = uni1EA5.alt01;
lastChange = "2017-11-24 19:34:51 +0000";
layers = (
{
layerId = "6B036DBC-DFAA-4A6A-8D11-6D1679C0E942";
paths = (
{
closed = 1;
nodes = (
"547 871 LINE",
"477 905 LINE",
"392 735 LINE",
"441 712 LINE"
);
},
{
closed = 1;
nodes = (
"237 755 LINE",
"127 611 LINE",
"169 581 LINE",
"286 700 LINE",
"403 581 LINE",
"447 611 LINE",
"337 755 LINE"
);
},
{
closed = 1;
nodes = (
"425 0 LINE",
"505 0 LINE",
"505 516 LINE",
"425 516 LINE",
"425 432 LINE",
"421 432 LINE",
"388 495 OFFCURVE",
"334 528 OFFCURVE",
"262 528 CURVE SMOOTH",
"136 528 OFFCURVE",
"60 427 OFFCURVE",
"60 258 CURVE SMOOTH",
"60 89 OFFCURVE",
"136 -12 OFFCURVE",
"262 -12 CURVE SMOOTH",
"334 -12 OFFCURVE",
"388 21 OFFCURVE",
"421 84 CURVE",
"425 84 LINE"
);
},
{
closed = 1;
nodes = (
"200 59 OFFCURVE",
"146 121 OFFCURVE",
"146 214 CURVE SMOOTH",
"146 302 LINE SMOOTH",
"146 395 OFFCURVE",
"200 457 OFFCURVE",
"293 457 CURVE SMOOTH",
"364 457 OFFCURVE",
"425 420 OFFCURVE",
"425 351 CURVE SMOOTH",
"425 165 LINE SMOOTH",
"425 96 OFFCURVE",
"364 59 OFFCURVE",
"293 59 CURVE SMOOTH"
);
}
);
width = 600;
}
);
note = uni1EA5.alt01;
},
{
glyphname = uni1EAD.alt01;
lastChange = "2017-11-24 19:34:51 +0000";
layers = (
{
layerId = "6B036DBC-DFAA-4A6A-8D11-6D1679C0E942";
paths = (
{
closed = 1;
nodes = (
"328 -172 OFFCURVE",
"344 -152 OFFCURVE",
"344 -126 CURVE SMOOTH",
"344 -112 LINE SMOOTH",
"344 -86 OFFCURVE",
"328 -66 OFFCURVE",
"287 -66 CURVE SMOOTH",
"246 -66 OFFCURVE",
"230 -86 OFFCURVE",
"230 -112 CURVE SMOOTH",
"230 -126 LINE SMOOTH",
"230 -152 OFFCURVE",
"246 -172 OFFCURVE",
"287 -172 CURVE SMOOTH"
);
},
{
closed = 1;
nodes = (
"237 765 LINE",
"126 622 LINE",
"169 591 LINE",
"286 708 LINE",
"403 591 LINE",
"448 622 LINE",
"337 765 LINE"
);
},
{
closed = 1;
nodes = (
"425 0 LINE",
"505 0 LINE",
"505 516 LINE",
"425 516 LINE",
"425 432 LINE",
"421 432 LINE",
"388 495 OFFCURVE",
"334 528 OFFCURVE",
"262 528 CURVE SMOOTH",
"136 528 OFFCURVE",
"60 427 OFFCURVE",
"60 258 CURVE SMOOTH",
"60 89 OFFCURVE",
"136 -12 OFFCURVE",
"262 -12 CURVE SMOOTH",
"334 -12 OFFCURVE",
"388 21 OFFCURVE",
"421 84 CURVE",
"425 84 LINE"
);
},
{
closed = 1;
nodes = (
"200 59 OFFCURVE",
"146 121 OFFCURVE",
"146 214 CURVE SMOOTH",
"146 302 LINE SMOOTH",
"146 395 OFFCURVE",
"200 457 OFFCURVE",
"293 457 CURVE SMOOTH",
"364 457 OFFCURVE",
"425 420 OFFCURVE",
"425 351 CURVE SMOOTH",
"425 165 LINE SMOOTH",
"425 96 OFFCURVE",
"364 59 OFFCURVE",
"293 59 CURVE SMOOTH"
);
}
);
width = 600;
}
);
note = uni1EAD.alt01;
},
{
glyphname = uni1EA7.alt01;
lastChange = "2017-11-24 19:34:51 +0000";
layers = (
{
layerId = "6B036DBC-DFAA-4A6A-8D11-6D1679C0E942";
paths = (
{
closed = 1;
nodes = (
"133 712 LINE",
"182 735 LINE",
"97 905 LINE",
"27 871 LINE"
);
},
{
closed = 1;
nodes = (
"237 755 LINE",
"127 611 LINE",
"169 581 LINE",
"286 700 LINE",
"403 581 LINE",
"447 611 LINE",
"337 755 LINE"
);
},
{
closed = 1;
nodes = (
"425 0 LINE",
"505 0 LINE",
"505 516 LINE",
"425 516 LINE",
"425 432 LINE",
"421 432 LINE",
"388 495 OFFCURVE",
"334 528 OFFCURVE",
"262 528 CURVE SMOOTH",
"136 528 OFFCURVE",
"60 427 OFFCURVE",
"60 258 CURVE SMOOTH",
"60 89 OFFCURVE",
"136 -12 OFFCURVE",
"262 -12 CURVE SMOOTH",
"334 -12 OFFCURVE",
"388 21 OFFCURVE",
"421 84 CURVE",
"425 84 LINE"
);
},
{
closed = 1;
nodes = (
"200 59 OFFCURVE",
"146 121 OFFCURVE",
"146 214 CURVE SMOOTH",
"146 302 LINE SMOOTH",
"146 395 OFFCURVE",
"200 457 OFFCURVE",
"293 457 CURVE SMOOTH",
"364 457 OFFCURVE",
"425 420 OFFCURVE",
"425 351 CURVE SMOOTH",
"425 165 LINE SMOOTH",
"425 96 OFFCURVE",
"364 59 OFFCURVE",
"293 59 CURVE SMOOTH"
);
}
);
width = 600;
}
);
note = uni1EA7.alt01;
},
{
glyphname = uni1EA9.alt01;
lastChange = "2017-11-24 19:34:51 +0000";
layers = (
{
layerId = "6B036DBC-DFAA-4A6A-8D11-6D1679C0E942";
paths = (
{
closed = 1;
nodes = (
"340 833 LINE",
"458 833 LINE",
"400 729 LINE",
"446 706 LINE",
"470 736 LINE SMOOTH",
"501 775 OFFCURVE",
"519 810 OFFCURVE",
"519 839 CURVE SMOOTH",
"519 869 OFFCURVE",
"500 894 OFFCURVE",
"449 894 CURVE SMOOTH",
"340 894 LINE"
);
},
{
closed = 1;
nodes = (
"237 755 LINE",
"127 611 LINE",
"169 581 LINE",
"286 700 LINE",
"403 581 LINE",
"447 611 LINE",
"337 755 LINE"
);
},
{
closed = 1;
nodes = (
"425 0 LINE",
"505 0 LINE",
"505 516 LINE",
"425 516 LINE",
"425 432 LINE",
"421 432 LINE",
"388 495 OFFCURVE",
"334 528 OFFCURVE",
"262 528 CURVE SMOOTH",
"136 528 OFFCURVE",
"60 427 OFFCURVE",
"60 258 CURVE SMOOTH",
"60 89 OFFCURVE",
"136 -12 OFFCURVE",
"262 -12 CURVE SMOOTH",
"334 -12 OFFCURVE",
"388 21 OFFCURVE",
"421 84 CURVE",
"425 84 LINE"
);
},
{
closed = 1;
nodes = (
"200 59 OFFCURVE",
"146 121 OFFCURVE",
"146 214 CURVE SMOOTH",
"146 302 LINE SMOOTH",
"146 395 OFFCURVE",
"200 457 OFFCURVE",
"293 457 CURVE SMOOTH",
"364 457 OFFCURVE",
"425 420 OFFCURVE",
"425 351 CURVE SMOOTH",
"425 165 LINE SMOOTH",
"425 96 OFFCURVE",
"364 59 OFFCURVE",
"293 59 CURVE SMOOTH"
);
}
);
width = 600;
}
);
note = uni1EA9.alt01;
},
{
glyphname = uni1EAB.alt01;
lastChange = "2017-11-24 19:34:51 +0000";
layers = (
{
layerId = "6B036DBC-DFAA-4A6A-8D11-6D1679C0E942";
paths = (
{
closed = 1;
nodes = (
"169 892 OFFCURVE",
"138 866 OFFCURVE",
"120 839 CURVE",
"151 803 LINE",
"171 820 OFFCURVE",
"187 830 OFFCURVE",
"209 830 CURVE SMOOTH",
"226 830 OFFCURVE",
"247 823 OFFCURVE",
"279 806 CURVE SMOOTH",
"300 795 OFFCURVE",
"324 780 OFFCURVE",
"359 780 CURVE SMOOTH",
"405 780 OFFCURVE",
"436 806 OFFCURVE",
"454 833 CURVE",
"423 869 LINE",
"403 852 OFFCURVE",
"387 842 OFFCURVE",
"365 842 CURVE SMOOTH",
"348 842 OFFCURVE",
"327 849 OFFCURVE",
"295 866 CURVE SMOOTH",
"274 877 OFFCURVE",
"250 892 OFFCURVE",
"215 892 CURVE SMOOTH"
);
},
{
closed = 1;
nodes = (
"237 745 LINE",
"127 611 LINE",
"169 581 LINE",
"286 692 LINE",
"403 581 LINE",
"447 611 LINE",
"337 745 LINE"
);
},
{
closed = 1;
nodes = (
"425 0 LINE",
"505 0 LINE",
"505 516 LINE",
"425 516 LINE",
"425 432 LINE",
"421 432 LINE",
"388 495 OFFCURVE",
"334 528 OFFCURVE",
"262 528 CURVE SMOOTH",
"136 528 OFFCURVE",
"60 427 OFFCURVE",
"60 258 CURVE SMOOTH",
"60 89 OFFCURVE",
"136 -12 OFFCURVE",
"262 -12 CURVE SMOOTH",
"334 -12 OFFCURVE",
"388 21 OFFCURVE",
"421 84 CURVE",
"425 84 LINE"
);
},
{
closed = 1;
nodes = (
"200 59 OFFCURVE",
"146 121 OFFCURVE",
"146 214 CURVE SMOOTH",
"146 302 LINE SMOOTH",
"146 395 OFFCURVE",
"200 457 OFFCURVE",
"293 457 CURVE SMOOTH",
"364 457 OFFCURVE",
"425 420 OFFCURVE",
"425 351 CURVE SMOOTH",
"425 165 LINE SMOOTH",
"425 96 OFFCURVE",
"364 59 OFFCURVE",
"293 59 CURVE SMOOTH"
);
}
);
width = 600;
}
);
note = uni1EAB.alt01;
},
{
glyphname = ae;
lastChange = "2017-11-24 19:34:51 +0000";
layers = (
{
layerId = "6B036DBC-DFAA-4A6A-8D11-6D1679C0E942";
paths = (
{
closed = 1;
nodes = (
"203 -12 OFFCURVE",
"251 24 OFFCURVE",
"269 102 CURVE",
"272 102 LINE",
"300 30 OFFCURVE",
"350 -12 OFFCURVE",
"418 -12 CURVE SMOOTH",
"502 -12 OFFCURVE",
"554 53 OFFCURVE",
"574 114 CURVE",
"516 141 LINE",
"499 96 OFFCURVE",
"472 52 OFFCURVE",
"420 52 CURVE SMOOTH",
"357 52 OFFCURVE",
"324 119 OFFCURVE",
"324 213 CURVE SMOOTH",
"324 238 LINE",
"582 238 LINE",
"582 289 LINE SMOOTH",
"582 436 OFFCURVE",
"519 528 OFFCURVE",
"423 528 CURVE SMOOTH",
"370 528 OFFCURVE",
"329 500 OFFCURVE",
"300 450 CURVE",
"297 450 LINE",
"274 500 OFFCURVE",
"233 528 OFFCURVE",
"173 528 CURVE SMOOTH",
"93 528 OFFCURVE",
"43 476 OFFCURVE",
"22 422 CURVE",
"75 389 LINE",
"95 435 OFFCURVE",
"120 468 OFFCURVE",
"168 468 CURVE SMOOTH",
"221 468 OFFCURVE",
"251 427 OFFCURVE",
"251 348 CURVE SMOOTH",
"251 295 LINE",
"188 295 LINE SMOOTH",
"73 295 OFFCURVE",
"10 243 OFFCURVE",
"10 136 CURVE SMOOTH",
"10 41 OFFCURVE",
"66 -12 OFFCURVE",
"141 -12 CURVE SMOOTH"
);
},
{
closed = 1;
nodes = (
"102 50 OFFCURVE",
"83 83 OFFCURVE",
"83 137 CURVE SMOOTH",
"83 152 LINE SMOOTH",
"83 213 OFFCURVE",
"126 238 OFFCURVE",
"199 238 CURVE SMOOTH",
"251 238 LINE",
"251 154 LINE SMOOTH",
"251 99 OFFCURVE",
"220 50 OFFCURVE",
"155 50 CURVE SMOOTH"
);
},
{
closed = 1;
nodes = (
"477 470 OFFCURVE",
"516 400 OFFCURVE",
"516 307 CURVE SMOOTH",
"516 295 LINE",
"324 295 LINE",
"324 307 LINE SMOOTH",
"324 400 OFFCURVE",
"363 470 OFFCURVE",
"420 470 CURVE SMOOTH"
);
}
);
width = 600;
}
);
note = ae;
unicode = 00E6;
},
{
glyphname = aeacute;
lastChange = "2017-11-24 19:34:51 +0000";
layers = (
{
layerId = "6B036DBC-DFAA-4A6A-8D11-6D1679C0E942";
paths = (
{
closed = 1;
nodes = (
"413 744 LINE",
"340 779 LINE",
"255 609 LINE",
"307 585 LINE"
);
},
{
closed = 1;
nodes = (
"203 -12 OFFCURVE",
"251 24 OFFCURVE",
"269 102 CURVE",
"272 102 LINE",
"300 30 OFFCURVE",
"350 -12 OFFCURVE",
"418 -12 CURVE SMOOTH",
"502 -12 OFFCURVE",
"554 53 OFFCURVE",
"574 114 CURVE",
"516 141 LINE",
"499 96 OFFCURVE",
"472 52 OFFCURVE",
"420 52 CURVE SMOOTH",
"357 52 OFFCURVE",
"324 119 OFFCURVE",
"324 213 CURVE SMOOTH",
"324 238 LINE",
"582 238 LINE",
"582 289 LINE SMOOTH",
"582 436 OFFCURVE",
"519 528 OFFCURVE",
"423 528 CURVE SMOOTH",
"370 528 OFFCURVE",
"329 500 OFFCURVE",
"300 450 CURVE",
"297 450 LINE",
"274 500 OFFCURVE",
"233 528 OFFCURVE",
"173 528 CURVE SMOOTH",
"93 528 OFFCURVE",
"43 476 OFFCURVE",
"22 422 CURVE",
"75 389 LINE",
"95 435 OFFCURVE",
"120 468 OFFCURVE",
"168 468 CURVE SMOOTH",
"221 468 OFFCURVE",
"251 427 OFFCURVE",
"251 348 CURVE SMOOTH",
"251 295 LINE",
"188 295 LINE SMOOTH",
"73 295 OFFCURVE",
"10 243 OFFCURVE",
"10 136 CURVE SMOOTH",
"10 41 OFFCURVE",
"66 -12 OFFCURVE",
"141 -12 CURVE SMOOTH"
);
},
{
closed = 1;
nodes = (
"102 50 OFFCURVE",
"83 83 OFFCURVE",
"83 137 CURVE SMOOTH",
"83 152 LINE SMOOTH",
"83 213 OFFCURVE",
"126 238 OFFCURVE",
"199 238 CURVE SMOOTH",
"251 238 LINE",
"251 154 LINE SMOOTH",
"251 99 OFFCURVE",
"220 50 OFFCURVE",
"155 50 CURVE SMOOTH"
);
},
{
closed = 1;
nodes = (
"477 470 OFFCURVE",
"516 400 OFFCURVE",
"516 307 CURVE SMOOTH",
"516 295 LINE",
"324 295 LINE",
"324 307 LINE SMOOTH",
"324 400 OFFCURVE",
"363 470 OFFCURVE",
"420 470 CURVE SMOOTH"
);
}
);
width = 600;
}
);
note = aeacute;
unicode = 01FD;
},
{
glyphname = cacute;
lastChange = "2017-11-24 19:34:51 +0000";
layers = (
{
layerId = "6B036DBC-DFAA-4A6A-8D11-6D1679C0E942";
paths = (
{
closed = 1;
nodes = (
"426 744 LINE",
"353 779 LINE",
"268 609 LINE",
"320 585 LINE"
);
},
{
closed = 1;
nodes = (
"421 -12 OFFCURVE",
"486 39 OFFCURVE",
"516 108 CURVE",
"459 147 LINE",
"433 91 OFFCURVE",
"388 57 OFFCURVE",
"319 57 CURVE SMOOTH",
"222 57 OFFCURVE",
"170 123 OFFCURVE",
"170 214 CURVE SMOOTH",
"170 302 LINE SMOOTH",
"170 393 OFFCURVE",
"223 459 OFFCURVE",
"317 459 CURVE SMOOTH",
"381 459 OFFCURVE",
"425 428 OFFCURVE",
"444 375 CURVE",
"508 409 LINE",
"479 479 OFFCURVE",
"417 528 OFFCURVE",
"317 528 CURVE SMOOTH",
"171 528 OFFCURVE",
"84 422 OFFCURVE",
"84 258 CURVE SMOOTH",
"84 95 OFFCURVE",
"170 -12 OFFCURVE",
"318 -12 CURVE SMOOTH"
);
}
);
width = 600;
}
);
note = cacute;
unicode = 0107;
},
{
glyphname = ccaron;
lastChange = "2017-11-24 19:34:51 +0000";
layers = (
{
layerId = "6B036DBC-DFAA-4A6A-8D11-6D1679C0E942";
paths = (
{
closed = 1;
nodes = (
"363 599 LINE",
"474 742 LINE",
"432 773 LINE",
"315 656 LINE",
"198 773 LINE",
"152 742 LINE",
"263 599 LINE"
);
},
{
closed = 1;
nodes = (
"421 -12 OFFCURVE",
"486 39 OFFCURVE",
"516 108 CURVE",
"459 147 LINE",
"433 91 OFFCURVE",
"388 57 OFFCURVE",
"319 57 CURVE SMOOTH",
"222 57 OFFCURVE",
"170 123 OFFCURVE",
"170 214 CURVE SMOOTH",
"170 302 LINE SMOOTH",
"170 393 OFFCURVE",
"223 459 OFFCURVE",
"317 459 CURVE SMOOTH",
"381 459 OFFCURVE",
"425 428 OFFCURVE",
"444 375 CURVE",
"508 409 LINE",
"479 479 OFFCURVE",
"417 528 OFFCURVE",
"317 528 CURVE SMOOTH",
"171 528 OFFCURVE",
"84 422 OFFCURVE",
"84 258 CURVE SMOOTH",
"84 95 OFFCURVE",
"170 -12 OFFCURVE",
"318 -12 CURVE SMOOTH"
);
}
);
width = 600;
}
);
note = ccaron;
unicode = 010D;
},
{
glyphname = ccedilla;
lastChange = "2017-11-24 19:34:51 +0000";
layers = (
{
layerId = "6B036DBC-DFAA-4A6A-8D11-6D1679C0E942";
paths = (
{
closed = 1;
nodes = (
"171 528 OFFCURVE",
"84 422 OFFCURVE",
"84 258 CURVE SMOOTH",
"84 111 OFFCURVE",
"155 9 OFFCURVE",
"277 -9 CURVE",
"263 -77 LINE",
"291 -81 LINE SMOOTH",
"347 -89 OFFCURVE",
"359 -104 OFFCURVE",
"359 -122 CURVE SMOOTH",
"359 -143 OFFCURVE",
"340 -153 OFFCURVE",
"315 -153 CURVE SMOOTH",
"286 -153 OFFCURVE",
"266 -140 OFFCURVE",
"254 -125 CURVE",
"216 -166 LINE",
"230 -185 OFFCURVE",
"261 -207 OFFCURVE",
"315 -207 CURVE SMOOTH",
"374 -207 OFFCURVE",
"426 -181 OFFCURVE",
"426 -124 CURVE SMOOTH",
"426 -81 OFFCURVE",
"397 -58 OFFCURVE",
"358 -58 CURVE SMOOTH",
"346 -58 OFFCURVE",
"332 -60 OFFCURVE",
"319 -64 CURVE",
"316 -61 LINE",
"326 -12 LINE",
"425 -9 OFFCURVE",
"486 40 OFFCURVE",
"516 108 CURVE",
"459 147 LINE",
"433 91 OFFCURVE",
"388 57 OFFCURVE",
"319 57 CURVE SMOOTH",
"222 57 OFFCURVE",
"170 123 OFFCURVE",
"170 214 CURVE SMOOTH",
"170 302 LINE SMOOTH",
"170 393 OFFCURVE",
"223 459 OFFCURVE",
"317 459 CURVE SMOOTH",
"381 459 OFFCURVE",
"425 428 OFFCURVE",
"444 375 CURVE",
"508 409 LINE",
"479 479 OFFCURVE",
"417 528 OFFCURVE",
"317 528 CURVE SMOOTH"
);
}
);
width = 600;
}
);
note = ccedilla;
unicode = 00E7;
},
{
glyphname = ccircumflex;
lastChange = "2017-11-24 19:34:51 +0000";
layers = (
{
layerId = "6B036DBC-DFAA-4A6A-8D11-6D1679C0E942";
paths = (
{
closed = 1;
nodes = (
"263 765 LINE",
"152 622 LINE",
"195 591 LINE",
"312 708 LINE",
"429 591 LINE",
"474 622 LINE",
"363 765 LINE"
);
},
{
closed = 1;
nodes = (
"421 -12 OFFCURVE",
"486 39 OFFCURVE",
"516 108 CURVE",
"459 147 LINE",
"433 91 OFFCURVE",
"388 57 OFFCURVE",
"319 57 CURVE SMOOTH",
"222 57 OFFCURVE",
"170 123 OFFCURVE",
"170 214 CURVE SMOOTH",
"170 302 LINE SMOOTH",
"170 393 OFFCURVE",
"223 459 OFFCURVE",
"317 459 CURVE SMOOTH",
"381 459 OFFCURVE",
"425 428 OFFCURVE",
"444 375 CURVE",
"508 409 LINE",
"479 479 OFFCURVE",
"417 528 OFFCURVE",
"317 528 CURVE SMOOTH",
"171 528 OFFCURVE",
"84 422 OFFCURVE",
"84 258 CURVE SMOOTH",
"84 95 OFFCURVE",
"170 -12 OFFCURVE",
"318 -12 CURVE SMOOTH"
);
}
);
width = 600;
}
);
note = ccircumflex;
unicode = 0109;
},
{
glyphname = cdotaccent;
lastChange = "2017-11-24 19:34:51 +0000";
layers = (
{
layerId = "6B036DBC-DFAA-4A6A-8D11-6D1679C0E942";
paths = (
{
closed = 1;
nodes = (
"359 612 OFFCURVE",
"376 634 OFFCURVE",
"376 663 CURVE SMOOTH",
"376 679 LINE SMOOTH",
"376 708 OFFCURVE",
"359 730 OFFCURVE",
"313 730 CURVE SMOOTH",
"267 730 OFFCURVE",
"250 708 OFFCURVE",
"250 679 CURVE SMOOTH",
"250 663 LINE SMOOTH",
"250 634 OFFCURVE",
"267 612 OFFCURVE",
"313 612 CURVE SMOOTH"
);
},
{
closed = 1;
nodes = (
"421 -12 OFFCURVE",
"486 39 OFFCURVE",
"516 108 CURVE",
"459 147 LINE",
"433 91 OFFCURVE",
"388 57 OFFCURVE",
"319 57 CURVE SMOOTH",
"222 57 OFFCURVE",
"170 123 OFFCURVE",
"170 214 CURVE SMOOTH",
"170 302 LINE SMOOTH",
"170 393 OFFCURVE",
"223 459 OFFCURVE",
"317 459 CURVE SMOOTH",
"381 459 OFFCURVE",
"425 428 OFFCURVE",
"444 375 CURVE",
"508 409 LINE",
"479 479 OFFCURVE",
"417 528 OFFCURVE",
"317 528 CURVE SMOOTH",
"171 528 OFFCURVE",
"84 422 OFFCURVE",
"84 258 CURVE SMOOTH",
"84 95 OFFCURVE",
"170 -12 OFFCURVE",
"318 -12 CURVE SMOOTH"
);
}
);
width = 600;
}
);
note = cdotaccent;
unicode = 010B;
},
{
glyphname = dcaron;
lastChange = "2017-11-24 19:34:51 +0000";
layers = (
{
layerId = "6B036DBC-DFAA-4A6A-8D11-6D1679C0E942";
paths = (
{
closed = 1;
nodes = (
"304 -12 OFFCURVE",
"355 21 OFFCURVE",
"386 84 CURVE",
"390 84 LINE",
"390 0 LINE",
"470 0 LINE",
"470 740 LINE",
"390 740 LINE",
"390 432 LINE",
"386 432 LINE",
"355 495 OFFCURVE",
"304 528 OFFCURVE",
"237 528 CURVE SMOOTH",
"117 528 OFFCURVE",
"45 427 OFFCURVE",
"45 258 CURVE SMOOTH",
"45 89 OFFCURVE",
"117 -12 OFFCURVE",
"237 -12 CURVE SMOOTH"
);
},
{
closed = 1;
nodes = (
"176 59 OFFCURVE",
"131 118 OFFCURVE",
"131 214 CURVE SMOOTH",
"131 302 LINE SMOOTH",
"131 398 OFFCURVE",
"176 457 OFFCURVE",
"263 457 CURVE SMOOTH",
"329 457 OFFCURVE",
"390 420 OFFCURVE",
"390 351 CURVE SMOOTH",
"390 165 LINE SMOOTH",
"390 96 OFFCURVE",
"329 59 OFFCURVE",
"263 59 CURVE SMOOTH"
);
},
{
closed = 1;
nodes = (
"538 551 LINE",
"599 551 LINE",
"648 740 LINE",
"545 740 LINE"
);
}
);
width = 600;
}
);
note = dcaron;
unicode = 010F;
},
{
glyphname = dcroat;
lastChange = "2017-11-24 19:34:51 +0000";
layers = (
{
layerId = "6B036DBC-DFAA-4A6A-8D11-6D1679C0E942";
paths = (
{
closed = 1;
nodes = (
"425 0 LINE",
"505 0 LINE",
"505 608 LINE",
"570 608 LINE",
"570 670 LINE",
"505 670 LINE",
"505 740 LINE",
"425 740 LINE",
"425 670 LINE",
"272 670 LINE",
"272 608 LINE",
"425 608 LINE",
"425 432 LINE",
"421 432 LINE",
"388 495 OFFCURVE",
"334 528 OFFCURVE",
"262 528 CURVE SMOOTH",
"136 528 OFFCURVE",
"60 427 OFFCURVE",
"60 258 CURVE SMOOTH",
"60 89 OFFCURVE",
"136 -12 OFFCURVE",
"262 -12 CURVE SMOOTH",
"334 -12 OFFCURVE",
"388 21 OFFCURVE",
"421 84 CURVE",
"425 84 LINE"
);
},
{
closed = 1;
nodes = (
"200 59 OFFCURVE",
"146 121 OFFCURVE",
"146 214 CURVE SMOOTH",
"146 302 LINE SMOOTH",
"146 395 OFFCURVE",
"200 457 OFFCURVE",
"293 457 CURVE SMOOTH",
"364 457 OFFCURVE",
"425 420 OFFCURVE",
"425 351 CURVE SMOOTH",
"425 165 LINE SMOOTH",
"425 96 OFFCURVE",
"364 59 OFFCURVE",
"293 59 CURVE SMOOTH"
);
}
);
width = 600;
}
);
note = dcroat;
unicode = 0111;
},
